<svg xmlns="http://www.w3.org/2000/svg" viewBox="0 0 500 500"><path style="fill:#c7c7c7" d="M78.96 0h1v91.65h-1z"/><path style="fill:#ebebeb" d="m111.28 122.33-2.56 5.62H50.19l-2.56-5.62 24.93-17.25h13.8z"/><path style="fill:#dbdbdb" d="m88.09 88.46-1.73 16.62h-13.8l-1.73-16.62zm23.19 33.87-2.56 5.63H50.18l-2.55-5.63z"/><path style="fill:#c7c7c7" d="M147.29 0h1v73.5h-1z"/><path style="fill:#ebebeb" d="m179.62 104.17-2.56 5.63h-58.54l-2.55-5.63 24.92-17.25h13.81z"/><path style="fill:#dbdbdb" d="m156.43 70.31-1.73 16.61h-13.81l-1.73-16.61zm23.19 33.87-2.56 5.62h-58.54l-2.55-5.62zm72.51 58.46.2 77.6a7.85 7.85 0 0 1-7.83 7.88l-123.07.32a7.85 7.85 0 0 1-7.87-7.84l-.2-77.6a7.3 7.3 0 0 1 7.28-7.32l124.16-.33a7.31 7.31 0 0 1 7.33 7.29"/><path d="M232.3 229.36a7.23 7.23 0 1 1-7.24-7.21 7.22 7.22 0 0 1 7.24 7.21" style="fill:#a6a6a6"/><path d="M241.2 229.34a7.23 7.23 0 1 1-7.25-7.21 7.23 7.23 0 0 1 7.25 7.21" style="fill:#409e8d"/><rect x="125.06" y="168.96" width="26.05" height="18" rx="4.2" transform="rotate(-.15 137.28 175.887)" style="fill:#409e8d"/><path d="M236.13 178.58h-11.79a4.94 4.94 0 0 1-5-4.93 4.94 4.94 0 0 1 4.93-5h11.78a4.94 4.94 0 0 1 5 4.93 4.94 4.94 0 0 1-4.92 5" style="fill:#fff"/><path d="m124.17 203.41-1.07.63a.3.3 0 0 1-.13 0 .26.26 0 0 1-.23-.13.25.25 0 0 1 .1-.35l1.45-.89a.28.28 0 0 1 .36.09.35.35 0 0 1 0 .2v6.94a.26.26 0 0 1-.26.26.26.26 0 0 1-.26-.26Zm2.38 6.32 3.53-3.19a2 2 0 0 0 .64-1.45 1.9 1.9 0 0 0-.51-1.3 2 2 0 0 0-2.75-.13l-.37.34a.26.26 0 0 1-.36-.38l.37-.35a2.53 2.53 0 0 1 1.67-.64 2.49 2.49 0 0 1 2.47 2.46 2.46 2.46 0 0 1-.81 1.83l-3 2.74H131a.27.27 0 0 1 0 .53h-4.25a.24.24 0 0 1-.19-.07.29.29 0 0 1-.01-.39m10.93-6.65-1.95 2a2.53 2.53 0 0 1 1.3.68 2.58 2.58 0 0 1-1.81 4.39 2.52 2.52 0 0 1-1.81-.75.26.26 0 0 1 0-.38.27.27 0 0 1 .38 0 2 2 0 0 0 1.42.58 2.1 2.1 0 0 0 1.44-.58 2 2 0 0 0 .59-1.44 2 2 0 0 0-.6-1.43 2 2 0 0 0-1.43-.59.28.28 0 0 1-.21-.1.27.27 0 0 1 0-.39l1.87-1.94h-2.89a.27.27 0 0 1-.27-.27.26.26 0 0 1 .27-.27h3.53a.27.27 0 0 1 .27.27.17.17 0 0 1 0 .12.22.22 0 0 1-.1.1m6.36 5.51h-4.09a.25.25 0 0 1-.16-.06.25.25 0 0 1 0-.37l4.36-5.45a.27.27 0 0 1 .45.1v5.22h.51a.27.27 0 0 1 .27.26.26.26 0 0 1-.27.26h-.5v1.3a.27.27 0 0 1-.53 0Zm0-.51v-4.43l-3.57 4.44Zm9.47 1.3a.26.26 0 0 1 0-.38.27.27 0 0 1 .39 0 2 2 0 0 0 2.85 0 2 2 0 0 0 .59-1.42 2 2 0 0 0-2-2 2 2 0 0 0-1.43.6.26.26 0 0 1-.38 0 .16.16 0 0 1-.06-.08.1.1 0 0 1 0-.08v-.06l.36-3a.24.24 0 0 1 .11-.2.25.25 0 0 1 .17-.06h3.52a.27.27 0 0 1 .27.27.25.25 0 0 1-.26.27h-3.3l-.26 2.24a2.56 2.56 0 0 1 3.09.39 2.58 2.58 0 0 1 0 3.63 2.63 2.63 0 0 1-1.82.75 2.55 2.55 0 0 1-1.84-.87m7.18-5.18a3.08 3.08 0 0 1 2.64-1.65.26.26 0 0 1 .27.25.28.28 0 0 1-.26.28 2.56 2.56 0 0 0-2.19 1.38 5 5 0 0 0-.54 1.51 2.49 2.49 0 1 1-.62 1.73 4 4 0 0 1 0-.5 6.2 6.2 0 0 1 .7-3m-.17 3.46a.7.7 0 0 0 0 .14.15.15 0 0 1 0 .07 2 2 0 1 0 0-.26Zm7.22 2.06 2.78-6.64h-3.65a.26.26 0 0 1-.26-.25.26.26 0 0 1 .26-.26h4a.33.33 0 0 1 .17 0 .32.32 0 0 1 .14.16.2.2 0 0 1 0 .08.2.2 0 0 1 0 .14l-2.91 7a.28.28 0 0 1-.24.17.23.23 0 0 1-.11 0 .3.3 0 0 1-.18-.4m7.46-7.21a1.57 1.57 0 0 1 .93 2.84 2.44 2.44 0 1 1-1.86 0 1.58 1.58 0 0 1-.63-1.27 1.55 1.55 0 0 1 1.56-1.57m0 7a1.93 1.93 0 1 0-1.94-1.93 1.93 1.93 0 0 0 1.94 1.97Zm0-4.4a1.08 1.08 0 0 0 1.05-1.08 1 1 0 0 0-1.06-1 1 1 0 0 0-1 1.05 1.07 1.07 0 0 0 1.01 1.07Zm13.42-2.63a2.48 2.48 0 0 1 2.49 2.19v.7a6.25 6.25 0 0 1-.71 3 3.13 3.13 0 0 1-2.6 1.63.26.26 0 0 1-.27-.25.27.27 0 0 1 .25-.28 2.57 2.57 0 0 0 2.2-1.38 4.8 4.8 0 0 0 .54-1.51 2.45 2.45 0 0 1-1.88.83 2.49 2.49 0 1 1 0-5Zm2 2.47a2 2 0 1 0-2 2 2 2 0 0 0 1.98-1.95Zm2.43 1.29a4.76 4.76 0 0 1 .72-2.64 2.14 2.14 0 0 1 3.78 0 5 5 0 0 1 .74 2.64 4.9 4.9 0 0 1-.73 2.64 2.13 2.13 0 0 1-3.78 0 4.7 4.7 0 0 1-.73-2.64m.53 0a4.25 4.25 0 0 0 .64 2.34 1.83 1.83 0 0 0 1.45.91 1.87 1.87 0 0 0 1.45-.91 4.4 4.4 0 0 0 .64-2.35 4.26 4.26 0 0 0-.66-2.34 1.79 1.79 0 0 0-1.45-.9 1.76 1.76 0 0 0-1.44.91 4.25 4.25 0 0 0-.63 2.34m8.19-3.03-1.07.63a.24.24 0 0 1-.35-.09.24.24 0 0 1 .09-.35l1.46-.89a.27.27 0 0 1 .36.09.35.35 0 0 1 0 .2v6.94a.26.26 0 0 1-.26.26.26.26 0 0 1-.26-.26Zm2.43 6.32 3.52-3.19a2 2 0 0 0 .65-1.45 2 2 0 0 0-.51-1.3 2 2 0 0 0-2.76-.13l-.36.34a.27.27 0 0 1-.37 0 .25.25 0 0 1 0-.37l.37-.35a2.5 2.5 0 0 1 1.67-.64 2.38 2.38 0 0 1 1.81.81 2.35 2.35 0 0 1 .65 1.65 2.42 2.42 0 0 1-.8 1.83l-3 2.74h3.58a.27.27 0 0 1 0 .53h-4.25a.26.26 0 0 1-.2-.07.28.28 0 0 1 0-.4m17.36-6.66-2 2a2.55 2.55 0 0 1 1.3 4.31 2.58 2.58 0 0 1-1.82.76 2.47 2.47 0 0 1-1.8-.75.25.25 0 0 1 0-.37.27.27 0 0 1 .38 0 2 2 0 0 0 1.42.58 2.05 2.05 0 0 0 1.44-.58 2 2 0 0 0 .59-1.44 2 2 0 0 0-.6-1.42 2 2 0 0 0-1.43-.59.3.3 0 0 1-.21-.11.27.27 0 0 1 0-.39l1.87-1.94h-2.89a.26.26 0 0 1-.27-.27.25.25 0 0 1 .26-.27h3.53a.28.28 0 0 1 .28.27.25.25 0 0 1 0 .12.4.4 0 0 1-.05.09m6.36 5.51h-4.13a.2.2 0 0 1-.16-.06.24.24 0 0 1 0-.36l4.36-5.46a.25.25 0 0 1 .36 0 .3.3 0 0 1 .09.13v5.22h.51a.26.26 0 1 1 0 .51h-.5v1.29a.27.27 0 0 1-.53 0Zm0-.52v-4.43l-3.56 4.44Zm3 1.32a.27.27 0 0 1 0-.38.27.27 0 0 1 .39 0 2 2 0 0 0 1.43.58 2 2 0 0 0 2-2 2 2 0 0 0-2-2 2 2 0 0 0-1.43.6.26.26 0 0 1-.38 0 .16.16 0 0 1-.07-.09.2.2 0 0 1 0-.09v-.05l.36-3a.22.22 0 0 1 .11-.2.25.25 0 0 1 .17-.06h3.52a.27.27 0 1 1 0 .54h-3.29l-.27 2.24a2.56 2.56 0 0 1 3.09.39 2.5 2.5 0 0 1 .75 1.81 2.53 2.53 0 0 1-.74 1.82 2.6 2.6 0 0 1-1.81.75 2.56 2.56 0 0 1-1.83-.86m7.18-5.18a3.07 3.07 0 0 1 2.64-1.65.26.26 0 0 1 .27.25.28.28 0 0 1-.26.28 2.57 2.57 0 0 0-2.2 1.38 4.7 4.7 0 0 0-.53 1.51 2.48 2.48 0 1 1-.63 1.73 4 4 0 0 1 0-.5 6.2 6.2 0 0 1 .71-3m-.18 3.46a.4.4 0 0 0 0 .14.08.08 0 0 1 0 .07 2 2 0 0 0 2 1.7 2 2 0 1 0-2-2Z" style="fill:#f8f8f8"/><path transform="rotate(-.15 156.318 221.749)" style="fill:#a6a6a6" d="M125.18 223.07h65.9v3.24h-65.9z"/><path transform="rotate(-.15 148.669 229.378)" style="fill:#a6a6a6" d="M125.2 230.29h46.66v3.24H125.2z"/><path transform="rotate(-.15 198.405 168.328)" style="fill:#a6a6a6" d="M181.98 168.8h32.87v3.24h-32.87z"/><path style="fill:#ebebeb" d="M404.03 34.79h56.67v56.67h-56.67z"/><path d="M433.31 43.89a1.92 1.92 0 0 1 1.93 1.92v1a16.24 16.24 0 0 1 6.94 2.46 2.39 2.39 0 0 1 1.34 2.15 2.47 2.47 0 0 1-2.52 2.46 2.6 2.6 0 0 1-1.34-.41 16.4 16.4 0 0 0-4.61-2v8.6c6.81 1.71 9.72 4.44 9.72 9.23s-3.86 8.2-9.54 8.74v2.69a1.92 1.92 0 0 1-1.93 1.92 1.94 1.94 0 0 1-2-1.92V78a19.4 19.4 0 0 1-9.19-3.5 2.46 2.46 0 0 1-1.21-2.15 2.43 2.43 0 0 1 2.47-2.46 2.48 2.48 0 0 1 1.48.49 15.6 15.6 0 0 0 6.63 3v-8.84c-6.54-1.7-9.59-4.17-9.59-9.23 0-4.79 3.81-8.11 9.41-8.56v-.94a1.94 1.94 0 0 1 2.01-1.92m-1.79 15.27v-7.93c-2.87.27-4.3 1.79-4.3 3.77s.85 3 4.3 4.16m3.54 6.23v8.15c2.86-.31 4.43-1.74 4.43-3.89 0-1.98-.99-3.19-4.43-4.26" style="fill:#fff"/><path style="fill:#263238" d="m41.45 421.79 52.14-.24 52.14-.09L250 421.3l104.27.16 52.14.09 52.14.24-52.14.25-52.14.09-104.27.16-104.27-.16-52.14-.09z"/><ellipse cx="250" cy="444.22" rx="219.75" ry="27.51" style="fill:#ebebeb"/><path d="M434.14 89v322a17 17 0 0 1-16.86 17.17H250.7A17 17 0 0 1 233.85 411V89a17 17 0 0 1 16.85-17.18h166.58A17 17 0 0 1 434.14 89" style="fill:#263238"/><path d="M423.61 105.16v295.25c0 9-6.76 16.33-15.09 16.33h-149c-8.35 0-15.11-7.31-15.11-16.33V105.16c0-18.4 6.76-22.46 15.11-22.46h29.85c1.73 0 3.14 2 3.14 4.41v1c0 5.73 3.14 5.75 7 5.75h69c3.88 0 7 0 7-5.75v-1c0-2.44 1.4-4.41 3.15-4.41h29.87c8.32 0 15.08 5.61 15.08 22.46" style="fill:#fff"/><path d="M343.41 86.76h-18.83a1.16 1.16 0 0 1-1.17-1.16 1.16 1.16 0 0 1 1.17-1.16h18.83a1.16 1.16 0 0 1 1.16 1.16 1.16 1.16 0 0 1-1.16 1.16" style="fill:#fff"/><path d="M398.62 288c-1.61 3-5.48 5.57-5.48 5.57s-3.87-2.61-5.48-5.57c-1.82-3.34-.82-6.76 1.8-6.76 2.92 0 3.68 3.64 3.68 3.64s.76-3.64 3.67-3.64c2.62-.03 3.63 3.39 1.81 6.76" style="fill:#409e8d"/><path style="fill:#dbdbdb" d="M268.44 107.91h14.99v2.47h-14.99zm0 4.93h14.99v2.47h-14.99zm0 4.94h14.99v2.47h-14.99z"/><path transform="rotate(-37.15 357.589 116.293)" style="fill:#dbdbdb" d="M356.59 112.11h2.07v8.35h-2.07z"/><path d="M357.73 109.52a4.49 4.49 0 1 1-6.3-.84 4.48 4.48 0 0 1 6.3.84" style="fill:#dbdbdb"/><path d="M356.29 110.61a2.69 2.69 0 1 1-3.76-.49 2.69 2.69 0 0 1 3.76.49" style="fill:#fff"/><path d="M380.44 114.68c-1.62 3-5.49 5.56-5.49 5.56s-3.87-2.6-5.47-5.56c-1.82-3.35-.82-6.77 1.8-6.77 2.92 0 3.67 3.64 3.67 3.64s.77-3.64 3.68-3.64c2.62 0 3.63 3.42 1.81 6.77m17.37 3.09h-9.05l-2.28-9.17h-.9v-.78h1.51l.45 1.81h12.52Zm-8.44-.78h7.85l1.82-6.57h-11.31Z" style="fill:#dbdbdb"/><path style="fill:#dbdbdb" d="m396.35 119.25-.63-1.49h-5.13l-.51 1.46-.73-.25.68-1.99h6.21l.82 1.96zm-8.67-7.82h11.3v.78h-11.3z"/><path transform="rotate(-89.75 393.383 113.757)" style="fill:#dbdbdb" d="M393.01 108.63h.78v10.23h-.78z"/><path style="fill:#dbdbdb" d="M388.71 115.33h9.26v.78h-9.26z"/><path style="fill:#dbdbdb" d="M392.83 110.07h.78v7.31h-.78z"/><path transform="matrix(.08 -1 1 .08 250.24 498.38)" style="fill:#dbdbdb" d="M391.26 113.33h7.34v.78h-7.34z"/><path transform="rotate(-79.58 396.762 113.718)" style="fill:#dbdbdb" d="M393.04 113.33h7.44v.78h-7.44z"/><path transform="rotate(-4.58 391.69 113.721)" style="fill:#dbdbdb" d="M391.16 110.05h.78v7.34h-.78z"/><path transform="rotate(-10.42 389.769 113.721)" style="fill:#dbdbdb" d="M389.33 110h.78v7.44h-.78z"/><path d="M396.7 120.33a1.24 1.24 0 1 1 1.24-1.24 1.23 1.23 0 0 1-1.24 1.24m0-1.7a.47.47 0 1 0 .47.46.47.47 0 0 0-.47-.46m-6.96 1.7a1.24 1.24 0 1 1 1.24-1.24 1.24 1.24 0 0 1-1.24 1.24m0-1.7a.47.47 0 1 0 .46.46.47.47 0 0 0-.46-.46" style="fill:#dbdbdb"/><circle cx="399.55" cy="107.64" r="3.31" style="fill:#409e8d"/><path d="M400 105.74v3.66a.35.35 0 0 1-.35.34.34.34 0 0 1-.34-.34v-3.05l-.25.14a.28.28 0 0 1-.17.05.32.32 0 0 1-.29-.17.33.33 0 0 1 .11-.47l.76-.45h.2Z" style="fill:#fff"/><path style="fill:#dbdbdb" d="M268.44 283.65h82.41v2.33h-82.41zm0 4.35h70.88v2.33h-70.88z"/><path style="fill:#c7c7c7" d="m260.17 213.15-3.31-3.1 3.31-3.1.52.54-2.73 2.56 2.73 2.55z"/><path d="M259.5 215.57a5.53 5.53 0 1 1 5.53-5.52 5.53 5.53 0 0 1-5.53 5.52m0-10a4.53 4.53 0 1 0 4.53 4.53 4.53 4.53 0 0 0-4.53-4.58Zm148.32 7.58-.52-.55 2.73-2.55-2.73-2.56.52-.54 3.31 3.1z" style="fill:#c7c7c7"/><path d="M408.49 215.57a5.53 5.53 0 1 1 5.52-5.52 5.53 5.53 0 0 1-5.52 5.52m0-10a4.53 4.53 0 1 0 4.52 4.53 4.53 4.53 0 0 0-4.52-4.58Z" style="fill:#c7c7c7"/><path d="M273.64 343.35a.31.31 0 0 1 .3.3v.5a4 4 0 0 1 2.21.87.33.33 0 0 1 .17.28.32.32 0 0 1-.32.31.28.28 0 0 1-.22-.09 3.55 3.55 0 0 0-1.86-.8v3.48c1.88.39 2.68 1.1 2.68 2.32a2.46 2.46 0 0 1-2.66 2.3v1a.3.3 0 0 1-.6 0v-1a4.6 4.6 0 0 1-2.79-1.2.31.31 0 0 1 .17-.57.38.38 0 0 1 .23.08 4 4 0 0 0 2.42 1.13v-3.56c-1.87-.41-2.63-1.09-2.63-2.33a2.41 2.41 0 0 1 2.6-2.25v-.47a.31.31 0 0 1 .3-.3m-.27 4.72v-3.39c-1.21 0-2 .74-2 1.64s.4 1.37 2 1.75m.55.76v3.43c1.24 0 2-.75 2-1.69s-.39-1.38-2-1.74m4.25 3.45 4.07-3.66A2.3 2.3 0 0 0 283 347a2.23 2.23 0 0 0-2.23-2.22 2.3 2.3 0 0 0-1.52.57l-.42.39a.28.28 0 0 1-.42 0 .27.27 0 0 1 0-.42l.42-.4a2.94 2.94 0 0 1 1.93-.73 2.86 2.86 0 0 1 2.83 2.83 2.86 2.86 0 0 1-.93 2.11l-3.48 3.15h4.11a.3.3 0 0 1 .3.31.31.31 0 0 1-.3.3h-4.89a.3.3 0 0 1-.23-.09.34.34 0 0 1 0-.52m7.47-3.81a5.6 5.6 0 0 1 .83-3.05 2.47 2.47 0 0 1 4.35 0 5.7 5.7 0 0 1 .84 3.05 5.6 5.6 0 0 1-.84 3 2.45 2.45 0 0 1-4.35 0 5.5 5.5 0 0 1-.83-3m.61 0a4.9 4.9 0 0 0 .73 2.69 1.85 1.85 0 0 0 3.33 0 5.28 5.28 0 0 0 0-5.39 1.85 1.85 0 0 0-3.33 0 4.9 4.9 0 0 0-.73 2.7m8.75 3.1a.63.63 0 1 1-.62.62.62.62 0 0 1 .62-.62m1.82-3.1a5.5 5.5 0 0 1 .83-3.05 2.72 2.72 0 0 1 2.17-1.3 2.75 2.75 0 0 1 2.18 1.3 5.7 5.7 0 0 1 .84 3.05 5.6 5.6 0 0 1-.84 3 2.72 2.72 0 0 1-2.18 1.32 2.69 2.69 0 0 1-2.17-1.32 5.4 5.4 0 0 1-.83-3m.6 0a4.9 4.9 0 0 0 .74 2.69 2.08 2.08 0 0 0 1.66 1 2.12 2.12 0 0 0 1.67-1 5.28 5.28 0 0 0 0-5.39 2.06 2.06 0 0 0-1.67-1 2 2 0 0 0-1.66 1 4.9 4.9 0 0 0-.74 2.7m8.21 0a5.5 5.5 0 0 1 .84-3.05 2.46 2.46 0 0 1 4.34 0 5.6 5.6 0 0 1 .85 3.05 5.5 5.5 0 0 1-.85 3 2.44 2.44 0 0 1-4.34 0 5.43 5.43 0 0 1-.84-3m.61 0a4.9 4.9 0 0 0 .74 2.69 2.08 2.08 0 0 0 1.66 1 2.11 2.11 0 0 0 1.66-1 5.22 5.22 0 0 0 0-5.39 2 2 0 0 0-1.66-1 2 2 0 0 0-1.66 1 4.9 4.9 0 0 0-.74 2.7m-32.46-213.56-1.86 2.58a.19.19 0 0 1-.17.09.19.19 0 0 1-.18-.09l-1.85-2.57v4.77a.2.2 0 0 1-.2.19.2.2 0 0 1-.21-.19v-5.37a.18.18 0 0 1 .08-.16.22.22 0 0 1 .28.05l2.07 2.86 2.05-2.86a.22.22 0 0 1 .28-.05l.06.07a.2.2 0 0 1 0 .11v5.37a.2.2 0 0 1-.19.19.19.19 0 0 1-.2-.19Zm4.15.91a2 2 0 1 1-1.92 2 2 2 0 0 1 1.92-2m0 3.67a1.64 1.64 0 1 0-1.52-1.64 1.59 1.59 0 0 0 1.52 1.64m6.69-.39a1.92 1.92 0 0 1-1.56.78 2 2 0 0 1 0-4.06 1.94 1.94 0 0 1 1.56.8v-2.34a.2.2 0 0 1 .21-.19.2.2 0 0 1 .2.19v5.41a.2.2 0 0 1-.2.19.2.2 0 0 1-.21-.19Zm0-1.17v-.13a1.62 1.62 0 1 0 0 .13m1.8-.07a2 2 0 0 1 2-2 2 2 0 0 1 2 1.89.19.19 0 0 1-.2.18h-3.33a1.6 1.6 0 0 0 1.58 1.56 1.53 1.53 0 0 0 1.31-.74.19.19 0 0 1 .26-.07.21.21 0 0 1 .07.28 1.94 1.94 0 0 1-1.64.92 2 2 0 0 1-2.05-2.02m.43-.32h3.07a1.55 1.55 0 0 0-3.07 0m4.73-1.54a.2.2 0 0 1 .21-.2.2.2 0 0 1 .19.2v.9a.3.3 0 0 1 .06-.1 2 2 0 0 1 1.62-1 .2.2 0 0 1 0 .4 1.46 1.46 0 0 0-1.17.66 3.6 3.6 0 0 0-.49 1 .1.1 0 0 0 0 .06v1.79a.19.19 0 0 1-.19.19.2.2 0 0 1-.21-.19Zm6.54 1.48a1.25 1.25 0 0 0-1.25-1.25 1.27 1.27 0 0 0-1.26 1.25v2.24a.3.3 0 0 1 0 .09.19.19 0 0 1-.15.07h-.05a.21.21 0 0 1-.14-.1V136a.19.19 0 0 1 .2-.2.2.2 0 0 1 .19.2v.39a1.63 1.63 0 0 1 1.26-.59 1.66 1.66 0 0 1 1.65 1.65v2.21a.2.2 0 0 1-.2.19.19.19 0 0 1-.2-.19Zm8.14-.3h-3v2.51a.2.2 0 0 1-.4 0v-5.41a.2.2 0 0 1 .4 0v2.51h3v-2.51a.2.2 0 0 1 .4 0v5.41a.2.2 0 0 1-.4 0Zm5.79-1.18v3.67a.2.2 0 0 1-.2.19.2.2 0 0 1-.19-.19v-.61a1.91 1.91 0 0 1-1.53.8 2 2 0 0 1 0-4.06 1.91 1.91 0 0 1 1.53.8v-.6a.2.2 0 1 1 .39 0m-.39 1.83a1.53 1.53 0 1 0-1.53 1.64 1.59 1.59 0 0 0 1.53-1.62Zm4.93-.35a1.24 1.24 0 0 0-1.25-1.25 1.27 1.27 0 0 0-1.26 1.25v2.24a.3.3 0 0 1 0 .09.18.18 0 0 1-.15.07h-.05a.17.17 0 0 1-.13-.1V136a.19.19 0 0 1 .2-.2.19.19 0 0 1 .19.2v.39a1.63 1.63 0 0 1 1.26-.59 1.66 1.66 0 0 1 1.65 1.65v2.21a.2.2 0 0 1-.4 0Zm5.26 1.62a1.93 1.93 0 0 1-1.56.78 2 2 0 0 1 0-4.06 2 2 0 0 1 1.56.8v-2.34a.2.2 0 0 1 .21-.19.2.2 0 0 1 .19.19v5.41a.2.2 0 0 1-.19.19.2.2 0 0 1-.21-.19Zm0-1.17v-.13a1.62 1.62 0 1 0 0 .13m2.21.07v-3.67a.21.21 0 0 1 .2-.19.2.2 0 0 1 .21.19v2.34a2 2 0 0 1 1.56-.8 2 2 0 0 1 0 4.06 1.93 1.93 0 0 1-1.56-.78v.59a.2.2 0 0 1-.21.19.21.21 0 0 1-.2-.19Zm.41-.09a1.6 1.6 0 1 0 0-.06Zm8.46-1.91v3.67a.2.2 0 0 1-.19.19.2.2 0 0 1-.2-.19v-.61a1.91 1.91 0 0 1-1.53.8 2 2 0 0 1 0-4.06 1.91 1.91 0 0 1 1.53.8v-.6a.2.2 0 1 1 .39 0m-.39 1.83a1.53 1.53 0 1 0-1.53 1.64 1.59 1.59 0 0 0 1.53-1.62Zm5.95 1.73a1.91 1.91 0 0 1-1.91 1.91 2.2 2.2 0 0 1-.85-.19.22.22 0 0 1-.08-.27.18.18 0 0 1 .26-.09 1.52 1.52 0 0 0 2.18-1.36v-.5a1.83 1.83 0 0 1-1.51.8 2 2 0 0 1 0-4 1.86 1.86 0 0 1 1.51.8V136a.21.21 0 0 1 .21-.2.21.21 0 0 1 .19.2Zm-.4-1.72a1.51 1.51 0 1 0-1.51 1.63 1.57 1.57 0 0 0 1.51-1.63m-66.03 159.35a3.06 3.06 0 0 1 1.87.64.21.21 0 0 1 0 .29.19.19 0 0 1-.28 0 2.66 2.66 0 0 0-1.63-.56 2.54 2.54 0 1 0 0 5.07 2.45 2.45 0 0 0 1.61-.57.21.21 0 0 1 .29 0 .2.2 0 0 1 0 .29 3.05 3.05 0 0 1-1.87.63 2.94 2.94 0 1 1 0-5.88Zm5.18 1.81a2 2 0 1 1-1.92 2 2 2 0 0 1 1.92-2m0 3.66a1.64 1.64 0 1 0-1.52-1.63 1.59 1.59 0 0 0 1.52 1.64Zm3.5-5.19a.21.21 0 0 1 .2-.2.2.2 0 0 1 .21.2v5.4a.2.2 0 0 1-.21.2.21.21 0 0 1-.2-.2Zm3.74 1.53a2 2 0 1 1-1.92 2 2 2 0 0 1 1.92-2m0 3.66A1.64 1.64 0 1 0 283 301a1.58 1.58 0 0 0 1.48 1.67Zm3.28-3.44a.19.19 0 0 1 .2-.2.2.2 0 0 1 .2.2v.89a1 1 0 0 1 0-.1 2 2 0 0 1 1.63-1 .19.19 0 0 1 .2.2.2.2 0 0 1-.2.2 1.48 1.48 0 0 0-1.18.66 4 4 0 0 0-.49.95.2.2 0 0 0 0 .06v1.78a.2.2 0 0 1-.2.2.19.19 0 0 1-.2-.2Z"/><path style="fill:#409e8d" d="M278.98 365.84h110.03v23.17H278.98z"/><path d="M297.79 380.17h-3l-.6 1.62a.71.71 0 0 1-.65.43.6.6 0 0 1-.24 0 .7.7 0 0 1-.41-.89l2.75-7.32a.69.69 0 0 1 .66-.43.7.7 0 0 1 .66.43l2.74 7.32a.7.7 0 0 1-.41.89.6.6 0 0 1-.24 0 .67.67 0 0 1-.63-.43Zm-.51-1.37-1-2.67-1 2.67Zm4.1 2.74v-7.33a.67.67 0 0 1 .68-.68h1.47a4.35 4.35 0 0 1 0 8.69h-1.47a.68.68 0 0 1-.68-.68m1.38-.7h.77a3 3 0 0 0 0-5.94h-.77Zm7.18.7v-7.33a.67.67 0 0 1 .68-.68h1.47a4.35 4.35 0 0 1 0 8.69h-1.47a.68.68 0 0 1-.68-.68m1.38-.7h.77a3 3 0 0 0 0-5.94h-.77Zm16.59-5.94h-2v6.64a.69.69 0 0 1-1.37 0v-6.64h-2a.69.69 0 0 1-.69-.69.67.67 0 0 1 .69-.68h5.3a.67.67 0 0 1 .68.68.7.7 0 0 1-.61.69m8.9-.29a4.54 4.54 0 0 1 0 6.28 4 4 0 0 1-3 1.33 4.2 4.2 0 0 1-3.05-1.33 4.62 4.62 0 0 1 0-6.28 4.15 4.15 0 0 1 3.05-1.33 4 4 0 0 1 3 1.33m-.16 3.14a3.22 3.22 0 0 0-.84-2.18 2.7 2.7 0 0 0-2-.88 2.76 2.76 0 0 0-2 .88 3.18 3.18 0 0 0-.84 2.18 3.1 3.1 0 0 0 .84 2.16 2.73 2.73 0 0 0 2 .89 2.68 2.68 0 0 0 2-.89 3.15 3.15 0 0 0 .84-2.16m7.21 0a4.55 4.55 0 0 1 4.56-4.47 4.6 4.6 0 0 1 2.86 1 .71.71 0 0 1-.86 1.13 3.1 3.1 0 0 0-2-.69 3.27 3.27 0 0 0-2.24.9 3 3 0 0 0 0 4.32 3.27 3.27 0 0 0 2.24.89 3.1 3.1 0 0 0 2-.68.75.75 0 0 1 1 .14.73.73 0 0 1-.13 1 4.6 4.6 0 0 1-2.86 1 4.54 4.54 0 0 1-4.57-4.54m14.2 2.42h-3l-.61 1.62a.69.69 0 0 1-.65.43.6.6 0 0 1-.23 0 .69.69 0 0 1-.41-.89l2.74-7.32a.7.7 0 0 1 .66-.43.69.69 0 0 1 .66.43l2.74 7.32a.69.69 0 0 1-.41.89.6.6 0 0 1-.23 0 .67.67 0 0 1-.64-.43Zm-.5-1.37-1-2.67-1 2.67Zm9.85 2.39a.7.7 0 0 1-.44.87 1.2 1.2 0 0 1-.27 0 .9.9 0 0 1-.48-.14 1.2 1.2 0 0 1-.4-.44 3.4 3.4 0 0 1-.26-1.49 1 1 0 0 0-.15-.53 1.1 1.1 0 0 0-.37-.36 2.6 2.6 0 0 0-.7-.3h-1.46v2.7a.69.69 0 0 1-.7.68.68.68 0 0 1-.68-.68v-7.33a.67.67 0 0 1 .68-.68h2.23a2.65 2.65 0 0 1 2.59 2.71 2.62 2.62 0 0 1-1 2 2.1 2.1 0 0 1 .43.46 2.34 2.34 0 0 1 .41 1.34 3.7 3.7 0 0 0 .05.74.68.68 0 0 1 .52.45m-1.74-5a1.29 1.29 0 0 0-1.28-1.3h-1.53v2.56h1.53a1.28 1.28 0 0 0 1.28-1.25Zm8.81-1.29h-2v6.64a.67.67 0 0 1-.68.68.68.68 0 0 1-.69-.68v-6.64h-2a.69.69 0 0 1-.68-.69.67.67 0 0 1 .68-.68h5.3a.68.68 0 0 1 .69.68.7.7 0 0 1-.62.69" style="fill:#fff"/><path style="fill:#ebebeb" d="M268.44 144.5h131.1v131.1h-131.1z"/><ellipse cx="333.99" cy="260.91" rx="53.92" ry="7.49" style="fill:#dbdbdb"/><path d="M366.72 260.45h-65.46c-17.69 0-14.85-14.15-10.6-29s10.52-37.37 26.34-37.37h34c15.81 0 22.1 22.51 26.34 37.37s7.08 29-10.62 29" style="fill:#409e8d"/><g style="opacity:.1"><path d="M315.14 194.8a.68.68 0 1 1-.67-.68.68.68 0 0 1 .67.68m11.16 0a.68.68 0 1 1-.67-.68.68.68 0 0 1 .67.68m11.16 0a.68.68 0 1 1-.68-.68.68.68 0 0 1 .68.68m11.16 0a.69.69 0 0 1-.68.68.68.68 0 0 1 0-1.36.69.69 0 0 1 .68.68M304 209.14a.68.68 0 1 1-.68-.67.68.68 0 0 1 .68.67"/><circle cx="314.47" cy="209.14" r=".68"/><path d="M326.3 209.14a.68.68 0 1 1-.67-.67.67.67 0 0 1 .67.67m11.16 0a.68.68 0 1 1-.68-.67.67.67 0 0 1 .68.67m11.16 0a.68.68 0 0 1-.68.68.68.68 0 1 1 .68-.68m11.16 0a.68.68 0 1 1-.68-.67.68.68 0 0 1 .68.67m-50.21-7.35a.68.68 0 1 1-.68-.68.68.68 0 0 1 .68.68m11.15 0a.68.68 0 1 1-.67-.68.67.67 0 0 1 .67.68m11.16 0a.68.68 0 1 1-.68-.68.67.67 0 0 1 .68.68m11.12 0a.68.68 0 1 1-.68-.68.67.67 0 0 1 .68.68m11.2 0a.68.68 0 1 1-.68-.68.68.68 0 0 1 .68.68m11.06.33a.65.65 0 0 1-.58.35.67.67 0 0 1-.68-.68.68.68 0 0 1 .47-.65c.27.32.53.64.79.98M304 223.48a.68.68 0 1 1-.68-.67.68.68 0 0 1 .68.67"/><circle cx="314.47" cy="223.48" r=".68"/><path d="M326.3 223.48a.68.68 0 1 1-.67-.67.67.67 0 0 1 .67.67m11.16 0a.68.68 0 1 1-.68-.67.67.67 0 0 1 .68.67m11.16 0a.68.68 0 0 1-.68.68.68.68 0 1 1 .68-.68m11.16 0a.68.68 0 1 1-.68-.67.68.68 0 0 1 .68.67"/><circle cx="370.26" cy="223.48" r=".68"/><path d="M298.41 216.13a.68.68 0 1 1-.68-.68.68.68 0 0 1 .68.68m11.16 0a.68.68 0 1 1-.68-.68.69.69 0 0 1 .68.68m11.15 0a.68.68 0 1 1-.67-.68.68.68 0 0 1 .67.68m11.16 0a.68.68 0 1 1-.68-.68.68.68 0 0 1 .68.68m11.12 0a.68.68 0 1 1-.68-.68.68.68 0 0 1 .68.68m11.2 0a.68.68 0 1 1-.68-.68.69.69 0 0 1 .68.68m11.15 0a.68.68 0 1 1-.67-.68.68.68 0 0 1 .67.68m-72.52 21.69a.68.68 0 1 1-.68-.67.67.67 0 0 1 .68.67m11.17 0a.68.68 0 1 1-.68-.67.68.68 0 0 1 .68.67"/><circle cx="314.47" cy="237.82" r=".68"/><path d="M326.3 237.82a.68.68 0 1 1-.67-.67.67.67 0 0 1 .67.67m11.16 0a.68.68 0 1 1-.68-.67.67.67 0 0 1 .68.67m11.16 0a.68.68 0 0 1-.68.68.68.68 0 1 1 .68-.68m11.16 0a.68.68 0 1 1-.68-.67.68.68 0 0 1 .68.67"/><circle cx="370.26" cy="237.82" r=".68"/><path d="M298.41 230.47a.68.68 0 1 1-.68-.68.68.68 0 0 1 .68.68m11.16 0a.68.68 0 1 1-.68-.68.69.69 0 0 1 .68.68m11.15 0a.68.68 0 1 1-.67-.68.68.68 0 0 1 .67.68m11.16 0a.68.68 0 1 1-.68-.68.68.68 0 0 1 .68.68m11.12 0a.68.68 0 1 1-.68-.68.68.68 0 0 1 .68.68m11.2 0a.68.68 0 1 1-.68-.68.69.69 0 0 1 .68.68m11.15 0a.68.68 0 1 1-.67-.68.68.68 0 0 1 .67.68m11.16 0a.68.68 0 1 1-.67-.68.68.68 0 0 1 .67.68m-83.68 21.7a.68.68 0 1 1-.68-.68.67.67 0 0 1 .68.68m11.17 0a.68.68 0 1 1-.68-.68.68.68 0 0 1 .68.68"/><circle cx="314.47" cy="252.17" r=".68"/><path d="M326.3 252.17a.68.68 0 1 1-.67-.68.67.67 0 0 1 .67.68m11.16 0a.68.68 0 1 1-.68-.68.67.67 0 0 1 .68.68m11.16 0a.68.68 0 0 1-.68.67.68.68 0 0 1 0-1.35.68.68 0 0 1 .68.68m11.16 0a.68.68 0 1 1-.68-.68.68.68 0 0 1 .68.68"/><circle cx="370.26" cy="252.17" r=".68"/><path d="M298.41 244.81a.68.68 0 1 1-.68-.67.67.67 0 0 1 .68.67m11.16 0a.68.68 0 1 1-.68-.67.68.68 0 0 1 .68.67m11.15 0a.68.68 0 1 1-.67-.67.67.67 0 0 1 .67.67m11.16 0a.68.68 0 1 1-.68-.67.67.67 0 0 1 .68.67m11.12 0a.68.68 0 1 1-.68-.67.67.67 0 0 1 .68.67m11.2 0a.68.68 0 1 1-.68-.67.68.68 0 0 1 .68.67m11.15 0a.68.68 0 1 1-.67-.67.67.67 0 0 1 .67.67m11.16 0a.68.68 0 1 1-.67-.67.67.67 0 0 1 .67.67"/><circle cx="297.73" cy="259.15" r=".68"/><path d="M309.57 259.15a.68.68 0 1 1-.68-.67.68.68 0 0 1 .68.67m11.15 0a.68.68 0 1 1-.67-.67.67.67 0 0 1 .67.67m11.16 0a.68.68 0 1 1-.68-.67.67.67 0 0 1 .68.67"/><circle cx="342.36" cy="259.15" r=".68"/><circle cx="353.52" cy="259.15" r=".68"/><path d="M365.35 259.15a.68.68 0 1 1-.67-.67.67.67 0 0 1 .67.67m10.35-.66a2.6 2.6 0 0 1-.36.21.63.63 0 0 1 .36-.21"/></g><circle cx="315.9" cy="201.9" r="5.42" style="opacity:.1"/><circle cx="352.08" cy="201.9" r="5.42" style="opacity:.1"/><circle cx="315.9" cy="201.9" r="3.68" style="fill:#263238"/><circle cx="352.08" cy="201.9" r="3.68" style="fill:#263238"/><path d="M352.08 202.69a2.07 2.07 0 0 1-2.07-2.07 103 103 0 0 0-3.09-19.5c-2.08-7.75-5.93-17-12.44-17-12 0-16.51 30.31-16.51 36.5a2.07 2.07 0 1 1-4.14 0c0-.4 2.52-40.64 20.65-40.64 17.59 0 19.67 40.24 19.67 40.64a2.06 2.06 0 0 1-2.07 2.07" style="fill:#409e8d"/><path style="fill:#ebebeb" d="M268.44 308.78h23.36v23.36h-23.36z"/><path d="M286 329.45h-11.71c-3.15 0-2.65-2.52-1.89-5.17s1.88-6.66 4.69-6.66h6.06c2.82 0 3.94 4 4.7 6.66s1.26 5.17-1.85 5.17" style="fill:#455a64"/><g style="opacity:.1"><path d="M276.76 317.75a.12.12 0 0 1-.12.12.13.13 0 0 1-.12-.12.12.12 0 0 1 .12-.12.12.12 0 0 1 .12.12m1.99 0a.12.12 0 0 1-.24 0 .12.12 0 0 1 .24 0m1.99 0a.12.12 0 0 1-.24 0 .12.12 0 0 1 .24 0m1.99 0a.13.13 0 0 1-.12.12.12.12 0 0 1-.12-.12.12.12 0 0 1 .12-.12.12.12 0 0 1 .12.12m-7.96 2.55a.12.12 0 0 1-.12.12.12.12 0 0 1-.12-.12.13.13 0 0 1 .12-.12.12.12 0 0 1 .12.12m1.99 0a.12.12 0 0 1-.12.12.12.12 0 0 1-.12-.12.13.13 0 0 1 .12-.12.12.12 0 0 1 .12.12m1.99 0a.12.12 0 1 1-.24 0 .12.12 0 0 1 .24 0m1.99 0a.12.12 0 1 1-.24 0 .12.12 0 0 1 .24 0m1.99 0a.12.12 0 0 1-.12.12.12.12 0 0 1-.12-.12.12.12 0 0 1 .12-.12.13.13 0 0 1 .12.12m1.99 0a.12.12 0 0 1-.12.12.12.12 0 0 1-.12-.12.12.12 0 0 1 .12-.12.13.13 0 0 1 .12.12"/><circle cx="275.65" cy="318.99" r=".12"/><circle cx="277.64" cy="318.99" r=".12"/><circle cx="279.63" cy="318.99" r=".12"/><path d="M281.73 319a.12.12 0 0 1-.12.12.12.12 0 0 1-.12-.12.13.13 0 0 1 .12-.12.12.12 0 0 1 .12.12m1.99 0a.12.12 0 0 1-.12.12.12.12 0 0 1-.12-.12.13.13 0 0 1 .12-.12.12.12 0 0 1 .12.12m1.97.05a.09.09 0 0 1-.1.06.12.12 0 0 1-.12-.12.12.12 0 0 1 .08-.11 1 1 0 0 1 .14.17m-10.92 3.81a.12.12 0 0 1-.12.12.12.12 0 0 1 0-.24.12.12 0 0 1 .12.12m1.99 0a.12.12 0 0 1-.12.12.12.12 0 0 1 0-.24.12.12 0 0 1 .12.12m1.99 0a.12.12 0 1 1-.12-.12.12.12 0 0 1 .12.12m1.99 0a.12.12 0 1 1-.12-.12.12.12 0 0 1 .12.12m1.99 0a.12.12 0 0 1-.12.12.12.12 0 0 1 0-.24.12.12 0 0 1 .12.12m1.99 0a.12.12 0 0 1-.12.12.12.12 0 0 1 0-.24.12.12 0 0 1 .12.12m1.99 0a.12.12 0 0 1-.12.12.12.12 0 1 1 0-.24.12.12 0 0 1 .12.12"/><circle cx="273.66" cy="321.55" r=".12"/><circle cx="275.65" cy="321.55" r=".12"/><circle cx="277.64" cy="321.55" r=".12"/><circle cx="279.63" cy="321.55" r=".12"/><path d="M281.73 321.55a.12.12 0 0 1-.12.12.12.12 0 0 1 0-.24.12.12 0 0 1 .12.12m1.99 0a.12.12 0 0 1-.12.12.12.12 0 0 1 0-.24.12.12 0 0 1 .12.12m1.99 0a.12.12 0 1 1-.12-.12.12.12 0 0 1 .12.12m-12.92 3.87a.13.13 0 0 1-.12.12.12.12 0 0 1-.12-.12.12.12 0 0 1 .12-.13.13.13 0 0 1 .12.13m1.98 0a.12.12 0 0 1-.12.12.13.13 0 0 1-.12-.12.13.13 0 0 1 .12-.13.12.12 0 0 1 .12.13m1.99 0a.12.12 0 0 1-.12.12.13.13 0 0 1-.12-.12.13.13 0 0 1 .12-.13.12.12 0 0 1 .12.13m1.99 0a.12.12 0 0 1-.24 0 .12.12 0 1 1 .24 0m1.99 0a.12.12 0 0 1-.24 0 .12.12 0 1 1 .24 0m1.99 0a.13.13 0 0 1-.12.12.12.12 0 0 1-.12-.12.12.12 0 0 1 .12-.13.13.13 0 0 1 .12.13m1.99 0a.13.13 0 0 1-.12.12.12.12 0 0 1-.12-.12.12.12 0 0 1 .12-.13.13.13 0 0 1 .12.13m1.99 0a.13.13 0 0 1-.12.12.13.13 0 0 1-.13-.12.13.13 0 0 1 .13-.13.13.13 0 0 1 .12.13"/><circle cx="273.66" cy="324.1" r=".12"/><circle cx="275.65" cy="324.1" r=".12"/><circle cx="277.64" cy="324.1" r=".12"/><circle cx="279.63" cy="324.1" r=".12"/><path d="M281.73 324.1a.12.12 0 0 1-.12.13.13.13 0 0 1-.12-.13.13.13 0 0 1 .12-.12.12.12 0 0 1 .12.12m1.99 0a.12.12 0 0 1-.12.13.13.13 0 0 1-.12-.13.13.13 0 0 1 .12-.12.12.12 0 0 1 .12.12m1.99 0a.12.12 0 1 1-.24 0 .12.12 0 1 1 .24 0m1.99 0a.12.12 0 1 1-.24 0 .12.12 0 0 1 .24 0"/><circle cx="272.67" cy="327.97" r=".12"/><circle cx="274.65" cy="327.97" r=".12"/><path d="M276.76 328a.12.12 0 0 1-.12.12.12.12 0 0 1 0-.24.12.12 0 0 1 .12.12m1.99 0a.12.12 0 1 1-.12-.12.12.12 0 0 1 .12.12"/><circle cx="280.62" cy="327.97" r=".12"/><circle cx="282.61" cy="327.97" r=".12"/><circle cx="284.6" cy="327.97" r=".12"/><circle cx="286.59" cy="327.97" r=".12"/><circle cx="273.66" cy="326.66" r=".12"/><circle cx="275.65" cy="326.66" r=".12"/><circle cx="277.64" cy="326.66" r=".12"/><circle cx="279.63" cy="326.66" r=".12"/><path d="M281.73 326.66a.12.12 0 0 1-.12.12.12.12 0 0 1 0-.24.12.12 0 0 1 .12.12m1.99 0a.12.12 0 0 1-.12.12.12.12 0 0 1 0-.24.12.12 0 0 1 .12.12m1.99 0a.12.12 0 1 1-.12-.12.12.12 0 0 1 .12.12m1.99 0a.12.12 0 1 1-.12-.12.12.12 0 0 1 .12.12"/><circle cx="273.66" cy="329.22" r=".12"/><circle cx="275.65" cy="329.22" r=".12"/><circle cx="277.64" cy="329.22" r=".12"/><circle cx="279.63" cy="329.22" r=".12"/><path d="M281.73 329.22a.12.12 0 0 1-.12.12.13.13 0 0 1-.12-.12.12.12 0 0 1 .12-.12.12.12 0 0 1 .12.12m1.99 0a.12.12 0 0 1-.12.12.13.13 0 0 1-.12-.12.12.12 0 0 1 .12-.12.12.12 0 0 1 .12.12m1.99 0a.12.12 0 1 1-.24 0 .12.12 0 1 1 .24 0m1.85-.12h-.07a.15.15 0 0 1 .07 0"/></g><path d="M277.87 319a1 1 0 1 1-1-1 1 1 0 0 1 1 1m6.44 0a1 1 0 1 1-1-1 1 1 0 0 1 1 1" style="opacity:.1"/><path d="M277.55 319a.66.66 0 0 1-.65.66.67.67 0 0 1-.66-.66.66.66 0 0 1 .66-.65.65.65 0 0 1 .65.65" style="fill:#263238"/><circle cx="283.35" cy="319.01" r=".65" style="fill:#263238"/><path d="M283.35 319.15a.36.36 0 0 1-.37-.36 19 19 0 0 0-.55-3.48c-.37-1.38-1.06-3-2.22-3-2.14 0-2.94 5.4-2.94 6.51a.37.37 0 0 1-.37.36.36.36 0 0 1-.37-.36c0-.08.45-7.25 3.68-7.25s3.51 7.17 3.51 7.25a.37.37 0 0 1-.37.33" style="fill:#455a64"/><path style="fill:#ebebeb" d="M297.31 308.78h23.36v23.36h-23.36z"/><path d="M321.17 332.65h-24.36v-24.37h24.36Zm-23.36-1h22.36v-22.37h-22.36Z" style="fill:#263238"/><path d="M314.82 329.45h-11.66c-3.16 0-2.65-2.52-1.89-5.17s1.87-6.66 4.69-6.66H312c2.82 0 3.94 4 4.69 6.66s1.31 5.17-1.87 5.17" style="fill:#409e8d"/><g style="opacity:.1"><path d="M305.63 317.75a.12.12 0 0 1-.24 0 .12.12 0 0 1 .24 0m1.99 0a.12.12 0 0 1-.24 0 .12.12 0 0 1 .24 0m1.99 0a.13.13 0 0 1-.12.12.12.12 0 0 1-.12-.12.12.12 0 0 1 .12-.12.12.12 0 0 1 .12.12m1.99 0a.13.13 0 0 1-.12.12.13.13 0 0 1-.13-.12.12.12 0 0 1 .13-.12.12.12 0 0 1 .12.12m-7.96 2.55a.12.12 0 0 1-.24 0 .12.12 0 1 1 .24 0m1.99 0a.12.12 0 0 1-.24 0 .12.12 0 1 1 .24 0m1.99 0a.12.12 0 0 1-.24 0 .12.12 0 1 1 .24 0m1.99 0a.12.12 0 0 1-.12.12.12.12 0 0 1-.12-.12.12.12 0 0 1 .12-.12.13.13 0 0 1 .12.12m1.99 0a.12.12 0 0 1-.12.12.12.12 0 0 1-.13-.12.13.13 0 0 1 .13-.12.13.13 0 0 1 .12.12m1.98 0a.12.12 0 0 1-.12.12.12.12 0 0 1-.12-.12.13.13 0 0 1 .12-.12.12.12 0 0 1 .12.12m-8.94-1.3a.12.12 0 0 1-.12.12.12.12 0 0 1-.12-.12.12.12 0 0 1 .12-.12.13.13 0 0 1 .12.12"/><circle cx="306.5" cy="318.99" r=".12"/><circle cx="308.49" cy="318.99" r=".12"/><circle cx="310.48" cy="318.99" r=".12"/><circle cx="312.47" cy="318.99" r=".12"/><path d="M314.56 319.05a.11.11 0 0 1-.1.06.12.12 0 0 1-.12-.12.11.11 0 0 1 .08-.11 1 1 0 0 1 .14.17m-10.92 3.81a.12.12 0 1 1-.12-.12.12.12 0 0 1 .12.12m1.99 0a.12.12 0 1 1-.12-.12.12.12 0 0 1 .12.12m1.99 0a.12.12 0 1 1-.12-.12.12.12 0 0 1 .12.12m1.99 0a.12.12 0 0 1-.12.12.12.12 0 0 1 0-.24.12.12 0 0 1 .12.12m1.99 0a.12.12 0 0 1-.12.12.12.12 0 1 1 0-.24.12.12 0 0 1 .12.12m1.98 0a.12.12 0 0 1-.12.12.12.12 0 1 1 0-.24.12.12 0 0 1 .12.12m1.99 0a.12.12 0 0 1-.12.12.12.12 0 1 1 0-.24.12.12 0 0 1 .12.12m-12.92-1.31a.12.12 0 0 1-.12.12.12.12 0 1 1 0-.24.12.12 0 0 1 .12.12m1.99 0a.12.12 0 0 1-.12.12.12.12 0 0 1 0-.24.12.12 0 0 1 .12.12"/><circle cx="306.5" cy="321.55" r=".12"/><circle cx="308.49" cy="321.55" r=".12"/><circle cx="310.48" cy="321.55" r=".12"/><circle cx="312.47" cy="321.55" r=".12"/><path d="M314.58 321.55a.12.12 0 0 1-.12.12.12.12 0 0 1 0-.24.12.12 0 0 1 .12.12m-12.93 3.87a.12.12 0 0 1-.12.12.13.13 0 0 1-.12-.12.13.13 0 0 1 .12-.13.12.12 0 0 1 .12.13m1.99 0a.12.12 0 1 1-.24 0 .12.12 0 1 1 .24 0m1.99 0a.12.12 0 1 1-.24 0 .12.12 0 1 1 .24 0m1.99 0a.12.12 0 1 1-.24 0 .12.12 0 1 1 .24 0m1.99 0a.13.13 0 0 1-.12.12.12.12 0 0 1-.12-.12.12.12 0 0 1 .12-.13.13.13 0 0 1 .12.13m1.99 0a.13.13 0 0 1-.12.12.13.13 0 0 1-.13-.12.13.13 0 0 1 .13-.13.13.13 0 0 1 .12.13m1.98 0a.12.12 0 0 1-.12.12.13.13 0 0 1-.12-.12.13.13 0 0 1 .12-.13.12.12 0 0 1 .12.13m1.99 0a.12.12 0 0 1-.12.12.13.13 0 0 1-.12-.12.13.13 0 0 1 .12-.13.12.12 0 0 1 .12.13m-12.92-1.32a.13.13 0 0 1-.12.13.12.12 0 0 1-.12-.13.12.12 0 0 1 .12-.12.13.13 0 0 1 .12.12m1.99 0a.13.13 0 0 1-.12.13.12.12 0 0 1-.12-.13.12.12 0 0 1 .12-.12.13.13 0 0 1 .12.12"/><circle cx="306.5" cy="324.1" r=".12"/><circle cx="308.49" cy="324.1" r=".12"/><circle cx="310.48" cy="324.1" r=".12"/><circle cx="312.47" cy="324.1" r=".12"/><path d="M314.58 324.1a.13.13 0 0 1-.12.13.12.12 0 0 1-.12-.13.12.12 0 0 1 .12-.12.13.13 0 0 1 .12.12"/><circle cx="316.45" cy="324.1" r=".12"/><circle cx="301.53" cy="327.97" r=".12"/><circle cx="303.52" cy="327.97" r=".12"/><circle cx="305.51" cy="327.97" r=".12"/><path d="M307.62 328a.12.12 0 1 1-.12-.12.12.12 0 0 1 .12.12m1.99 0a.12.12 0 0 1-.12.12.12.12 0 0 1 0-.24.12.12 0 0 1 .12.12m1.99 0a.12.12 0 0 1-.12.12.12.12 0 1 1 0-.24.12.12 0 0 1 .12.12m1.98 0a.12.12 0 0 1-.12.12.12.12 0 0 1 0-.24.12.12 0 0 1 .12.12m1.99 0a.12.12 0 0 1-.12.12.12.12 0 0 1 0-.24.12.12 0 0 1 .12.12m-12.92-1.34a.12.12 0 0 1-.12.12.12.12 0 1 1 0-.24.12.12 0 0 1 .12.12m1.99 0a.12.12 0 0 1-.12.12.12.12 0 0 1 0-.24.12.12 0 0 1 .12.12"/><circle cx="306.5" cy="326.66" r=".12"/><circle cx="308.49" cy="326.66" r=".12"/><circle cx="310.48" cy="326.66" r=".12"/><circle cx="312.47" cy="326.66" r=".12"/><path d="M314.58 326.66a.12.12 0 0 1-.12.12.12.12 0 0 1 0-.24.12.12 0 0 1 .12.12"/><circle cx="316.45" cy="326.66" r=".12"/><path d="M302.65 329.22a.13.13 0 0 1-.12.12.12.12 0 0 1-.12-.12.12.12 0 0 1 .12-.12.12.12 0 0 1 .12.12m1.99 0a.13.13 0 0 1-.12.12.12.12 0 0 1-.12-.12.12.12 0 0 1 .12-.12.12.12 0 0 1 .12.12"/><circle cx="306.5" cy="329.22" r=".12"/><circle cx="308.49" cy="329.22" r=".12"/><circle cx="310.48" cy="329.22" r=".12"/><circle cx="312.47" cy="329.22" r=".12"/><path d="M314.58 329.22a.13.13 0 0 1-.12.12.12.12 0 0 1-.12-.12.12.12 0 0 1 .12-.12.12.12 0 0 1 .12.12m1.84-.12h-.06Z"/></g><path d="M306.73 319a1 1 0 1 1-1-1 1 1 0 0 1 1 1m6.45 0a1 1 0 1 1-1-1 1 1 0 0 1 1 1" style="opacity:.1"/><circle cx="305.77" cy="319.01" r=".65" style="fill:#263238"/><circle cx="312.21" cy="319.01" r=".65" style="fill:#263238"/><path d="M312.21 319.15a.37.37 0 0 1-.37-.36 18 18 0 0 0-.55-3.48c-.37-1.38-1.05-3-2.21-3-2.14 0-2.95 5.4-2.95 6.51a.37.37 0 0 1-.73 0c0-.08.44-7.25 3.68-7.25s3.5 7.17 3.5 7.25a.36.36 0 0 1-.37.33" style="fill:#409e8d"/><path style="fill:#ebebeb" d="M326.17 308.78h23.36v23.36h-23.36z"/><path d="M343.69 329.45H332c-3.15 0-2.64-2.52-1.89-5.17s1.88-6.66 4.7-6.66h6.06c2.81 0 3.93 4 4.69 6.66s1.28 5.17-1.87 5.17" style="fill:#a6a6a6"/><g style="opacity:.1"><path d="M334.5 317.75a.13.13 0 0 1-.12.12.12.12 0 0 1-.12-.12.12.12 0 0 1 .12-.12.12.12 0 0 1 .12.12m1.99 0a.13.13 0 0 1-.12.12.12.12 0 0 1-.12-.12.12.12 0 0 1 .12-.12.12.12 0 0 1 .12.12m1.98 0a.12.12 0 0 1-.12.12.13.13 0 0 1-.12-.12.12.12 0 0 1 .12-.12.12.12 0 0 1 .12.12m1.99 0a.12.12 0 0 1-.12.12.13.13 0 0 1-.12-.12.12.12 0 0 1 .12-.12.12.12 0 0 1 .12.12m-7.95 2.55a.12.12 0 1 1-.24 0 .12.12 0 0 1 .24 0m1.99 0a.12.12 0 0 1-.12.12.12.12 0 0 1-.12-.12.12.12 0 0 1 .12-.12.13.13 0 0 1 .12.12m1.99 0a.12.12 0 0 1-.12.12.12.12 0 0 1-.12-.12.12.12 0 0 1 .12-.12.13.13 0 0 1 .12.12m1.98 0a.12.12 0 0 1-.12.12.12.12 0 0 1-.12-.12.13.13 0 0 1 .12-.12.12.12 0 0 1 .12.12m1.99 0a.12.12 0 0 1-.12.12.12.12 0 0 1-.12-.12.13.13 0 0 1 .12-.12.12.12 0 0 1 .12.12m1.99 0a.12.12 0 0 1-.24 0 .12.12 0 0 1 .24 0m-8.95-1.3a.12.12 0 0 1-.12.12.12.12 0 0 1-.12-.12.13.13 0 0 1 .12-.12.12.12 0 0 1 .12.12m1.99 0a.12.12 0 0 1-.12.12.12.12 0 0 1-.12-.12.13.13 0 0 1 .12-.12.12.12 0 0 1 .12.12m1.99 0a.12.12 0 0 1-.24 0 .12.12 0 0 1 .24 0m1.99 0a.12.12 0 0 1-.24 0 .12.12 0 0 1 .24 0m1.99 0a.12.12 0 0 1-.12.12.12.12 0 0 1-.12-.12.12.12 0 0 1 .12-.12.13.13 0 0 1 .12.12m1.97.05a.11.11 0 0 1-.1.06.12.12 0 0 1-.12-.12.11.11 0 0 1 .08-.11c.05.05.09.12.14.17m-10.92 3.81a.12.12 0 1 1-.12-.12.12.12 0 0 1 .12.12m1.99 0a.12.12 0 0 1-.12.12.12.12 0 0 1 0-.24.12.12 0 0 1 .12.12m1.99 0a.12.12 0 0 1-.12.12.12.12 0 0 1 0-.24.12.12 0 0 1 .12.12m1.98 0a.12.12 0 0 1-.12.12.12.12 0 0 1 0-.24.12.12 0 0 1 .12.12m1.99 0a.12.12 0 0 1-.12.12.12.12 0 1 1 0-.24.12.12 0 0 1 .12.12m1.99 0a.12.12 0 1 1-.12-.12.12.12 0 0 1 .12.12m1.99 0a.12.12 0 1 1-.12-.12.12.12 0 0 1 .12.12"/><circle cx="331.39" cy="321.55" r=".12"/><path d="M333.5 321.55a.12.12 0 0 1-.12.12.12.12 0 0 1 0-.24.12.12 0 0 1 .12.12m1.99 0a.12.12 0 0 1-.12.12.12.12 0 0 1 0-.24.12.12 0 0 1 .12.12m1.99 0a.12.12 0 1 1-.12-.12.12.12 0 0 1 .12.12m1.99 0a.12.12 0 1 1-.12-.12.12.12 0 0 1 .12.12m1.99 0a.12.12 0 0 1-.12.12.12.12 0 1 1 0-.24.12.12 0 0 1 .12.12m1.99 0a.12.12 0 0 1-.12.12.12.12 0 1 1 0-.24.12.12 0 0 1 .12.12m-12.93 3.87a.12.12 0 0 1-.24 0 .12.12 0 1 1 .24 0m1.99 0a.12.12 0 0 1-.24 0 .12.12 0 1 1 .24 0m1.99 0a.13.13 0 0 1-.12.12.12.12 0 0 1-.12-.12.12.12 0 0 1 .12-.13.13.13 0 0 1 .12.13m1.99 0a.13.13 0 0 1-.12.12.12.12 0 0 1-.12-.12.12.12 0 0 1 .12-.13.13.13 0 0 1 .12.13m1.98 0a.12.12 0 0 1-.12.12.13.13 0 0 1-.12-.12.13.13 0 0 1 .12-.13.12.12 0 0 1 .12.13m1.99 0a.12.12 0 0 1-.12.12.13.13 0 0 1-.12-.12.13.13 0 0 1 .12-.13.12.12 0 0 1 .12.13m1.99 0a.12.12 0 0 1-.24 0 .12.12 0 1 1 .24 0m1.99 0a.12.12 0 0 1-.24 0 .12.12 0 1 1 .24 0"/><circle cx="331.39" cy="324.1" r=".12"/><path d="M333.5 324.1a.12.12 0 0 1-.12.13.13.13 0 0 1-.12-.13.13.13 0 0 1 .12-.12.12.12 0 0 1 .12.12m1.99 0a.12.12 0 0 1-.12.13.13.13 0 0 1-.12-.13.13.13 0 0 1 .12-.12.12.12 0 0 1 .12.12m1.99 0a.12.12 0 1 1-.24 0 .12.12 0 0 1 .24 0m1.99 0a.12.12 0 1 1-.24 0 .12.12 0 0 1 .24 0m1.99 0a.13.13 0 0 1-.12.13.12.12 0 0 1-.12-.13.12.12 0 0 1 .12-.12.13.13 0 0 1 .12.12m1.99 0a.13.13 0 0 1-.12.13.13.13 0 0 1-.13-.13.13.13 0 0 1 .13-.12.13.13 0 0 1 .12.12m1.98 0a.12.12 0 0 1-.12.13.13.13 0 0 1-.12-.13.13.13 0 0 1 .12-.12.12.12 0 0 1 .12.12m-14.91 3.9a.12.12 0 1 1-.12-.12.12.12 0 0 1 .12.12"/><circle cx="332.39" cy="327.97" r=".12"/><circle cx="334.38" cy="327.97" r=".12"/><circle cx="336.37" cy="327.97" r=".12"/><circle cx="338.35" cy="327.97" r=".12"/><path d="M340.46 328a.12.12 0 0 1-.12.12.12.12 0 0 1 0-.24.12.12 0 0 1 .12.12"/><circle cx="342.33" cy="327.97" r=".12"/><circle cx="344.32" cy="327.97" r=".12"/><circle cx="331.39" cy="326.66" r=".12"/><path d="M333.5 326.66a.12.12 0 0 1-.12.12.12.12 0 0 1 0-.24.12.12 0 0 1 .12.12m1.99 0a.12.12 0 0 1-.12.12.12.12 0 0 1 0-.24.12.12 0 0 1 .12.12m1.99 0a.12.12 0 1 1-.12-.12.12.12 0 0 1 .12.12m1.99 0a.12.12 0 1 1-.12-.12.12.12 0 0 1 .12.12m1.99 0a.12.12 0 0 1-.12.12.12.12 0 0 1 0-.24.12.12 0 0 1 .12.12m1.99 0a.12.12 0 0 1-.12.12.12.12 0 1 1 0-.24.12.12 0 0 1 .12.12m1.98 0a.12.12 0 0 1-.12.12.12.12 0 0 1 0-.24.12.12 0 0 1 .12.12"/><circle cx="331.39" cy="329.22" r=".12"/><path d="M333.5 329.22a.12.12 0 0 1-.12.12.13.13 0 0 1-.12-.12.12.12 0 0 1 .12-.12.12.12 0 0 1 .12.12m1.99 0a.12.12 0 0 1-.12.12.13.13 0 0 1-.12-.12.12.12 0 0 1 .12-.12.12.12 0 0 1 .12.12m1.99 0a.12.12 0 1 1-.24 0 .12.12 0 0 1 .24 0m1.99 0a.12.12 0 1 1-.24 0 .12.12 0 0 1 .24 0m1.99 0a.13.13 0 0 1-.12.12.12.12 0 0 1-.12-.12.12.12 0 0 1 .12-.12.12.12 0 0 1 .12.12m1.99 0a.13.13 0 0 1-.12.12.13.13 0 0 1-.13-.12.12.12 0 0 1 .13-.12.12.12 0 0 1 .12.12m1.84-.12h-.06a.1.1 0 0 1 .06 0"/></g><path d="M335.6 319a1 1 0 1 1-1-1 1 1 0 0 1 1 1m6.45 0a1 1 0 1 1-1-1 1 1 0 0 1 1 1" style="opacity:.1"/><circle cx="334.63" cy="319.01" r=".65" style="fill:#263238"/><circle cx="341.08" cy="319.01" r=".65" style="fill:#263238"/><path d="M341.08 319.15a.37.37 0 0 1-.37-.36 18 18 0 0 0-.55-3.48c-.37-1.38-1.06-3-2.22-3-2.14 0-2.94 5.4-2.94 6.51a.36.36 0 0 1-.37.36.37.37 0 0 1-.37-.36c0-.08.45-7.25 3.68-7.25s3.51 7.17 3.51 7.25a.37.37 0 0 1-.37.33" style="fill:#a6a6a6"/><path d="m70.29 450.51 146.77.63c35.68-28 39.36-69.51 13.91-94.67-15.4-15.21-35-12.14-53.59-14.56a54.9 54.9 0 0 1-18.89-5.55c-19.18-10.11-30-34-46.12-54.06-2-2.51-4.11-5-6.32-7.32-13.27-14.17-39.67-14.63-53.49 5.29-35.14 50.6-19.06 125.92 17.73 170.24" style="fill:#c7c7c7"/><path d="M67 334.72c3.85 60.22 73.39 82.7 116.82 64.66 37.77-15.69 25.41-51.49-6.47-57.47a54.9 54.9 0 0 1-18.89-5.55c-19.18-10.11-30-34-46.12-54.06-24.06-12.49-48.13 8.33-45.34 52.42" style="fill:#dbdbdb"/><path d="M204.86 459.63c-2.27-.83-53.56-41.83-54.53-44.63-.38-1.06 5.16-8.88 12.11-18.13 1.51-2 3.07-4.06 4.67-6.14 10.37-13.5 21.68-27.59 21.68-27.59l34.39 27.32-22.62 26.84-5 5.9s12.62 24.48 13.35 27.67-1.78 9.59-4.05 8.76" style="fill:#f7a9a0"/><path d="M204.86 459.63c-2.27-.83-53.56-41.83-54.53-44.63-.45-1.29 7.81-12.56 16.78-24.27l33.45 26.57-5 5.9s12.62 24.48 13.35 27.67-1.78 9.59-4.05 8.76" style="fill:#fff"/><path d="M204.86 459.63c-2.27-.83-53.56-41.83-54.53-44.63-.38-1.06 5.16-8.88 12.11-18.13l33.15 26.33s12.62 24.48 13.35 27.67-1.81 9.59-4.08 8.76" style="fill:#409e8d"/><path d="M205.77 457c-8.43-7.08-43.1-34.86-52-41.22-.08 0-.11 0-.05.06 8.2 7.2 43.1 34.69 51.9 41.3.22.13.32 0 .15-.14m1.35-10.62a8.87 8.87 0 0 0-6.82-2 8.6 8.6 0 0 0-5.59 3.06c0 .05 0 .13.1.08a10.22 10.22 0 0 1 12.22-1 .07.07 0 0 0 .09-.14m-8.88-19.66c-3.4-2.8-8.36-4.77-12.75-3.67-.17.05-.1.29 0 .32a61 61 0 0 1 12.51 3.82.27.27 0 0 0 .24-.47m1.83 3.16c-3.4-2.8-8.36-4.77-12.75-3.67-.17.05-.11.29 0 .32a61 61 0 0 1 12.43 3.82.28.28 0 0 0 .32-.47" style="fill:#263238"/><path d="M201.9 433c-3.4-2.8-8.36-4.77-12.75-3.67-.17.05-.11.29 0 .32a61 61 0 0 1 12.43 3.82.28.28 0 0 0 .32-.47m1.83 3.2c-3.4-2.8-8.36-4.77-12.75-3.67-.17 0-.11.29 0 .31a61.6 61.6 0 0 1 12.43 3.83.28.28 0 0 0 .32-.47" style="fill:#263238"/><path d="M162.51 409.36c-3.87-3.08-8.65 2.93-4.78 6s8.66-2.92 4.78-6" style="fill:#fff"/><path d="M209.3 420.51c-.58-2.84-3.91-3.18-6.18-2.54a23.14 23.14 0 0 0-10.16 6.3.12.12 0 0 0 0 .19.53.53 0 0 0 .4.77c3.8.26 7.84 1 11.61.11 2.23-.54 4.89-2.15 4.33-4.83m-10.06 3.94c-1.88-.08-3.74-.26-5.62-.27a67 67 0 0 1 6-3.55 26 26 0 0 1 3.11-1.32c1.66-.54 7.34-.72 4.69 3.3-1.42 2.22-5.95 1.94-8.18 1.84" style="fill:#263238"/><path d="M183.39 418.72c2.63 2.85 6.4 4.47 9.71 6.36a.53.53 0 0 0 .76-.42c.07 0 .14 0 .13-.13a23.16 23.16 0 0 0-5-10.89c-1.53-1.8-4.48-3.36-6.55-1.33s-.59 4.74.95 6.41m-.51-3.62c0-4.82 4.65-1.51 5.73-.14a25 25 0 0 1 1.85 2.82 69 69 0 0 1 3 6.3c-1.57-1-3.21-1.92-4.82-2.9-1.88-1.18-5.78-3.43-5.76-6.08" style="fill:#263238"/><path d="M257.92 337.92c-2.35 17.87-46.39 69.45-51.48 75.37l-1.16 1.34-36.42-28 .42-.54 32.07-42-95.68-.56L142 315.29s2.95 1.7 9.07.81c21.12-3.09 68.73-9.94 80-9.49 14.43.6 29.01 14.91 26.85 31.31" style="fill:#37474f"/><path d="M212.87 328.49a43 43 0 0 0-3.31 4.24c-1.13 1.48-2.28 3-3.42 4.44v.05c.2-.44.4-.87.61-1.31.71-1.48 1.28-3 2.13-4.42.05-.09-.08-.17-.13-.08-.87 1.4-1.88 2.74-2.62 4.22-.35.69-.68 1.4-1 2.11-.17.39-.35.79-.5 1.19-.07.18-.15.37-.21.57-.5.69-1 1.38-1.49 2.09-1.08 1.56-2 3.22-3.13 4.77-.06.08.08.16.14.08 1.1-1.46 2.34-2.82 3.47-4.27s2.23-3 3.3-4.52 2.07-3 3.12-4.48a45 45 0 0 0 3.15-4.61.06.06 0 0 0-.11-.07M111 238.73c-7.59 6-15.1 45-18 49.34-2.07 3.05-4.67 6.1-4.55 7.82s7.4 10.18 21.17 12.84 27.34-3.91 28.72-5.64-2.25-7.67-2.11-13 4.9-34.59 2-43.31c-3.35-9.89-18.52-14.89-27.23-8.05" style="fill:#263238"/><path d="M139.29 301.43a25.56 25.56 0 0 1-2.07-11.05c.08-4.27.62-8.54 1.09-12.78q.75-6.71 1.49-13.42c.43-3.95 1-7.94.26-11.88a22 22 0 0 0-4.87-10.36s-.11 0-.07.05a23.6 23.6 0 0 1 4.53 10.35c.71 4.22 0 8.53-.45 12.76-.5 4.39-1 8.77-1.47 13.16-.44 4-.94 8.1-1 12.16 0 3.74.33 7.9 2.32 11.12.09.12.3.02.24-.11m-27.08-62.96c-3.52 1.91-5.24 5.69-6.65 9.32-1.9 4.93-3.65 9.93-5.29 15-1.7 5.19-3.1 10.47-4.77 15.67a54.8 54.8 0 0 1-7.16 14.18c-.07.1 0 .22.14.13 6.55-7.67 8.57-18 11.57-27.42q2.49-7.8 5.25-15.5c1.49-4.16 3-8.87 7-11.26.02-.07-.04-.15-.09-.12" style="fill:#263238"/><path d="M115.42 237.05c-7.36 2.88-10.27 11.12-12.64 18.15-2.82 8.35-4.85 16.95-7.34 25.4-1.39 4.77-2.65 9.95-5.75 13.91-.09.12.08.27.18.16 2.38-2.84 3.6-6.37 4.73-9.86 1.35-4.19 2.53-8.43 3.69-12.67 2.32-8.4 4.44-17.07 8.06-25 1.91-4.18 4.76-8.26 9.1-10 .05-.03.02-.14-.03-.09" style="fill:#263238"/><path d="M117.64 289.9c6.49 9.31 28.72 33.47 44.09 37 8.48 1.93 49.41 7.65 55 2.55 6.57-6 3.52-28.52-1.7-28.72-16-.63-45.45 2.49-52.82.87-3.33-.74-21-12.14-39.88-21.26-7.11-3.46-8.87 3.55-4.69 9.56" style="fill:#f7a9a0"/><path d="m206.37 299.47-2.74 33.74s-37.14-.59-48.35-6.89-29.46-22.38-36.44-33.56-4.65-17.27 9-10.39 32 17.9 34.44 18.48 44.09-1.38 44.09-1.38" style="fill:#409e8d"/><path d="M200.4 301.82c0-.09-.14-.13-.16 0-.45 2.32-.65 4.7-.91 7s-.5 4.86-.72 7.29c-.44 4.85-1 9.73-1.1 14.59 0 .21.28.21.31 0 .73-4.77 1.11-9.63 1.57-14.44.22-2.39.44-4.77.61-7.16s.43-4.85.4-7.28" style="fill:#263238"/><path d="M84.39 351.55c2 .65 59.94-16.1 59.94-16.1l-6.84-20.11s3.38-6.46 1.81-12.68c-2.09-8.31-17.47-22-18.68-22.77-4.85-3.22-9.4-3.16-13.42-1-16.74 8.87-22.81 72.66-22.81 72.66" style="fill:#409e8d"/><path d="M128.57 287.13c1.49 1.73 3.09 3.38 4.63 5.08-.72-1.26-1.43-2.54-2.2-3.77 0 0 0-.06 0 0a28.4 28.4 0 0 1 2.93 4.67 38 38 0 0 1 3.2 4.08 18.3 18.3 0 0 1 2.63 5.6A15.2 15.2 0 0 1 140 309a39.6 39.6 0 0 1-1.95 6.93c-.11.3-.53.11-.45-.18 1.09-3.93 2.32-8.07 1.45-12.17s-3.4-7.48-5.86-10.7a59 59 0 0 0-4.72-5.62c-.1-.11.03-.21.1-.13" style="fill:#263238"/><path d="M110.82 280c.23 1.05 5.13 7.92 9.92 7.76 1.55-.05 1.64-8.57 1.64-8.57l.15-.63 2.1-8.79-11.74-7.69s-2.16 17.47-2.07 17.92" style="fill:#f7a9a0"/><path d="m124.63 269.76-2.1 8.79A18.16 18.16 0 0 1 112.16 268c.36-3 .67-5.55.71-5.92a.2.2 0 0 0 0-.05l1.49.9Z" style="fill:#263238"/><path d="M138.35 259c-1 15.83-10.58 17-14 16.8-3.09-.19-13.62-1.26-14.27-17.11s7-20.38 14.14-20.3 15.12 4.75 14.13 20.61" style="fill:#f7a9a0"/><path d="M136 257.44c-.36-.1-.68-.24-1-.37a1.77 1.77 0 0 1-1-.57.58.58 0 0 1 .1-.69 1.42 1.42 0 0 1 1.41-.14 2.07 2.07 0 0 1 1.18.89.61.61 0 0 1-.69.88m-10.37-1.35a10 10 0 0 0 1.09-.08 1.76 1.76 0 0 0 1.1-.3.55.55 0 0 0 .09-.68 1.39 1.39 0 0 0-1.32-.51 2.12 2.12 0 0 0-1.38.55.61.61 0 0 0 .42 1.02m1.92 2.65s-.09 0-.1.09c-.08 1.08-.36 2.3-1.37 2.55v.06c1.21-.04 1.56-1.66 1.47-2.7" style="fill:#263238"/><path d="M126.71 257.52c-1.71-.32-2.23 3.12-.64 3.42s2.08-3.15.64-3.42" style="fill:#263238"/><path d="M126 257.6c-.33.15-.68.45-1.05.43s-.69-.43-.91-.82h-.07c-.1.66 0 1.38.74 1.58s1.19-.33 1.45-1c.06-.05-.02-.25-.16-.19m7.45 1.76s.07.06.06.11c-.2 1.06-.25 2.31.66 2.81v.06c-1.17-.34-1.08-2.01-.72-2.98" style="fill:#263238"/><path d="M134.57 258.4c1.74.14 1.33 3.6-.27 3.47s-1.18-3.59.27-3.47" style="fill:#263238"/><path d="M135.27 258.71c.25.22.48.58.81.64s.7-.27 1-.6h.05c-.06.67-.36 1.33-1 1.38s-.95-.57-1-1.25c-.08-.08.04-.26.14-.17m-9.21 9.29c.2.3.39.69.77.79a2.7 2.7 0 0 0 1.19 0s.06 0 0 .06a1.45 1.45 0 0 1-1.46.32 1.16 1.16 0 0 1-.65-1.1.06.06 0 0 1 .15-.07m5-3.25s0 1.62-.1 2.38c0 .07-.2.08-.46.06a3.61 3.61 0 0 1-3.29-1.81.08.08 0 0 1 .12-.09 5.5 5.5 0 0 0 3.15 1.38c.08-.2-.1-2.78 0-2.78a7 7 0 0 1 1.66.63c.1-3.39-.35-6.77-.21-10.15a.11.11 0 0 1 .21 0 55 55 0 0 1 .68 10.92c0 .4-1.48-.37-1.76-.54" style="fill:#263238"/><path d="M110 259.51a6.57 6.57 0 0 0 4.71-4.45 17 17 0 0 0 8-4c-.18.3-1.42 2.45-2.09 3.53 10.26.27 14.93-6.63 14.93-6.63a17.5 17.5 0 0 1 3 7.18s1.37-6-.88-10.76a10 10 0 0 0-8.14-5.95 14.27 14.27 0 0 0-14.52 1.28c-8.01 5.58-5.01 19.8-5.01 19.8" style="fill:#263238"/><path d="M128.42 254.53a18.8 18.8 0 0 1-5.46.78 15.84 15.84 0 0 0 8.18-2.82 15.4 15.4 0 0 0 2.76-2.52 10.4 10.4 0 0 0 2.12-3.48.08.08 0 1 1 .15 0 12 12 0 0 1-1.62 3.72 11 11 0 0 1-2.89 2.8 12.6 12.6 0 0 1-3.24 1.51" style="fill:#263238"/><path d="M112.52 260s-2.68-5.41-5.09-4.53-.9 8.37 1.57 9.74a2.67 2.67 0 0 0 3.76-.89Z" style="fill:#f7a9a0"/><path d="M107.92 257.64s-.06.05 0 .07c1.72 1 2.43 2.85 2.84 4.71a1.48 1.48 0 0 0-2.13-.73.06.06 0 0 0 0 .11 1.63 1.63 0 0 1 1.71.84 7.3 7.3 0 0 1 .64 1.58c.06.17.37.13.34-.07.39-2.37-.93-5.9-3.4-6.51" style="fill:#263238"/><path d="M98.46 293c-4.65 26.41-.15 46.19 4.33 48.64 12.08 6.6 41.08-6.78 49.27-9.44 3.3-1.07-11.77-26.36-15.15-24.8-7.95 3.67-19.09 9.91-19.54 9.86-.9-.09-1.94-6.83-6.56-26.48-3.73-15.86-10.44-8.55-12.35 2.22" style="fill:#f7a9a0"/><path d="M178.42 294.91c.83 3.32-7.52 4.67-7.52 4.67a6.28 6.28 0 0 1 3.31 2.73c1.21 2.3-1.85 5.21-1.85 5.21a7.8 7.8 0 0 1 3 3.44c.94 2.31-1.74 5.69-1.74 5.69a6.84 6.84 0 0 1 .76 4.71c-1 4.26-7.55 5.93-11.39 7.77-4.11 2-10.91 2.69-14 4.08l-13.37-24.49S148.57 295 156 292.92c4-1.17 21.16-3.08 22.42 1.99" style="fill:#f7a9a0"/><path d="M170.81 299.5c-4.65-.2-9.34.71-13.86 1.64-.1 0-.06.17 0 .15 4.48-1 9.33-.77 13.83-1.57a.11.11 0 0 0 .03-.22m1.34 7.71a12.4 12.4 0 0 0-3.12.58c-1.08.28-2.17.58-3.25.9-2.16.64-4.3 1.32-6.43 2.06-.09 0-.06.19 0 .16q3.23-.95 6.49-1.76c1.09-.27 2.19-.53 3.28-.78a14.6 14.6 0 0 0 3.06-.86.16.16 0 0 0-.03-.3m1.41 9.47a8.5 8.5 0 0 0-2.78.67l-2.94.91c-2 .6-3.92 1.2-5.91 1.72-.09 0-.06.19 0 .16 2-.53 4-1 6.05-1.57l3-.82a7.7 7.7 0 0 0 2.61-1 .06.06 0 0 0-.03-.07" style="fill:#263238"/><path d="m136.07 307.21 13.93 29.7s-43.1 12.57-48.94 5-5.44-31.36-2.7-47.82 10.15-16.78 13.39-1.9 5.16 24.28 5.74 24.2 18.58-9.18 18.58-9.18" style="fill:#409e8d"/><path d="M130.45 311.2c0-.07-.18 0-.15.06.78 2.23 1.82 4.38 2.77 6.54s2 4.45 3.06 6.66c2.07 4.4 4.1 8.87 6.43 13.14a.15.15 0 1 0 .26-.14c-1.78-4.5-3.9-8.88-5.94-13.26-1-2.18-2-4.34-3.09-6.49s-2.09-4.42-3.34-6.51m-3.27 31.17a18 18 0 0 0-3.6.6c-1.25.22-2.5.42-3.75.58a69 69 0 0 1-7.31.63c-2.41.06-8.37-.3-10.2-2a11.45 11.45 0 0 1-3.11-5.36 78 78 0 0 1-1.48-8.47 110 110 0 0 1-.57-18.13c.07-1.68.18-3.37.3-5.05s.33-3.42.38-5.14c0-.06-.1-.07-.11 0a59 59 0 0 0-1.14 8.3c-.11-1.73-.32-3.47-.34-5.21a.08.08 0 0 0-.16 0c0 1.83-.09 3.66 0 5.49 0 1 .14 2.05.25 3.07a96 96 0 0 0-.18 7 71.7 71.7 0 0 0 2.13 18.23c.71 2.59 1.81 5.06 4.17 6.45a15.3 15.3 0 0 0 5.67 1.48 47.5 47.5 0 0 0 12.42-.78q1.71-.33 3.42-.72a13.5 13.5 0 0 0 3.27-.89s0-.08-.06-.08m9.44-34.93v.01zm-.62-.79c-3.17 1.59-6.35 3.18-9.51 4.8l-4.67 2.39c-1.5.78-4.36 2.32-4.36 2.32 0-.72-.58-2.79-.88-4.13s-.67-2.91-1-4.36c-.1-.38-.21-.75-.31-1.13-.07-.69-.13-1.39-.19-2.09-.11-1.12-.2-2.26-.37-3.38h-.07a16.4 16.4 0 0 0 0 3.21c-.48-1.76-1-3.5-1.5-5.24h-.09c.57 2.94 1.17 5.88 1.84 8.8.33 1.41.69 2.82 1.06 4.23a44 44 0 0 0 1.26 4.5 49 49 0 0 0 4.75-2.1q2.43-1.15 4.84-2.36c3.11-1.56 6.25-3.15 9.26-4.91 0 0 .21.4.24.45s.18-.09.14-.23-.36-.8-.44-.77m27.35 29.3h40.61l17.8-57.47h-40.6z" style="fill:#263238"/><path style="fill:#455a64" d="M165.34 335.95h40.61l17.81-57.47h-40.61z"/><path d="M198.82 305.41a5.5 5.5 0 0 1-5 3.95 2.94 2.94 0 0 1-2.91-3.95 5.5 5.5 0 0 1 5-4 2.94 2.94 0 0 1 2.91 4" style="fill:#fff"/><path d="M217.51 298.63c2 3.65 7.24 8.13 7.77 11.17a3.53 3.53 0 0 1-1.75 3.84s3.14 1.35 3.17 4.19c0 1.46-2.3 2.77-2.3 2.77a4.21 4.21 0 0 1 2.34 3.71c-.1 2-2.4 3-2.4 3s1.83 2.24 1.07 4.26c-1.54 4.09-18.8 5.06-21.83-1.15-1.4-2.9 2.83-2.9 2.83-2.9s-6.09-1.46-6.38-5 5.21-3.23 5.21-3.23-5.89-1.46-5.82-5.18 5.52-2.6 5.52-2.6-4-2.39-3.28-5.22c1.16-4.68 9.81.88 13.55-.23Z" style="fill:#f7a9a0"/><path d="M224 327.55v.09a30 30 0 0 1-17.85-.07c-.18-.06-.16-.38.06-.35a61.5 61.5 0 0 0 17.79.33m.49-6.92c.06 0 .08.1 0 .12a28.1 28.1 0 0 1-19.49-1.28c-.21-.1-.3-.4 0-.31 4.24 1.67 14 2.25 19.49 1.47m-19.93-9.47c6 2.62 12.26 3 18.74 2.56.08 0 .08.11 0 .14-3.1 1.1-7.26 1-10.5.61a17.17 17.17 0 0 1-8.34-3.1c-.09-.07-.03-.26.1-.21" style="fill:#263238"/><path d="M337.84 413.17c-.84 2.27-42 53.43-44.8 54.39-1.06.37-8.86-5.19-18.1-12.18-2-1.51-4-3.08-6.12-4.68-13.47-10.41-27.52-21.77-27.52-21.77l27.43-34.31 26.77 22.72 5.88 5s24.52-12.54 27.71-13.26 9.59 1.82 8.75 4.09" style="fill:#f7a9a0"/><path d="M337.84 413.17c-.84 2.27-42 53.43-44.8 54.39-1.3.44-12.54-7.86-24.22-16.86l26.68-33.36 5.88 5s24.52-12.54 27.71-13.26 9.59 1.82 8.75 4.09" style="fill:#fff"/><path d="M337.84 413.17c-.84 2.27-42 53.43-44.8 54.39-1.06.37-8.86-5.19-18.1-12.18l26.44-33.06s24.52-12.54 27.71-13.26 9.59 1.84 8.75 4.11" style="fill:#409e8d"/><path d="M335.2 412.25c-7.11 8.41-35 43-41.38 51.84-.05.07 0 .11.05.05 7.23-8.18 34.84-43 41.48-51.77.14-.19 0-.29-.15-.12m-10.6-1.38a8.82 8.82 0 0 0-2 6.81 8.57 8.57 0 0 0 3 5.6c.05 0 .13 0 .08-.1a10.23 10.23 0 0 1-1-12.23.07.07 0 0 0-.08-.08m-19.69 8.81c-2.81 3.39-4.8 8.35-3.71 12.74.05.17.29.11.32 0a60.2 60.2 0 0 1 3.86-12.42.28.28 0 0 0-.47-.32m3.17-1.82c-2.81 3.39-4.8 8.35-3.71 12.74 0 .17.28.11.31 0a61 61 0 0 1 3.87-12.42.28.28 0 0 0-.47-.32m3.16-1.86c-2.81 3.4-4.8 8.35-3.71 12.74.05.17.29.11.32 0a60.4 60.4 0 0 1 3.86-12.42.28.28 0 0 0-.47-.32m3.17-1.78c-2.81 3.4-4.8 8.35-3.71 12.74 0 .17.28.11.31 0a61 61 0 0 1 3.87-12.43.28.28 0 0 0-.47-.31" style="fill:#263238"/><path d="M287.43 455.35c-3.09 3.86 2.91 8.67 6 4.8s-2.91-8.66-6-4.8" style="fill:#fff"/><path d="M298.74 408.6c-2.84.58-3.2 3.9-2.56 6.17a23.14 23.14 0 0 0 6.27 10.23.11.11 0 0 0 .18 0 .54.54 0 0 0 .78-.4c.27-3.8 1-7.83.14-11.61-.55-2.27-2.13-4.94-4.81-4.39m3.9 10.08c-.09 1.87-.27 3.73-.29 5.61a70 70 0 0 1-3.53-6 27 27 0 0 1-1.31-3.11c-.53-1.66-.69-7.34 3.32-4.68 2.17 1.44 1.92 5.95 1.81 8.18" style="fill:#263238"/><path d="M296.86 434.51c2.86-2.62 4.49-6.39 6.4-9.69a.54.54 0 0 0-.42-.76.12.12 0 0 0-.14-.13 23.2 23.2 0 0 0-10.9 4.91c-1.8 1.53-3.37 4.47-1.35 6.55s4.74.61 6.41-.88m-3.62.5c-4.82-.05-1.5-4.66-.13-5.73a27 27 0 0 1 2.84-1.85c2-1.17 4.18-2 6.3-3-1 1.56-1.93 3.2-2.91 4.8-1.16 1.91-3.45 5.77-6.1 5.77Z" style="fill:#263238"/><path d="m294.07 412.16-28.55 38.52-96.34-66.85-9.29-6.45s-2.63 1.77-6.59 4c-5.5 3-13.56 6.89-20.69 7.94-12 1.77-31.93 1.58-42-11.9-8.49-11.35-3.88-26.16-3.88-26.16l13.13-5.64s31.08-25.89 51.21-26.67c8.55-.34 21 6.14 32.53 12.91s110.47 80.3 110.47 80.3" style="fill:#37474f"/><path d="M159.89 377.38s-2.63 1.77-6.59 4c-7-8.38-21.82-23.6-22.27-24.14Zm-48.65-40.46c-1.86 1.29-3.65 2.66-5.49 4s-3.66 2.53-5.37 4-3.4 3-5 4.55c-.79.75-1.58 1.51-2.34 2.29a21 21 0 0 0-2.24 2.42c-.06.09.06.18.14.13a24 24 0 0 0 2.48-2L96 350c1.67-1.42 3.37-2.8 5-4.23s3.19-3 4.83-4.39 3.6-3 5.43-4.41c.05.03.02-.08-.02-.05m176.13 73.86c-1.86 2-3.57 4.15-5.3 6.26s-3.46 4.25-5.17 6.39c-3.42 4.27-6.88 8.53-10.24 12.86-1.85 2.37-3.67 4.76-5.39 7.24-.08.11.1.23.18.13 3.69-4.05 7.05-8.37 10.47-12.64s6.84-8.58 10.19-12.91c1.84-2.37 3.74-4.73 5.42-7.21.07-.1-.08-.21-.16-.12m-79.07.39c-4.79-3.78-9.76-7.34-14.73-10.88s-9.89-7.06-14.91-10.48c-1.44-1-2.89-1.95-4.34-2.91s-3-1.86-4.38-2.86c-.08-.05-.16.08-.08.14 1.31.94 2.54 2 3.82 2.95s2.44 1.87 3.67 2.78c2.41 1.78 4.84 3.53 7.27 5.29 4.92 3.55 9.88 7.07 14.88 10.5 2.85 1.95 5.68 3.91 8.59 5.77.17.11.38-.17.21-.3m30.81-39.74c-4.43-3.67-9.18-7-13.82-10.37s-9.37-6.9-14.08-10.3l-14-10.15c-4.54-3.28-9.05-6.61-13.84-9.51a93 93 0 0 0-8.07-4.38 52.5 52.5 0 0 0-8.34-3.41c-.09 0-.13.1-.06.14 2.36 1.32 4.84 2.43 7.23 3.7s4.69 2.58 7 4c4.75 2.88 9.24 6.16 13.75 9.4 9.36 6.73 18.71 13.5 28.14 20.14 5.28 3.72 10.45 7.64 15.93 11 .12.13.32-.13.16-.26" style="fill:#263238"/><path d="M456.45 356c-12.22 16.56-25 35.76-28.07 56.52 0 .32.47.42.54.11a123 123 0 0 1 5.41-16.63c8-2.21 15.92-4 20.14-12 4.3-8.19 3.75-18.88 2.94-27.81-.06-.53-.71-.55-.96-.19" style="fill:#409e8d"/><path d="M434.45 395.8C439.94 383.48 447 371.11 456 361c.06-.07.15 0 .09.1-5.86 7.21-10.32 15.07-14.67 23.07 4.05-4.11 8.48-7.79 12.31-12.15a.09.09 0 0 1 .13.12c-3.81 4.57-8 9.54-12.93 12.92q-2 3.68-4 7.37c.34-.19.68-.35 1-.52.06 0 .12.06.05.09-.37.19-.75.39-1.14.56-.64 1.16-1.28 2.33-1.94 3.49-.21.24-.57.01-.45-.25m4.08-4.3a71 71 0 0 0 9.38-6.26c.08-.06.2.05.12.11a49 49 0 0 1-9.36 6.38.13.13 0 0 1-.14-.23" style="fill:#263238"/><path d="M427 409.39c0 .25.45.24.45 0 .06-6.84 0-13.71.1-20.57 1.76-3.54 5.51-5.49 8.13-8.33a36.5 36.5 0 0 0 4.87-6.78 48.6 48.6 0 0 0 5.66-18.86c.72-7.31-2.05-31.44-5.14-30.6-1.59.43-6.77 12.38-8.14 16.33a113 113 0 0 0-4.86 20c-2.53 16.1-2.32 32.62-1.07 48.81" style="fill:#409e8d"/><path d="M426.92 379.9c.38-8.65 2.32-17.38 4.15-25.77 2-9 4.26-17.55 8.91-25.61.09-.15.31 0 .23.14a95 95 0 0 0-7.16 19.65c.31-.48.69-.95 1-1.41.12-.18.42 0 .3.18a13 13 0 0 1-1.46 2.05h-.06c-1.6 6.46-2.75 13.07-3.73 19.66a3 3 0 0 1 .22-.26c.05 0 .13 0 .1.08-.12.22-.26.43-.39.65-.5 3.35-1 6.69-1.42 10 6-5.1 11-11.1 13.91-18.49h.06c-2.81 7.66-7.24 14.48-14.06 19.14-.13.89-.25 1.78-.38 2.67 0 .18-.32.13-.32-.05 0-.78 0-1.57.07-2.36a.19.19 0 0 1 .03-.27" style="fill:#263238"/><path d="M429.73 367.37c4.55-6.8 8.8-13.39 12.13-20.9a.08.08 0 0 1 .15.06c-2.81 7.46-6.74 15-12.06 21-.1.13-.32-.03-.22-.16m6.05-22.58c1.88-3.34 3.87-6.58 5.64-10 .05-.09.18 0 .14.09a51.8 51.8 0 0 1-5.49 10.12c-.13.13-.4 0-.29-.21m-.78 1.45v.06z" style="fill:#263238"/><path d="M422.34 389.62a69 69 0 0 1-1.59 13.46l.21 1.48a64.4 64.4 0 0 0 2.41-15 .49.49 0 0 0 0-.47 100 100 0 0 0-1.51-20.34c-2.12-12.56-6.74-24.62-15.51-34a.62.62 0 0 0-1 .2c-3.54 9-2.3 19.71.71 28.68a52.4 52.4 0 0 0 6.94 13.62c3.07 4.18 6.9 7.75 9.34 12.37" style="fill:#409e8d"/><path d="M407.41 338.9c8.3 13.48 14.08 29.46 14.79 45.37 0 .29-.46.36-.5.07-.2-1.43-.42-2.85-.65-4.26-3.44-3.29-7-6.76-9.42-10.88-.05-.07.06-.15.11-.09a112 112 0 0 0 9.16 10c-.6-3.52-1.3-7-2.14-10.39l-.65-.77c-.15-.17.09-.42.24-.25l.2.22a118 118 0 0 0-4.34-13.78c-2.11-2.52-4.48-4.7-6-7.74 0-.07.07-.13.11-.07 1.24 1.74 2.44 3.49 3.84 5.1.56.64 1.18 1.24 1.76 1.87a106 106 0 0 0-6.8-14.17.19.19 0 0 1 .29-.23" style="fill:#263238"/><path d="M409.09 355.53c2.68 3.61 5.74 7.05 8.24 10.79.07.1-.09.21-.18.13-3.2-3-5.92-7.11-8.24-10.82-.07-.12.09-.21.18-.1m8.61 11.62.12.12c.08.08-.05.2-.13.12l-.11-.11c-.08-.08.04-.21.12-.13" style="fill:#263238"/><path d="M394.4 364.81a41.4 41.4 0 0 0 8.76 20.55 21.9 21.9 0 0 0 7.11 5.55c3.08 1.52 6.3 3.27 9.48 4.52a62 62 0 0 1 3.36 11.93c.1-.35.2-.71.31-1.06-2.05-17.55-13.41-32.55-27.93-42.18a.71.71 0 0 0-1.09.69" style="fill:#409e8d"/><path d="M399.42 370c-.1-.09 0-.27.15-.19a59.4 59.4 0 0 1 18.51 22.82c.11.24-.22.45-.36.21-.67-1.18-1.36-2.34-2.06-3.47-3.32-.63-6.46-3-8.92-5.18-.07-.06 0-.16.1-.1a20 20 0 0 0 4.19 3c1.36.69 2.81 1.12 4.22 1.67a95 95 0 0 0-3.85-5.64 38.4 38.4 0 0 1-10-5.6.09.09 0 0 1 .1-.16 99 99 0 0 0 9.26 4.95 84 84 0 0 0-6.54-7.62c-1.13-.6-2.27-1.2-3.36-1.83-.09-.05 0-.21.07-.17a11.7 11.7 0 0 1 2.58 1.27 57 57 0 0 0-4.09-3.96m.31 6.05a6 6 0 0 1 .56.4c0 .05 0 .12-.07.1a4 4 0 0 1-.58-.34c-.1-.06-.01-.21.09-.16" style="fill:#263238"/><path style="fill:#455a64" d="M446.09 445.37h-39.81l3.21-36.25.71-8h31.97l.71 8z"/><path style="fill:#263238" d="M442.88 409.12h-33.39l.71-8h31.97z"/><path style="fill:#455a64" d="M408.29 395.53h35.78v7.91h-35.78z"/></svg>