<svg xmlns="http://www.w3.org/2000/svg" viewBox="0 0 500 500"><path d="M181.33 299.38s-9.65-6.73-14.08-5.51-10.11 7.45-10.11 7.45 11.24-3.24 14.63-2.56a63 63 0 0 0 9.56.62m3.25 2.43c-1.41 3.18-3.83 5.83-5.19 9a15.25 15.25 0 0 0-.07 11.59 20.84 20.84 0 0 0 4.92-9.87 54 54 0 0 0 1.13-10.32Zm-1.48-.81c.44-1.3-10.48-.73-14 3.48s-7 8.79-4 19.42c0 0 6.59-11.52 6.59-11.35s10.53-9.01 11.41-11.55" style="fill:#e0e0e0"/><path d="M183.18 300.85c-1 .39 8.91 3.41 13.49 3.78a13.94 13.94 0 0 0 7.35-1.16s-6.65-8.13-20.84-2.62m50.13 41.81s4.78-2 6.13-.6 6.86 8.66 12.09 9.11c0 0-4.78-10.16-9.11-11.8-2.85-1.08-9.11 3.29-9.11 3.29" style="fill:#e0e0e0"/><path d="M234.54 342.11s-.19-3.59-2-5.48-8.3-3.17-8.3-3.17A25.3 25.3 0 0 0 229 339a26.8 26.8 0 0 0 5.54 3.11" style="fill:#e0e0e0"/><path d="M234.54 341.9s-3.33 0-5.68 4.11a34.2 34.2 0 0 0-3.44 9c.2-.35 6.28-3 7.88-6.38a14.05 14.05 0 0 0 1.24-6.73m.75 0s.6 7.92 1.94 9.27 3.29 6.27 3.29 6.27 3-7.17 1.34-10.6-6.57-4.94-6.57-4.94m-29.02 15.3c-.38.57-8 6.51-9.19 9.39s-.19 7.28 0 8.62 6.89-1.73 8-6.9a59.7 59.7 0 0 0 1.19-11.11m1.5-4.45c0 .95.11 10.34 2.58 13.62a44 44 0 0 0 7 6.76s1.62-11.87-1.8-15.54a18.54 18.54 0 0 0-7.78-4.84m-1.13 1.61c-.56-.13-7.49-.79-10.79 3.16a36.7 36.7 0 0 0-5.14 8.43s10.48-5.2 12.4-7.5 3.53-4.09 3.53-4.09m4.77-4.3a5.46 5.46 0 0 1 5.94-.15c3.11 1.94 8.29 9.48 8.29 9.48s-6.34-.39-9.64-3.59a21.8 21.8 0 0 1-4.59-5.74m-4.51 1.17s-4-3.42-7.09-4.18-12.07 1.48-12.07 1.48a16.12 16.12 0 0 0 10.44 2.7c6.23-.54 8.72 0 8.72 0M193.56 386s-2.88 5.56 0 8.63 4.42 9.2 4.42 9.2 5-4.8 2.48-10.16a17.4 17.4 0 0 0-6.9-7.67m-4.56.14c-.77.39-5.75 7.09-6.13 11.88s-.77 13 0 12.46 6.32-5.75 7.85-10.73-1.72-13.61-1.72-13.61m-1.93-.52c-.76.19-8-1.15-12.07 4a64 64 0 0 0-7.09 12.65s10.54-5.39 13-8.35 6.16-8.3 6.16-8.3m41.13-9.2s-2.19 6.52 0 12.27a56 56 0 0 0 4.68 9.58s3.24-11.5 1.14-14.57-5.82-7.28-5.82-7.28m1.2-.69c.77.72 9.76 13.62 15.87 14.77s.95-.49.95-.49-1.92-8.69-4.66-12.29-12.16-1.99-12.16-1.99" style="fill:#e0e0e0"/><path d="M228 375.5s6.63-4.6 9.22-5.77 11.17.37 11.17.37-10.39 5.42-12.89 4.9-7.47 1.64-7.47 1.64m23.05-63.87s-5.74 6.09-5 10.85a56 56 0 0 0 2.46 9.32l2.52-8.37Zm.78-1.22s-1.33 9.33 1.33 13.13 6.28 11 6.66 10.47 5.9-5.52 1.91-12.56a36.2 36.2 0 0 0-9.9-11.04m-1.93 1.65s-9.18-2.66-10.5 1.72-2.43 8.18-2.43 8.18a36 36 0 0 1 6.48-5.35 66 66 0 0 0 6.45-4.55m-41.17 2.47.75-.65c2.17-1.85 8.5-6.94 11.7-6.16a67 67 0 0 1 9.26 3.37s-13.87 7.2-21.71 3.44" style="fill:#e0e0e0"/><path d="M210.62 315.73c0-.69-4.17-1.8-7.86 2s-4.25 6.15-4.25 6.15 11.85-1.58 12.11-8.15" style="fill:#e0e0e0"/><path d="M210 316.5s-4.22 4.85-1 9.61 6 9.33 6 9.33a15.4 15.4 0 0 0 0-9.47 34 34 0 0 0-5-9.47m15.74 12.08c-.19-1.16 1.34-10.66-11.23-9.72h-1.15s6 9.7 7.39 12.75a13.2 13.2 0 0 0 3.89 5.33c1.48 1.33 1.29-7.2 1.1-8.36m2.43 47.42a10.92 10.92 0 0 0-3-8.11c-.19-.21-.47-.42-.72-.3a.7.7 0 0 0-.31.45 7 7 0 0 0 .7 5.22 17.7 17.7 0 0 0 3.4 4.18m-35.49 7.35a21.5 21.5 0 0 0-10.19-9.32 1.42 1.42 0 0 0-.85-.17 1.1 1.1 0 0 0-.77 1 3.6 3.6 0 0 0 1 2.54 17.85 17.85 0 0 0 11.32 6.77" style="fill:#e0e0e0"/><path d="M243.11 370.76s-.64 0-1.8.18a20 20 0 0 0-4.74 1.23 27.3 27.3 0 0 0-6.33 3.56 67 67 0 0 0-6.68 5.93c-4.57 4.45-8.6 8.57-11.39 11.67a212 212 0 0 0-3.26 3.71l-.89 1c-.2.23-.31.35-.33.34a2 2 0 0 1 .26-.4c.19-.24.46-.61.82-1.06.72-.92 1.79-2.23 3.16-3.81 2.74-3.16 6.74-7.34 11.31-11.78a62 62 0 0 1 6.75-5.95 27 27 0 0 1 6.47-3.53 18.4 18.4 0 0 1 4.84-1.09 12 12 0 0 1 1.34 0 2 2 0 0 1 .47 0m-35.66 24.87c-.07.05-.82-1.25-2.45-3a20.8 20.8 0 0 0-16.72-6.56c-2.38.16-3.81.6-3.83.52a4 4 0 0 1 1-.34 17 17 0 0 1 2.81-.5 20 20 0 0 1 17 6.66 16.6 16.6 0 0 1 1.72 2.29 4.2 4.2 0 0 1 .47.93" style="fill:#e0e0e0"/><path d="M209.92 315.6a1.5 1.5 0 0 1 0 .28c0 .2 0 .47-.07.8-.07.73-.17 1.76-.3 3.07-.27 2.66-.66 6.52-1.09 11.29-.84 9.53-1.84 22.74-1.82 37.35s1.07 27.82 1.81 37.36c.39 4.75.7 8.61.92 11.31.1 1.31.18 2.34.24 3.07 0 .33 0 .6.05.8a1 1 0 0 1 0 .28 1.5 1.5 0 0 1-.05-.27c0-.21 0-.47-.09-.8-.08-.73-.19-1.76-.32-3.07-.27-2.66-.65-6.52-1.07-11.29-.82-9.54-1.9-22.75-2-37.39s1-27.85 2-37.38c.47-4.77.91-8.62 1.23-11.28q.25-2 .39-3.06l.12-.8a.8.8 0 0 1 .05-.27" style="fill:#e0e0e0"/><path d="M238.58 341.32a6.5 6.5 0 0 1-1.34.21c-.86.09-2.11.26-3.64.5a67.7 67.7 0 0 0-22.73 8 71 71 0 0 0-3.16 1.88 6.5 6.5 0 0 1-1.17.67 8 8 0 0 1 1.08-.82c.7-.51 1.76-1.2 3.09-2a60.7 60.7 0 0 1 22.84-8c1.55-.2 2.8-.32 3.67-.36a8 8 0 0 1 1.36-.08m-31.03-4.24a4 4 0 0 1-.12-.51c-.07-.39-.15-.88-.26-1.48a21 21 0 0 0-.46-2.32c-.23-.89-.4-1.93-.79-3-.18-.55-.36-1.13-.55-1.73s-.46-1.2-.7-1.84c-.47-1.28-1.13-2.58-1.79-4a52 52 0 0 0-5.47-8.31A64.6 64.6 0 0 0 184 301.77c-.93-.69-1.84-1.21-2.61-1.73s-1.46-.91-2-1.24l-1.29-.8a2.5 2.5 0 0 1-.43-.29 2 2 0 0 1 .48.21l1.32.71c.58.3 1.28.68 2.06 1.18s1.71 1 2.67 1.67a61.5 61.5 0 0 1 13.56 12.11 50.2 50.2 0 0 1 5.49 8.41 41 41 0 0 1 1.77 4c.23.65.51 1.25.68 1.87s.36 1.19.53 1.75a31 31 0 0 1 .73 3.07 17.5 17.5 0 0 1 .39 2.34c.07.61.13 1.1.17 1.49a1.8 1.8 0 0 1 .03.56" style="fill:#e0e0e0"/><path d="M252.52 312.33a2.2 2.2 0 0 1-.48.22l-1.41.53c-1.23.44-3 1.11-5.16 2a154 154 0 0 0-16.47 7.76 152 152 0 0 0-15.38 9.75c-1.9 1.36-3.41 2.49-4.44 3.29l-1.2.91a2.7 2.7 0 0 1-.44.29s.12-.14.38-.37l1.15-1c1-.84 2.48-2 4.36-3.42a132.5 132.5 0 0 1 31.92-17.56c2.18-.83 4-1.46 5.21-1.85l1.44-.45a2.6 2.6 0 0 1 .52-.1m-26.54 151.75h-36.1l-3.77-44.1h44.1z" style="fill:#e0e0e0"/><path style="fill:#e0e0e0" d="M183.32 419.98h49.82v6.78h-49.82z"/><path d="M232.82 426.78c0 .12-11.15.23-24.88.23s-24.89-.11-24.89-.23 11.14-.23 24.89-.23 24.88.1 24.88.23" style="fill:#ebebeb"/><path transform="rotate(-179.55 400.126 445.526)" style="fill:#ebebeb" d="M384.79 426.19h30.66v38.7h-30.66z"/><path style="fill:#fafafa" d="m403.61 427.44-.55 37.47-4.84-.04 1.04-37.47z"/><path style="fill:#e0e0e0" d="m367.34 427.16 17.59.13 30.66.24-30.7 4.04-.26 33.2-17.58-.14z"/><path style="fill:#fafafa" d="m376.91 427.23-.7 37.47-5.21-.04.85-37.47z"/><path d="M390.83 415.83c0 .23-.5.48-1.44.71a24.6 24.6 0 0 1-7 .51c-.52 0-1.07-.1-1.63-.19a12 12 0 0 1-1.79-.38 5.3 5.3 0 0 1-1.1-.47 3.4 3.4 0 0 1-1.17-1.1 3.3 3.3 0 0 1-.5-1.68 5.2 5.2 0 0 1 .15-1.3 22.3 22.3 0 0 1 1.17-3.89 10.7 10.7 0 0 1 1.12-2 9 9 0 0 1 .76-.9 5.6 5.6 0 0 1 1-.82 4.1 4.1 0 0 1 1.39-.56 3.55 3.55 0 0 1 1.59 0 5.3 5.3 0 0 1 2.1 1.16 17 17 0 0 1 4 4.94 12 12 0 0 1 1.35 4c.12 1 0 1.57-.22 1.63-.5.11-1.22-1.86-3.17-4.34a20 20 0 0 0-3.94-3.77 2.16 2.16 0 0 0-.89-.46.3.3 0 0 0-.17 0 1.2 1.2 0 0 0-.26.14 3 3 0 0 0-.39.34 6 6 0 0 0-.43.54 7.2 7.2 0 0 0-.74 1.35 24 24 0 0 0-1.06 3.29 2.7 2.7 0 0 0-.09.48h-.09c-.11 0-.14.06-.07 0l.12-.09a.4.4 0 0 0 .09.08 2.2 2.2 0 0 0 .44.23 14 14 0 0 0 1.36.41c.48.13 1 .23 1.41.32.92.19 1.8.32 2.61.43 1.63.22 3 .36 3.93.54s1.56.61 1.56.85" style="fill:#e0e0e0"/><path d="M390.2 416.11c-.08-.49 2.21-1.21 5.79-2.26a49 49 0 0 0 6-2.16 6 6 0 0 0 1.31-.73c.14-.11.2-.22.18-.21s0 .14 0 .07a2.7 2.7 0 0 0-.22-.53c-.14-.31-.29-.61-.44-.92a15 15 0 0 0-.93-1.66 6.8 6.8 0 0 0-1.09-1.31 7 7 0 0 0-.62-.49 2.8 2.8 0 0 0-.56-.3 1.4 1.4 0 0 0-.9-.09 3.1 3.1 0 0 0-1.09.63 24 24 0 0 0-4.19 4.55c-2.05 2.93-2.59 5.21-3.1 5.14-.23 0-.4-.66-.32-1.78a13.1 13.1 0 0 1 1.33-4.57 19.9 19.9 0 0 1 4.2-5.71 6.2 6.2 0 0 1 2.17-1.38 4.65 4.65 0 0 1 3 .05 6.6 6.6 0 0 1 1.28.62 9.35 9.35 0 0 1 2.71 2.75 15 15 0 0 1 1.14 2.07l.45 1a5.6 5.6 0 0 1 .45 1.41 3.16 3.16 0 0 1-.34 2 3.8 3.8 0 0 1-1.14 1.25 8.3 8.3 0 0 1-2.09 1 31.2 31.2 0 0 1-6.72 1.61c-3.82.53-6.18.39-6.26-.05" style="fill:#ebebeb"/><path transform="rotate(-179.55 384.349 420.877)" style="fill:#e0e0e0" d="M361.81 414.48h45.07v12.81h-45.07z"/><path transform="rotate(-179.55 398.754 420.986)" style="fill:#ebebeb" d="M378.38 414.59h40.74v12.81h-40.74z"/><path style="fill:#fafafa" d="m406.67 414.65-.29 12.87-4.75-.1.33-12.8zm-33.76-.2-.46 12.76-5.22-.04.28-12.82z"/><path transform="rotate(-179.55 427.354 453.964)" style="fill:#ebebeb" d="M418.66 443.01h17.37v21.93h-17.37z"/><path style="fill:#fafafa" d="m429.32 443.72-.31 21.23-2.74-.02.59-21.23z"/><path style="fill:#e0e0e0" d="m408.77 443.56 9.97.07 17.37.14-17.39 2.29-.15 18.81-9.96-.08z"/><path style="fill:#fafafa" d="m414.19 443.6-.39 21.23-2.96-.02.48-21.23z"/><path d="M422.08 437.14c0 .32-1.14.71-3.13.88a11.3 11.3 0 0 1-3.64-.3 2.48 2.48 0 0 1-1.41-1 2 2 0 0 1-.32-1.07 3 3 0 0 1 .09-.8 12.7 12.7 0 0 1 .67-2.24 6.4 6.4 0 0 1 .66-1.16 3.9 3.9 0 0 1 1.08-1 2.4 2.4 0 0 1 1.86-.32 3.34 3.34 0 0 1 1.28.71 9.4 9.4 0 0 1 2.29 2.89c.94 1.9.8 3.24.5 3.29s-.82-1-1.94-2.36a12 12 0 0 0-2.23-2.06 1 1 0 0 0-.42-.21.2.2 0 0 0-.07.05 1.8 1.8 0 0 0-.4.44 4 4 0 0 0-.4.72 14 14 0 0 0-.58 1.82l-.05.22h-.29c-.07 0-.08 0 0 0a.8.8 0 0 0 .17-.15h.05a.8.8 0 0 0 .2.11 17.5 17.5 0 0 0 3 .7c1.81.28 3.03.49 3.03.84" style="fill:#e0e0e0"/><path d="M421.72 437.3c-.06-.37 1.23-.87 3.23-1.52a31 31 0 0 0 3.35-1.29 2.6 2.6 0 0 0 .66-.38c.06 0 .06-.08 0 0a.5.5 0 0 0-.06.26c-.12-.24-.24-.48-.35-.73a9 9 0 0 0-.51-.9 3.5 3.5 0 0 0-.56-.67 2 2 0 0 0-.55-.39.42.42 0 0 0-.29-.05 1.2 1.2 0 0 0-.51.28 14.2 14.2 0 0 0-2.37 2.46c-1.19 1.58-1.59 2.83-2 2.78s-.61-1.54.36-3.72a11.2 11.2 0 0 1 2.39-3.35 3.7 3.7 0 0 1 1.34-.86 3.06 3.06 0 0 1 1.94 0 4.5 4.5 0 0 1 .79.39 4.4 4.4 0 0 1 .63.48 5.8 5.8 0 0 1 1 1.17 9 9 0 0 1 .67 1.22l.26.56a4 4 0 0 1 .28.89 2.17 2.17 0 0 1-.24 1.37 2.4 2.4 0 0 1-.74.81 4.9 4.9 0 0 1-1.26.63 16.6 16.6 0 0 1-3.88.85c-2.17.22-3.52.05-3.58-.29" style="fill:#e0e0e0"/><path transform="rotate(-179.55 418.414 439.994)" style="fill:#e0e0e0" d="M405.63 436.37h25.54v7.26h-25.54z"/><path transform="rotate(-179.55 426.575 440.057)" style="fill:#ebebeb" d="M415.02 436.44h23.08v7.26h-23.08z"/><path style="fill:#fafafa" d="m431.05 436.47-.16 7.29-2.69-.05.19-7.26zm-19.12-.11-.26 7.23-2.96-.03.16-7.26z"/><path style="fill:#e0e0e0" d="M42.5 42.51h132.38v219.12H42.5z"/><path style="fill:#ebebeb" d="M38.1 42.51h132.38v219.12H38.1z"/><path style="fill:#fafafa" d="M43.74 46.96h121.1v210.23H43.74z"/><path style="fill:#ebebeb" d="M66.79 74.27h74.47v155.6H66.79z"/><path d="M66.79 174.81c-.17-14.53 12.9-28.72 27.29-30.75 6.86-1 14.16.39 20.57-2.24 11.45-4.69 15.09-19.9 26.61-24.41l.52 112.46h-75Z" style="fill:#e0e0e0"/><path d="M469.24 465c0 .15-98.61.27-220.23.27s-220.25-.12-220.25-.27 98.59-.26 220.25-.26 220.23.12 220.23.26m-40.64-71.91L222.32 393a11.56 11.56 0 0 1-11.54-11.56l.16-306.07a11.55 11.55 0 0 1 11.56-11.56l206.27.11a11.55 11.55 0 0 1 11.55 11.55l-.17 306.07a11.55 11.55 0 0 1-11.55 11.55" style="fill:#263238"/><path style="fill:#fff" d="M217.67 86.61h214.91v274.9H217.67z"/><path d="M334.27 376.5a8.8 8.8 0 1 1-8.79-8.81 8.79 8.79 0 0 1 8.79 8.81" style="fill:#455a64"/><rect x="291.09" y="73.34" width="69.08" height="3.64" rx="1.22" style="fill:#455a64"/><path d="M423.43 323.48a2.58 2.58 0 0 1-2.58-2.59l.1-195.16a2.58 2.58 0 0 1 2.59-2.58 2.59 2.59 0 0 1 2.58 2.58L426 320.89a2.58 2.58 0 0 1-2.57 2.59" style="fill:#e0e0e0"/><path d="M370.14 109.1c0 .15-19.94.25-44.53.24s-44.53-.14-44.53-.28 19.94-.25 44.53-.24 44.53.18 44.53.28m-131.59 4.96h1.09l2.93-.08-.09.1v-3.37a1.15 1.15 0 0 1 1-.92h1.41a1.16 1.16 0 0 1 1 1.15v3.11l-.15-.15h3.71l-.16.16v-5.8a1.15 1.15 0 0 0-.52-.86l-1.62-1.6-1.56-1.54c-.25-.26-.51-.51-.76-.75s-.46-.51-.76-.57a1 1 0 0 0-.83.16c-.22.18-.47.45-.69.67l-1.4 1.23c-.84.87-1.72 1.67-2.35 2.41a2.7 2.7 0 0 0-.18 1.38v4.76a3 3 0 0 1 0 .49 2.6 2.6 0 0 1 0-.45v-5.51a1.55 1.55 0 0 1 .21-.78c.69-.85 1.51-1.59 2.35-2.49l1.32-1.35a10 10 0 0 1 .72-.71 1.28 1.28 0 0 1 1.09-.22 2 2 0 0 1 .9.65l.76.74 1.57 1.54 1.62 1.6a1.46 1.46 0 0 1 .62 1.08v5.97h-4.02v-3.22a.86.86 0 0 0-.73-.88h-1.34a.89.89 0 0 0-.79.71v3.41h-3.86Zm170.08-9.94a.16.16 0 0 0-.11-.05h-12.07l-.06-.5-.14-1a.15.15 0 0 0-.14-.13h-2.43c-.19 0-.32 0-.32.16s.13.16.32.16h2.22l1.24 9.58a.14.14 0 0 0 .15.13h9.82c.23 0 .34 0 .34-.15s-.11-.16-.34-.17l-9.58-.13-.22-1.69 10.06.13a.15.15 0 0 0 .15-.12l.74-4 .4-2.16a.14.14 0 0 0-.03-.06m-12.13.22 11.68.16-1 5.6h-9.88Zm3.5 10.4a1.23 1.23 0 0 0-.41-.67 1.17 1.17 0 0 0-1.13-.19 1.2 1.2 0 0 0 0 2.26 1.2 1.2 0 0 0 .4.07 1.18 1.18 0 0 0 .73-.25 1.1 1.1 0 0 0 .42-.66.9.9 0 0 0 0-.28 1.3 1.3 0 0 0-.01-.28m-1.42 1a.79.79 0 0 1 0-1.48.9.9 0 0 1 .27 0 .83.83 0 0 1 .48.16.87.87 0 0 1 .31.44 1 1 0 0 1 0 .17V115a.5.5 0 0 1 0 .17.87.87 0 0 1-.31.44.8.8 0 0 1-.79.14Zm7.78-.95a1.1 1.1 0 0 0-.4-.66 1.15 1.15 0 0 0-1.13-.2 1.2 1.2 0 0 0 0 2.26 1.2 1.2 0 0 0 .4.07 1.18 1.18 0 0 0 .73-.25 1.1 1.1 0 0 0 .42-.66.9.9 0 0 0 0-.28.8.8 0 0 0-.02-.28m-1.41 1a.8.8 0 0 1-.5-.75.78.78 0 0 1 .52-.73.9.9 0 0 1 .27 0 .83.83 0 0 1 .48.16.82.82 0 0 1 .34.61.5.5 0 0 1 0 .17.83.83 0 0 1-.31.44.8.8 0 0 1-.75.11ZM272.52 332.05c0 1.41-1 2.27-2.72 2.27H268v2.1h-.71v-6.66h2.49c1.72 0 2.75.86 2.74 2.29m-.7 0c0-1.07-.7-1.68-2-1.68H268v3.33h1.77c1.35 0 2.05-.61 2.05-1.65m6.69-.63v5h-.64v-.91a2 2 0 0 1-1.8 1 1.94 1.94 0 0 1-2.11-2.15v-2.9h.68v2.83a1.39 1.39 0 0 0 1.5 1.61 1.63 1.63 0 0 0 1.7-1.82v-2.62Zm4.41-.03v.61h-.16a1.62 1.62 0 0 0-1.69 1.85v2.54h-.67v-5h.65v1a1.91 1.91 0 0 1 1.87-1m.66 2.53a2.46 2.46 0 0 1 2.58-2.53 2.18 2.18 0 0 1 2 1l-.51.34a1.7 1.7 0 0 0-1.45-.74 1.95 1.95 0 0 0 0 3.89 1.66 1.66 0 0 0 1.45-.73l.51.35a2.22 2.22 0 0 1-2 1 2.47 2.47 0 0 1-2.58-2.58m10.42-.39v2.9h-.67v-2.83a1.4 1.4 0 0 0-1.5-1.6 1.64 1.64 0 0 0-1.75 1.8v2.63h-.68v-7.06h.6v2.93a2.11 2.11 0 0 1 1.87-.91 1.92 1.92 0 0 1 2.13 2.14m5.58-.2v3.1h-.64v-.78a1.88 1.88 0 0 1-1.72.83c-1.13 0-1.83-.59-1.83-1.46s.5-1.41 1.93-1.41h1.59v-.31c0-.85-.48-1.32-1.42-1.32a2.56 2.56 0 0 0-1.66.59l-.3-.5a3.14 3.14 0 0 1 2-.68 1.78 1.78 0 0 1 2.05 1.94m-.68 1.6v-.82h-1.57c-1 0-1.28.38-1.28.9s.46.94 1.26.94a1.6 1.6 0 0 0 1.59-1.02m1.82.93.3-.53a3 3 0 0 0 1.78.56c.95 0 1.34-.32 1.34-.81 0-1.31-3.24-.28-3.24-2.26 0-.82.7-1.42 2-1.42a3.4 3.4 0 0 1 1.76.46l-.29.55a2.52 2.52 0 0 0-1.47-.43c-.91 0-1.31.35-1.31.82 0 1.35 3.24.34 3.24 2.26 0 .86-.76 1.42-2.06 1.42a3.25 3.25 0 0 1-2.05-.62m9.69-1.71h-4.18a1.86 1.86 0 0 0 2 1.74 2 2 0 0 0 1.53-.66l.38.44a2.64 2.64 0 0 1-4.55-1.73 2.43 2.43 0 1 1 4.86 0c-.03.06-.04.13-.04.21m-4.18-.51h3.55a1.78 1.78 0 0 0-3.55 0m15.4-2.2-1.89 5h-.64l-1.57-4.1-1.58 4.1h-.64l-1.88-5h.65l1.56 4.25 1.61-4.25h.58l1.6 4.25 1.59-4.25Zm4.64 1.91v3.1h-.64v-.78a1.89 1.89 0 0 1-1.72.82c-1.14 0-1.83-.59-1.83-1.45s.5-1.42 1.93-1.42h1.59v-.3c0-.86-.48-1.32-1.42-1.32a2.5 2.5 0 0 0-1.66.59l-.3-.51a3.14 3.14 0 0 1 2-.67 1.77 1.77 0 0 1 2.05 1.94m-.67 1.59v-.81H324c-1 0-1.28.38-1.28.89s.46.94 1.26.94a1.6 1.6 0 0 0 1.62-1.02m1.81.94.31-.53a3 3 0 0 0 1.78.56c.95 0 1.34-.33 1.34-.82 0-1.3-3.24-.28-3.24-2.25 0-.82.7-1.43 2-1.43a3.34 3.34 0 0 1 1.76.47l-.29.54a2.53 2.53 0 0 0-1.48-.43c-.9 0-1.3.35-1.3.83 0 1.35 3.24.33 3.24 2.25 0 .87-.76 1.43-2.06 1.43a3.37 3.37 0 0 1-2.06-.62m7.15 0 .3-.53a3.06 3.06 0 0 0 1.78.56c.95 0 1.34-.32 1.34-.82 0-1.3-3.24-.27-3.24-2.25 0-.82.7-1.43 2-1.43a3.4 3.4 0 0 1 1.76.47l-.29.54a2.6 2.6 0 0 0-1.47-.43c-.91 0-1.31.36-1.31.83 0 1.35 3.25.33 3.24 2.26 0 .86-.76 1.42-2.06 1.42a3.33 3.33 0 0 1-2.05-.62m9.85-4.42v5h-.65v-.92a2 2 0 0 1-1.8 1 1.94 1.94 0 0 1-2.11-2.15v-2.9h.68v2.84a1.4 1.4 0 0 0 1.5 1.6 1.62 1.62 0 0 0 1.7-1.81v-2.62Zm1.39 2.54a2.46 2.46 0 0 1 2.57-2.54 2.18 2.18 0 0 1 2 1l-.5.34a1.73 1.73 0 0 0-1.46-.74 2 2 0 0 0 0 3.9 1.72 1.72 0 0 0 1.46-.73l.5.34a2.22 2.22 0 0 1-2 1 2.46 2.46 0 0 1-2.57-2.57m5.26 0a2.47 2.47 0 0 1 2.58-2.54 2.2 2.2 0 0 1 2 1l-.51.35a1.68 1.68 0 0 0-1.45-.75 2 2 0 0 0 0 3.9 1.69 1.69 0 0 0 1.45-.73l.51.34a2.21 2.21 0 0 1-2 1 2.48 2.48 0 0 1-2.58-2.57m10.13.17H357a1.84 1.84 0 0 0 2 1.74 2 2 0 0 0 1.53-.65l.38.44a2.65 2.65 0 0 1-4.55-1.74 2.41 2.41 0 0 1 2.45-2.53 2.38 2.38 0 0 1 2.39 2.57s-.01.1-.01.17m-4.18-.5h3.54a1.77 1.77 0 0 0-3.54 0m4.87 2.23.31-.54a3 3 0 0 0 1.77.57c1 0 1.34-.33 1.34-.82 0-1.3-3.24-.28-3.24-2.26 0-.81.71-1.42 2-1.42a3.35 3.35 0 0 1 1.77.47l-.29.54A2.53 2.53 0 0 0 364 332c-.9 0-1.3.35-1.3.82 0 1.36 3.24.34 3.24 2.26 0 .86-.76 1.43-2.06 1.42a3.37 3.37 0 0 1-2-.6m4.65 0 .31-.53a3 3 0 0 0 1.77.56c.95 0 1.34-.33 1.34-.82 0-1.3-3.24-.28-3.24-2.25 0-.82.71-1.43 2-1.43a3.35 3.35 0 0 1 1.77.47l-.29.54a2.63 2.63 0 0 0-1.48-.43c-.9 0-1.3.35-1.3.83 0 1.35 3.24.33 3.24 2.25 0 .87-.76 1.43-2.06 1.43a3.37 3.37 0 0 1-2.06-.62m6.12-5.02v.59h1.54v.53h-1.52v4.43H372V332h-.89v-.57h.89v-.62a1.38 1.38 0 0 1 1.51-1.48 1.56 1.56 0 0 1 1 .32l-.23.5a1.14 1.14 0 0 0-.74-.25c-.54.04-.89.36-.89.98m6.96.6v5H379v-.92a2 2 0 0 1-1.8 1 1.94 1.94 0 0 1-2.11-2.15v-2.9h.68v2.84a1.4 1.4 0 0 0 1.5 1.6 1.62 1.62 0 0 0 1.7-1.81v-2.62Zm1.89-2.06h.68v7.06h-.67Z" style="fill:#263238"/><path d="M283.2 313.32h-3.58v-1.7h9.18v1.7h-3.59v9.12h-2Zm15.06 4.39v4.73h-1.93V318c0-1.47-.73-2.18-2-2.18a2.19 2.19 0 0 0-2.3 2.48v4.18h-1.93V311h1.93v4.17a3.68 3.68 0 0 1 2.75-1.05c2.01-.03 3.48 1.1 3.48 3.59m9.37-.11v4.84h-1.83v-1a2.9 2.9 0 0 1-2.59 1.12c-1.89 0-3.08-1-3.08-2.48s.93-2.45 3.43-2.45h2.14v-.13c0-1.13-.68-1.79-2.06-1.79a4.05 4.05 0 0 0-2.5.82l-.76-1.41a5.8 5.8 0 0 1 3.49-1c2.38-.03 3.76 1.1 3.76 3.48m-1.93 2.26v-1h-2c-1.31 0-1.67.49-1.67 1.1s.59 1.14 1.58 1.14a2.11 2.11 0 0 0 2.09-1.24m12.53-2.15v4.73h-1.93V318c0-1.47-.73-2.18-2-2.18a2.19 2.19 0 0 0-2.31 2.48v4.18h-1.89v-8.26h1.84v1.07a3.58 3.58 0 0 1 2.85-1.16c1.98-.04 3.44 1.09 3.44 3.58m5.83 1.19-1.44 1.36v2.18h-1.93V311h1.93v6.92l4-3.71H329l-3.45 3.47 3.77 4.79h-2.35Zm18.46-4.72-3.87 8.92c-.75 1.88-1.8 2.45-3.18 2.45a3.4 3.4 0 0 1-2.21-.76l.77-1.42a2.12 2.12 0 0 0 1.42.57c.68 0 1.09-.33 1.46-1.14l.14-.33-3.61-8.29h2l2.6 6.11 2.61-6.11Zm.29 4.13a4.4 4.4 0 1 1 4.39 4.24 4.16 4.16 0 0 1-4.39-4.24m6.85 0a2.45 2.45 0 1 0-2.46 2.58 2.4 2.4 0 0 0 2.46-2.58m11.8-4.13v8.26h-1.84v-1.05a3.38 3.38 0 0 1-2.66 1.16c-2.12 0-3.56-1.16-3.56-3.65v-4.72h1.93v4.46c0 1.5.72 2.21 1.94 2.21a2.18 2.18 0 0 0 2.25-2.49v-4.18Zm2.18 7.16a1.2 1.2 0 0 1 1.25-1.19 1.2 1.2 0 1 1 0 2.4 1.2 1.2 0 0 1-1.25-1.21m.1-9.72H366l-.38 7.23h-1.54Z" style="fill:#409e8d"/><path d="m350.37 149.6-2.92 41.4a12.89 12.89 0 0 1-12.86 12 12.89 12.89 0 0 1-12.87-13.74c.26-3.94.49-7.16.49-7.16s-10-1.56-10.14-11.57c-.07-5.78.93-18.9 1.79-29a13.12 13.12 0 0 1 13.08-12H333a18.53 18.53 0 0 1 17.37 20.07" style="fill:#ffbe9d"/><path d="M322.21 182.05a24.2 24.2 0 0 0 13-3.85s-3.21 7.28-13.21 6.38Z" style="fill:#eb996e"/><path d="M315.73 151.09c.18.18 1.27-.62 2.8-.61s2.67.77 2.84.58-.1-.42-.59-.78a4 4 0 0 0-2.27-.7 3.8 3.8 0 0 0-2.23.72c-.47.37-.63.7-.55.79m13.72 4.27a1.43 1.43 0 0 0 1.38 1.44 1.38 1.38 0 0 0 1.47-1.29 1.42 1.42 0 0 0-1.38-1.44 1.36 1.36 0 0 0-1.47 1.29m-13.74 0a1.43 1.43 0 0 0 1.38 1.44 1.38 1.38 0 0 0 1.48-1.29 1.43 1.43 0 0 0-1.38-1.44 1.37 1.37 0 0 0-1.48 1.29m14.88-4.07c.18.19 1.27-.61 2.8-.61s2.67.78 2.84.59-.1-.42-.6-.78a3.9 3.9 0 0 0-2.26-.7 3.8 3.8 0 0 0-2.23.72c-.47.36-.63.7-.55.78m-5.47 11.97a10.2 10.2 0 0 0-2.5-.45c-.39 0-.76-.12-.83-.39a2 2 0 0 1 .26-1.16l1.17-3c1.61-4.26 2.78-7.76 2.6-7.83s-1.62 3.34-3.23 7.6q-.585 1.575-1.11 3a2.27 2.27 0 0 0-.21 1.54 1 1 0 0 0 .65.58 3 3 0 0 0 .67.09 10 10 0 0 0 2.53.02m4.53 1.07c-.25 0-.25 1.65-1.68 2.84s-3.21 1-3.22 1.23.39.33 1.14.35a4.16 4.16 0 0 0 2.69-.94 3.67 3.67 0 0 0 1.31-2.38c.11-.7-.13-1.11-.24-1.1m1.04-18.61c.15.41 1.69.22 3.49.43s3.27.71 3.51.34c.1-.18-.15-.58-.74-1a5.86 5.86 0 0 0-2.6-.91 5.8 5.8 0 0 0-2.73.32c-.62.29-1 .62-.93.82m-15.19.72c.27.35 1.33 0 2.6 0s2.36.24 2.6-.13c.11-.18-.06-.53-.53-.86a3.77 3.77 0 0 0-4.19.13c-.45.33-.6.69-.48.86" style="fill:#263238"/><path d="M347 157.12c.17-.08 6.88-2 6.66 4.81s-7.05 5.21-7.05 5 .39-9.81.39-9.81" style="fill:#ffbe9d"/><path d="M348.78 164.42s.12.08.31.18a1.18 1.18 0 0 0 .89.05 2.92 2.92 0 0 0 1.45-2.6 4 4 0 0 0-.27-1.72 1.41 1.41 0 0 0-.87-1 .62.62 0 0 0-.72.31c-.09.19-.05.32-.09.33s-.14-.11-.08-.4a.8.8 0 0 1 .28-.42 1 1 0 0 1 .67-.15 1.7 1.7 0 0 1 1.21 1.1 4.1 4.1 0 0 1 .35 1.92c-.09 1.38-.83 2.65-1.83 2.9a1.28 1.28 0 0 1-1.09-.21c-.2-.13-.23-.28-.21-.29" style="fill:#eb996e"/><path d="M350.8 156.88a3.59 3.59 0 0 0-3.29 1.69c-.45 1-.54 2.09-1 3.06a2.41 2.41 0 0 1-2.49 1.62 2.12 2.12 0 0 1-1.43-1.56 5.9 5.9 0 0 1 0-2.21c.41-3.2 1.08-6.37 1.21-9.59a16.4 16.4 0 0 0-2-9.3c-1.69-2.74-4.8-4.76-8-4.5-2.13.17-4.08 1.28-6.19 1.57a8.35 8.35 0 0 1-6.95-2.32c-.23-.22-1.3-.93-1.3-.93a4 4 0 0 1 .72-2.12c4.2-3.87 11.75-5 17.29-3.56a19.94 19.94 0 0 1 13.11 10.49c2.38 5.19 1.68 12.41.36 17.66" style="fill:#263238"/><path d="M312.76 139.72a6.55 6.55 0 0 0 5.44 3.52 18 18 0 0 0 6.68-1 53.5 53.5 0 0 1 10.29-1.52c.34 0 .74 0 .92-.28s-.14-.84-.49-1.11c-3-2.34-10.2-3.78-14-3.93a11.12 11.12 0 0 0-9.81 4.65" style="fill:#263238"/><path d="M313.74 140a12.85 12.85 0 0 1 7.46-3.37c8.66-.74 22.86 1.92 30.31 16.83a34 34 0 0 0 1.56-7.92c0-2-1.22-14.16-13.69-18 0 0-18.8-7.17-25.64 12.46" style="fill:#409e8d"/><path d="M313.74 140a12.2 12.2 0 0 1 8.36-3.79c7.74-.35 22.39 3.2 29.41 17.25a34 34 0 0 0 1.56-7.92c0-2-1.22-14.16-13.69-18 0 0-18.8-7.17-25.64 12.46" style="opacity:.4"/><path d="M350.35 151.32C346.61 145 341 140.71 335 136.94s-16-7.51-22.9-9.33a15 15 0 0 0-6.32-.67 5.71 5.71 0 0 0-4.69 3.84c-.66 2.6 3.95 6.6 6.11 8.17a70 70 0 0 0 6.57 3.89s-.06-4.83 7.65-5.81c10.47-1.32 29.24 14.56 28.93 14.29" style="fill:#409e8d"/><path d="M336.36 132.53a27.6 27.6 0 0 0-14.5-3.52 6.8 6.8 0 0 1 2.22-.31 20.14 20.14 0 0 1 10.45 2.54 6.9 6.9 0 0 1 1.83 1.29" style="fill:#fff"/><path d="M388.05 295.68c0 .14-25.6.26-57.18.26s-57.18-.12-57.18-.26 25.6-.26 57.18-.26 57.18.12 57.18.26" style="fill:#263238"/><path d="m282 213.86-14.72 6.65-22.84-18.62-7 11s13 15.05 17.83 20.17 8 7.84 11.83 7.35 25.49-10.71 25.49-10.71-5.12-15.2-10.59-15.84" style="fill:#ffbe9d"/><path d="M219.37 192.5s2.87 2.16 4.75 2 9-.17 9.51-.13 7.46 3.81 7.46 3.81l5.08 4.88-8 11.08s-1.31-1.51-2.21-1.4-11.85-.82-13.5-1.38-3.76-.89-4.31-1.9-.67-1.74.84-3c0 0-2-1.57-.56-3.51 0 0-2.28-1.67-1.46-3.21 0 0-1.29-.53-1.5-1.35a8.8 8.8 0 0 1 .09-2.57l3.27-1s-.96-1.18.54-2.32" style="fill:#ffbe9d"/><path d="M218.09 195s.15-.06.42-.14a5.3 5.3 0 0 1 1.22-.25 3 3 0 0 1 1.78.69 2.07 2.07 0 0 1 .68 2.25 1.58 1.58 0 0 1-.89.95 5 5 0 0 1-1.07.31l-1.76.36a5.1 5.1 0 0 1-1.65.21 5.5 5.5 0 0 1 1.57-.56l1.73-.48c.66-.16 1.38-.31 1.58-1a1.64 1.64 0 0 0-.51-1.72 2.83 2.83 0 0 0-1.47-.68 7.4 7.4 0 0 0-1.17.08c-.3.07-.46.03-.46-.02m4.1 2.89s.26-.12.76-.22a12 12 0 0 1 2.16-.24 5.6 5.6 0 0 1 3.16.81 2.75 2.75 0 0 1 1.19 1.64 1.88 1.88 0 0 1-.82 2 5 5 0 0 1-2.07.42l-1.88.15-3.17.22a16.6 16.6 0 0 1-2.94.07 16 16 0 0 1 2.91-.44l3.16-.33 1.88-.18a5 5 0 0 0 1.85-.36A1.37 1.37 0 0 0 229 200a2.25 2.25 0 0 0-1-1.34 5.43 5.43 0 0 0-2.9-.84c-1.78-.05-2.9.18-2.91.07m6.81 4s.2 0 .41.31a1.6 1.6 0 0 1 .19 1.42 2.43 2.43 0 0 1-1.54 1.44 8.4 8.4 0 0 1-2.48.33c-3.45.16-6.18.83-6.22.68a17.4 17.4 0 0 1 6.19-1.2 9.2 9.2 0 0 0 2.35-.26 2.18 2.18 0 0 0 1.36-1.12 1.5 1.5 0 0 0 0-1.18c-.2-.31-.34-.38-.26-.42m11.29 1.93a3.4 3.4 0 0 1-1.44.56 10.7 10.7 0 0 1-3.74.17 10.6 10.6 0 0 1-3.56-1.15c-.84-.46-1.28-.87-1.24-.92a14.7 14.7 0 0 0 10 1.34Z" style="fill:#eb996e"/><path d="M228.89 198.71c.07-.13.78.12 1.66 0s1.52-.49 1.61-.37-.5.78-1.55.89-1.8-.41-1.72-.52m-.78 10.93a4 4 0 0 1 1.51-2.76 4.12 4.12 0 0 1 2.85-1.32 23 23 0 0 0-2.49 1.7 21.5 21.5 0 0 0-1.87 2.38" style="fill:#eb996e"/><path style="fill:#409e8d" d="M204.39 238.4h43.43l8.06 63.52H195.9zm43.43 0h5.03l14.82 63.52h-11.79z"/><path style="opacity:.30000000000000004" d="M247.82 238.4h5.03l14.82 63.52h-11.79z"/><path d="M223.56 205.37s.13-.07.35 0a1.3 1.3 0 0 1 .76.59 1.61 1.61 0 0 1 .14 1.44 2.42 2.42 0 0 1-1.18 1.29 4.9 4.9 0 0 1-2.2.43l.19-.13c-.57 1.09-1.25 1.58-1.3 1.51s.45-.65.9-1.7l.05-.11h.14a5.3 5.3 0 0 0 2-.46 2 2 0 0 0 1-1 1.29 1.29 0 0 0 0-1.09c-.35-.64-.87-.69-.85-.77" style="fill:#eb996e"/><path d="M215.42 241.17a6.5 6.5 0 0 1 .1-1.29c.09-.82.26-2 .5-3.48.47-2.93 1.27-7 2.2-11.38s1.79-8.43 2.36-11.34c.26-1.38.49-2.53.66-3.45a6 6 0 0 1 .3-1.26 6.5 6.5 0 0 1-.1 1.29c-.09.83-.26 2-.5 3.48-.47 2.93-1.27 7-2.21 11.39s-1.78 8.43-2.35 11.34c-.26 1.37-.49 2.53-.66 3.44a5.7 5.7 0 0 1-.3 1.26m22.93.64a10 10 0 0 1-.48-1.46c-.29-1-.67-2.4-1.12-4-.93-3.41-2.17-8.13-3.52-13.35s-2.53-10-3.37-13.4c-.38-1.65-.71-3-1-4.07a8.4 8.4 0 0 1-.28-1.51 10 10 0 0 1 .48 1.46c.29 1 .67 2.4 1.12 4 .93 3.41 2.17 8.13 3.52 13.36s2.53 9.95 3.36 13.38l1 4.08a8.4 8.4 0 0 1 .29 1.51" style="fill:#409e8d"/><path d="M267.67 301.92a11 11 0 0 1-2.09-1.46c-1.25-.95-3-2.3-4.82-3.81l-.94-.77.38-.06c-1.17 1.76-2.22 3.31-3 4.4a9.2 9.2 0 0 1-1.32 1.7 10.4 10.4 0 0 1 1-1.89c.69-1.14 1.69-2.72 2.85-4.49l.15-.24.23.18.94.76c1.86 1.52 3.53 2.91 4.72 3.94a13 13 0 0 1 1.9 1.74" style="fill:#263238"/><path d="M250.46 238.4c.14 0 2.39 12.78 5 28.6s4.65 28.66 4.5 28.68-2.39-12.78-5-28.6-4.64-28.66-4.5-28.68" style="fill:#263238"/><path d="M250.36 256.43a12 12 0 0 1-1 1 18 18 0 0 1-3.31 2.26 19.8 19.8 0 0 1-6 2.06 17.85 17.85 0 0 1-8.36-.49 10.2 10.2 0 0 1-4.2-2.56 7.9 7.9 0 0 1-2.29-4.8 6.24 6.24 0 0 1 2.17-5.23 4.9 4.9 0 0 1 2.81-1.17 5.8 5.8 0 0 1 3.07.64 7.3 7.3 0 0 1 2.45 2 8.2 8.2 0 0 1 1.41 3 14.56 14.56 0 0 1 0 6.63 22.45 22.45 0 0 1-6.82 12 20.4 20.4 0 0 1-6 3.82 14.7 14.7 0 0 1-6.77 1.16 11.55 11.55 0 0 1-6.19-2.4 8.72 8.72 0 0 1-3.3-5.4 8.17 8.17 0 0 1 1.16-5.92 5.6 5.6 0 0 1 4.95-2.67 3.6 3.6 0 0 1 2.45 1.32 5.34 5.34 0 0 1 1.11 2.32 8.7 8.7 0 0 1-.57 4.89 13.07 13.07 0 0 1-5.57 6.2 19.8 19.8 0 0 1-6 2.16 31 31 0 0 1-4 .5c-.45 0-.8.05-1 .05h-.35.35l1-.1a35 35 0 0 0 3.95-.6 19.7 19.7 0 0 0 5.85-2.21 12.78 12.78 0 0 0 5.38-6.09 8.36 8.36 0 0 0 .52-4.67 5.1 5.1 0 0 0-1-2.23 3.2 3.2 0 0 0-2.17-1.16 5.13 5.13 0 0 0-4.52 2.5 7.7 7.7 0 0 0-1.08 5.58 8.2 8.2 0 0 0 3.14 5.09 11.1 11.1 0 0 0 5.92 2.28c4.41.34 8.9-1.73 12.33-4.86a21.94 21.94 0 0 0 6.67-11.67 14 14 0 0 0 0-6.4 7.7 7.7 0 0 0-1.3-2.78 6.9 6.9 0 0 0-2.29-1.92 5.35 5.35 0 0 0-2.81-.59 4.5 4.5 0 0 0-2.56 1 5.78 5.78 0 0 0-2 4.84 7.5 7.5 0 0 0 2.15 4.56 9.8 9.8 0 0 0 4 2.49 17.6 17.6 0 0 0 8.2.55 20.3 20.3 0 0 0 5.95-1.95 19.4 19.4 0 0 0 3.34-2.16c.36-.27.61-.51.8-.66a1.2 1.2 0 0 1 .33-.21" style="fill:#fff"/><path d="M311.83 194.4H304c-2.52.89-22.85 18.18-22.85 18.18l11.49 18.06 14.9-8.71Z" style="fill:#455a64"/><path d="m304 194.4 17.3-6.57s2.53 5.31 10.23 4.17 16.79-6.56 16.79-6.56 13.26 7.57 17.18 10.73-3.16 69.32-3.16 69.32l-1.77 19.83s1.39 1 1.39 4.42.13 5.68.13 5.68h-68.54s-1.67-7.95-.41-11.11a40.4 40.4 0 0 1 3.35-6.31l1.07-30.56.38-27.28Z" style="fill:#455a64"/><path d="M365.5 196.17s5.53 1.56 7.17 9.76 1.33 39.52 1.33 39.52l-30.88-6.69s4.18-13.14 4.18-14 8.5-22.07 8.8-22.52 9.4-6.07 9.4-6.07" style="fill:#455a64"/><path d="M297.42 207.28c.14 0 .34 5.47.44 12.23s.06 12.23-.08 12.23-.34-5.47-.44-12.22-.07-12.24.08-12.24m53.76 2.94a4.2 4.2 0 0 1-.12 1.08c-.1.7-.28 1.7-.52 2.93-.49 2.46-1.24 5.85-2.22 9.55s-2 7-2.77 9.41c-.4 1.19-.73 2.15-1 2.81a4 4 0 0 1-.44 1 5 5 0 0 1 .25-1.06c.22-.79.49-1.74.82-2.86.7-2.4 1.65-5.73 2.62-9.43s1.78-7.06 2.36-9.5l.69-2.89a3.7 3.7 0 0 1 .33-1.04m-2.9-.67a39 39 0 0 1-.07 6.31 40 40 0 0 1-.59 6.27 36.5 36.5 0 0 1 .07-6.3 39 39 0 0 1 .59-6.28" style="fill:#263238"/><path d="M340.58 219.9a85 85 0 0 1-13.26 0 41.6 41.6 0 0 1 6.63-.26 41.6 41.6 0 0 1 6.63.26" style="fill:#fff"/><path d="m305.19 264.86 34.17-4.11 5.39-21.64 19.11 4.14s-7.56 30-15.35 32.94-46.34-2-46.34-2Z" style="fill:#ffbe9d"/><path d="M303.8 264.61a41 41 0 0 0-5.7-1.93c-1.58-.23-3.45.12-3.92.88l-9.18 5.35s-6.81-.65-7.46.88c0 0-4.35-1.24-5.05-.36 0 0-2.18.71-1.82 1.71s8.22 3.76 8.22 3.76l10.77 1.1s4.11-2.23 5.81-2.41a29.4 29.4 0 0 1 4.9.39c-.14 0 6.3.73 6.3.73s1.31-1.41 1.84-5.29 0-4.69 0-4.69Z" style="fill:#ffbe9d"/><path d="M299.23 269.54s-.29 0-.67-.26-.71-.91-1.31-1.32a3.5 3.5 0 0 0-1.18-.36 2.7 2.7 0 0 1-1.47-.65 2.62 2.62 0 0 1-.8-1.62 2.3 2.3 0 0 1 .58-1.86 3.74 3.74 0 0 1 3.43-.94 6 6 0 0 1 2.58 1.32 12.5 12.5 0 0 1 1.37 1.36c.29.34.43.54.41.57s-.75-.68-2-1.64a6.1 6.1 0 0 0-2.45-1.14 3.33 3.33 0 0 0-3 .83 2.08 2.08 0 0 0 .17 2.78c.65.68 1.78.49 2.53 1s.91 1.19 1.24 1.48.59.41.57.45m-5.7-1.78c0 .08-.52.05-1.25.38a19 19 0 0 1-2.95 1.4 8.5 8.5 0 0 1-3.29-.26 11 11 0 0 1-1.32-.19 2.17 2.17 0 0 1 1.36-.17 11.7 11.7 0 0 0 3.13.11c1.14-.29 2.11-1 3-1.23s1.34-.1 1.32-.04m.23 4.3a2.2 2.2 0 0 1-.63.4 9 9 0 0 1-1.89.73 18.6 18.6 0 0 1-6.64.38c-1.28-.16-2.5-.36-3.61-.52a11.2 11.2 0 0 1-2.95-.66 1.87 1.87 0 0 1-.88-.85 1.54 1.54 0 0 1-.13-.91c.11-.53.44-.65.44-.62s-.21.2-.24.64a1.46 1.46 0 0 0 1 1.41 13 13 0 0 0 2.86.51l3.59.48a20.9 20.9 0 0 0 6.5-.22c1.61-.36 2.54-.83 2.58-.77m51.24-2.57a38 38 0 0 0-2.22-4.27 39 39 0 0 0-3.14-3.65 9.13 9.13 0 0 1 3.57 3.36 9 9 0 0 1 1.79 4.56" style="fill:#eb996e"/><path style="fill:#ffbe9d" d="m90.21 387.58-1.31 66.76 16.17 1.73 11.11-67.97-8.73-10.98z"/><path d="M107.05 452.77v1.09s18.4 7.64 18.55 11.14l-36.69-.61v-12.22a22.62 22.62 0 0 0 18.14.6" style="fill:#409e8d"/><path d="m88.9 464.39.17-2.93 35.11 1.66s1.62.74 1.41 1.88Zm-5.37-280.77c-.27-3.08-2.11-6.19-5-7.12l-3.39 1.94a8.15 8.15 0 0 0-4.08 9.9 9.65 9.65 0 0 0-3.09 13.24c-2.2 1-3.14 3.7-3.1 6.12s.82 4.77 1 7.18c.17 1.86 0 3.75.34 5.59a5.72 5.72 0 0 0 3.08 4.41 5 5 0 0 0 5.32-1.52 10.37 10.37 0 0 0 2.23-5.36c.91-5.59-.28-11.42 1.13-16.91a55 55 0 0 1 3.53-8.54c1.25-2.82 2.29-5.86 2.03-8.93" style="fill:#263238"/><path d="M81.9 183.22a10.78 10.78 0 0 1-9-16.59 2.77 2.77 0 0 1 1.23-1.19c1.13-.45 2.32.47 3.19 1.33l6.33 6.16" style="fill:#263238"/><path d="M82.08 175.32c-4.75-2.25-8.49-7.58-9.87-12.65s.21-15.34 1.57-20.41c1.67-6.18 4.24 1.77 6.34 2.42a4.08 4.08 0 0 1 2.5 2.82 12 12 0 0 1 .29 3.91q-.42 12-.83 23.91m12.15-50.38c7.94-4.27 14.32-1.75 17.42.67s5 6.12 6.11 9.89 1.63 7.69 2.55 11.52a47 47 0 0 1 1.23 6.7c.45 3.27.3 9.12-1.37 12a19.6 19.6 0 0 1-6 6.92c-1 .63-2.09 1.29-3.18.94a3.83 3.83 0 0 1-1.8-1.65 153.3 153.3 0 0 1-20.09-40.16" style="fill:#263238"/><path d="m85.38 134.12 13.76-5.55 3.61.4c8.1 0 13.73 8.9 13.82 15.47.09 7.29-.08 16.2-1.21 21.58-2.28 10.82-10.71 11.79-10.71 11.79s.1 2.95.18 6.58a11.44 11.44 0 0 1-11.68 11.72 11.44 11.44 0 0 1-11.22-11.41l-.18-46.87a3.84 3.84 0 0 1 3.63-3.71" style="fill:#ffbe9d"/><path d="M113.06 151.66a1.4 1.4 0 0 1-1.42 1.34 1.34 1.34 0 0 1-1.38-1.33 1.41 1.41 0 0 1 1.42-1.35 1.35 1.35 0 0 1 1.38 1.34m.63-3.5c-.18.17-1.2-.66-2.7-.73s-2.65.62-2.81.43.12-.41.62-.73a3.82 3.82 0 0 1 2.25-.58 3.74 3.74 0 0 1 2.15.82c.44.38.58.71.49.79m-9.19 11.78a10.5 10.5 0 0 1 2.47-.32c.38 0 .75-.07.83-.33a2.05 2.05 0 0 0-.2-1.16c-.31-.94-.64-1.94-1-3-1.37-4.25-2.34-7.73-2.17-7.78s1.42 3.34 2.79 7.59c.33 1 .64 2 .94 3a2.2 2.2 0 0 1 .13 1.51 1 1 0 0 1-.66.54 2.6 2.6 0 0 1-.66.05 9.4 9.4 0 0 1-2.47-.1" style="fill:#263238"/><path d="M104.65 177.81a27.83 27.83 0 0 1-14.41-4.63s3.51 7.75 14.48 7.28Zm-1.11-14.61a2.73 2.73 0 0 0-2.43-1.28 2.16 2.16 0 0 0-1.76.84 1.92 1.92 0 0 0-.11 2.05 2 2 0 0 0 2.05.8 5 5 0 0 0 2-1.08 1.6 1.6 0 0 0 .45-.46 1.2 1.2 0 0 0-.2-.87" style="fill:#eb996e"/><path d="M100 160.76c.24 0 .17 1.63 1.51 2.86s3.08 1.14 3.09 1.37-.41.3-1.14.28a4.08 4.08 0 0 1-2.59-1.05 3.56 3.56 0 0 1-1.16-2.39c0-.69.2-1.08.29-1.07M113.48 144c-.28.33-1.3-.07-2.55-.15s-2.31.11-2.54-.26c-.1-.18.09-.51.56-.81a3.69 3.69 0 0 1 4.1.33c.43.32.55.68.43.89m-17.05 7.57a1.39 1.39 0 0 0 1.33 1.43 1.34 1.34 0 0 0 1.46-1.24 1.4 1.4 0 0 0-1.33-1.43 1.33 1.33 0 0 0-1.46 1.24M93.61 148c.17.19 1.24-.58 2.75-.56s2.6.79 2.76.61-.09-.41-.56-.77a3.77 3.77 0 0 0-2.22-.71 3.72 3.72 0 0 0-2.19.67c-.47.33-.63.66-.54.76m.65-4.79c.26.34 1.31 0 2.56 0s2.3.26 2.55-.1c.11-.17-.06-.51-.51-.84a3.5 3.5 0 0 0-2.07-.59 3.6 3.6 0 0 0-2.05.66c-.44.35-.59.66-.48.87m3.3-15.8c-3.49-1.41-8.82-.93-11.81 1.34a15.43 15.43 0 0 0-5.54 9.52c-.69 3.7.23 9.17 1.2 12.8 5.64-7.27 11.45-15.65 16.89-23.07Z" style="fill:#263238"/><path d="M100.22 124.11c19.12-2.7 17.35 26.21 17.35 26.21-1.91-10.65-16.73-21.79-16.73-21.79l-3-.51Z" style="fill:#263238"/><path d="M82.94 156.26c0-.81-.8-2.77-1.6-2.94-2.13-.44-6-.46-6.3 5-.43 7.43 7.12 6.32 7.15 6.11s.62-5.36.75-8.17" style="fill:#ffbe9d"/><path d="M81.07 161.46s-.14.09-.36.18a1.32 1.32 0 0 1-1 0 3.21 3.21 0 0 1-1.32-3 4.3 4.3 0 0 1 .47-1.83 1.51 1.51 0 0 1 1-.94.65.65 0 0 1 .74.4c.09.21 0 .36.07.37s.17-.11.13-.42a.9.9 0 0 0-.27-.49 1 1 0 0 0-.7-.23 1.82 1.82 0 0 0-1.42 1.08 4.34 4.34 0 0 0-.57 2c0 1.5.65 2.94 1.71 3.31a1.34 1.34 0 0 0 1.19-.13c.26-.12.35-.28.33-.3" style="fill:#eb996e"/><path d="M74.2 138.48a26.8 26.8 0 0 1 10.23-12.39 18.14 18.14 0 0 1 8-3.38 9.2 9.2 0 0 1 8 2.68l.53.54c-3.28 7.29-5.6 13.46-9.83 20.24-1.56 2.49-2.23 11-2.6 13.89-1.28 9.95-6.73 14.21-6.73 14.21-11.8.01-9.5-30.69-7.6-35.79" style="fill:#263238"/><path d="M80 173.1a3.25 3.25 0 0 1-1.47-.46 10.1 10.1 0 0 1-3-2.24 9.7 9.7 0 0 1-2-3.16 3.3 3.3 0 0 1-.33-1.5 19.4 19.4 0 0 0 2.66 4.31A19 19 0 0 0 80 173.1m-1.45 9.68a5.71 5.71 0 0 1-5-3.77 31 31 0 0 0 2.26 2.22 27 27 0 0 0 2.74 1.55m-4.97 9.13c-.11.09-.79-.66-1.52-1.67s-1.21-1.9-1.09-2 .79.66 1.52 1.67 1.21 1.92 1.09 2m-3.83 11.26c-.11.09-.63-.33-1.17-.95s-.89-1.19-.78-1.29.63.33 1.17.95.89 1.19.78 1.29M72 155.31a11 11 0 0 1 1.41-.82c.46-.25 1-.55 1.65-1s1.38-.79 2.14-1.33a51 51 0 0 0 5.24-3.93 50.6 50.6 0 0 0 10.36-12.17 52 52 0 0 0 3.05-5.8c.41-.84.69-1.63 1-2.32s.5-1.29.67-1.79a10 10 0 0 1 .59-1.52 10.4 10.4 0 0 1-.4 1.59 19 19 0 0 1-.59 1.82c-.25.7-.51 1.51-.9 2.37a47 47 0 0 1-3 5.9 53 53 0 0 1-4.71 6.58 52 52 0 0 1-5.75 5.71 48 48 0 0 1-5.35 3.87c-.78.52-1.54.91-2.19 1.28s-1.23.65-1.71.87a10 10 0 0 1-1.51.69m18.41-8.91s-.17.28-.54.71-1 1-1.7 1.74A36.4 36.4 0 0 1 74.45 157a24 24 0 0 1-2.34.65 3.4 3.4 0 0 1-.88.14 31 31 0 0 1 3.1-1.13 46 46 0 0 0 7.16-3.4 45.6 45.6 0 0 0 6.44-4.63c1.53-1.39 2.42-2.29 2.48-2.23m27.75 9.5a13 13 0 0 1 .31-1.63 27 27 0 0 0 .49-4.46 25.92 25.92 0 0 0-14.18-24.14 27 27 0 0 0-4.14-1.74 14 14 0 0 1-1.57-.53s.15 0 .43.06.68.12 1.2.27a23.4 23.4 0 0 1 4.24 1.61 25.55 25.55 0 0 1 14.39 24.48 23.4 23.4 0 0 1-.66 4.49c-.12.52-.27.92-.35 1.19a1.5 1.5 0 0 1-.16.4" style="fill:#455a64"/><path d="M206.78 223.5a2.39 2.39 0 0 0-.33 2.32 3.77 3.77 0 0 0 1.48 1.51 13 13 0 0 0 2.46-3.52m-7.95-1.58a2.41 2.41 0 0 0-.9 2.17 3.7 3.7 0 0 0 1.06 1.83 13.2 13.2 0 0 0 3.26-2.79" style="fill:#eb996e"/><path d="M103.82 189.26s32.89 25.88 38.82 26.73 33.67-2.52 45.06-2.87l1.61 9.55s-31.43 10.67-42.86 11.09-18-2.66-18-2.66l-21.37-21.89Z" style="fill:#ffbe9d"/><path d="M187 213.22s14.69-2.1 17-.95 8.84 6.68 8.84 6.68 2.19 6.15.81 6.44-2.8-2-2.8-2l-1.91-3.39-8.21-2-13.61 1.21Z" style="fill:#ffbe9d"/><path d="M189.31 222.67c.21.26 5.46 2.79 8.13 2.72s5.72-2.16 8-1.84 7.06.69 7.64-.14a1.81 1.81 0 0 0 0-2.52c-.78-.74-4.63-1.47-7.41-2.22a11.1 11.1 0 0 1-4.12-1.89l-16.17 1.78-.92 5Z" style="fill:#ffbe9d"/><path d="M196.3 216.61a3.2 3.2 0 0 1 .85-.06 12.5 12.5 0 0 1 2.29.28 64 64 0 0 1 7.22 2.29 22.3 22.3 0 0 0 4 .94 3.37 3.37 0 0 1 1.79.69 2 2 0 0 1 .6 1.6 1.8 1.8 0 0 1-.67 1.23 1.87 1.87 0 0 1-1 .37c-.58 0-.85-.18-.84-.2a4.5 4.5 0 0 0 .82 0 1.57 1.57 0 0 0 1.3-1.43 1.53 1.53 0 0 0-.52-1.24 3.06 3.06 0 0 0-1.57-.55 20 20 0 0 1-4.09-.92c-2.82-.94-5.27-2-7.14-2.42s-3.04-.48-3.04-.58" style="fill:#eb996e"/><path d="M206.89 219.66a4.7 4.7 0 0 1-2.38-1.2c-1.17-.92-1.83-2-1.72-2s.93.75 2 1.62 2.21 1.44 2.1 1.58" style="fill:#eb996e"/><path d="m75.48 385.39-29.81 13.27 3.59 15.92S86.74 403.4 99 400.92s32.13-5.64 37.74-17.54Z" style="fill:#ffbe9d"/><path d="m52.12 414.87-1 .28s-2.4 19.54-5.7 20.62l-9.14-35.1 11.64-3.25a22.4 22.4 0 0 0 4.2 17.45" style="fill:#409e8d"/><path d="m36.24 400.67 2.84-.62 7.72 33.87s-.27 1.74-1.42 1.85Z" style="fill:#263238"/><path d="M136.63 383.84a4 4 0 0 1-.31.84 10.2 10.2 0 0 1-1.43 2.13 33.2 33.2 0 0 1-7.36 5.86 34 34 0 0 1-5.9 2.77 65 65 0 0 1-7.19 2c-5.08 1.28-10.66 2.74-16.51 4.29l-30 7.91-9.08 2.36-2.48.6a5 5 0 0 1-.88.17 6 6 0 0 1 .85-.28l2.46-.68 9.06-2.48c7.66-2.08 18.23-5 29.94-8.06 5.85-1.55 11.43-3 16.53-4.26a67 67 0 0 0 7.15-2 34.7 34.7 0 0 0 13.25-8.35 11.2 11.2 0 0 0 1.9-2.82" style="fill:#eb996e"/><path d="m89.28 256 .68 5.87s-10.33 19.51-10.33 30-4.76 93.81-4.76 93.81 56 3.19 61.91-2.28l5.92-5.46 20-5.46-31.25-114v-6.11Z" style="fill:#263238"/><path d="M127.59 284.24a.8.8 0 0 1 .06.24l.11.68c.09.64.21 1.52.37 2.63.33 2.33.79 5.63 1.36 9.68 1.16 8.17 2.9 19.43 5.15 31.82s4.57 23.55 6.35 31.61c.89 4 1.61 7.24 2.13 9.54l.57 2.6c.05.27.1.49.13.67a.7.7 0 0 1 0 .24 1 1 0 0 1-.08-.22l-.18-.67c-.17-.63-.39-1.49-.67-2.57-.57-2.24-1.36-5.48-2.29-9.51-1.87-8-4.25-19.2-6.51-31.6s-3.92-23.68-5-31.86c-.54-4.09-.94-7.41-1.19-9.71-.12-1.11-.21-2-.28-2.64 0-.28 0-.5-.06-.69a.8.8 0 0 1 .03-.24m-40.22 10.44a3.7 3.7 0 0 1 .24.66q.21.74.57 1.92c.5 1.73 1.2 4.12 2.06 7.06 1.77 5.95 4.33 14.13 7.45 23.07s6.24 16.94 8.57 22.69c1.16 2.83 2.11 5.14 2.79 6.81l.75 1.85a6 6 0 0 1 .23.66 3 3 0 0 1-.33-.62l-.84-1.81c-.72-1.58-1.73-3.88-2.94-6.75-2.42-5.72-5.58-13.7-8.72-22.65s-5.63-17.17-7.31-23.15c-.84-3-1.49-5.42-1.91-7.11-.2-.8-.35-1.44-.47-1.94a4 4 0 0 1-.14-.69m46.02-33.49a9.5 9.5 0 0 1-1.68.2c-1.08.11-2.65.22-4.6.34-3.88.23-9.26.44-15.19.47s-11.32-.15-15.21-.35c-1.94-.1-3.51-.2-4.6-.29a9.5 9.5 0 0 1-1.68-.2 13 13 0 0 1 1.69 0l4.61.13c3.88.11 9.25.22 15.18.2s11.3-.18 15.19-.32l4.6-.17a10.4 10.4 0 0 1 1.69-.01" style="fill:#455a64"/><path d="M104.72 185.06c-.27-.63 19.86 15.42 22.39 23.24s3 30.38 3 30.38l1.41 14.48L91.29 256l-1.08-2.84-3-8.07-4.11-12.19s-9.91-15.39-11.88-22c-2.44-8.23 1.61-16.66 1.61-16.66L81.92 184Z" style="fill:#409e8d"/><path d="M81.93 184.7s-2.23-4.13-.86-5.94c1.1-1.43 20.45.37 24.4 1.2 2.32.5 0 5.67 0 5.67Z" style="fill:#409e8d"/><path d="M93.52 204.2c1.69 4.37-.7 17.92-1.06 21.14a55 55 0 0 1-2.22 9.47c-.44 1.45-.86 3.11 0 4.38 1.32 2 4.72 1.46 6.37 3.26a15.85 15.85 0 0 1-9.9 1.14 2.7 2.7 0 0 1-1.57-.75 2.85 2.85 0 0 1-.48-1.27 37.7 37.7 0 0 1-.47-14.42c.87-4.75 5.41-16.15 9.23-19.15" style="opacity:.30000000000000004"/><path d="M94.23 210.19a13.2 13.2 0 0 1-1.94 4.64 12.6 12.6 0 0 1-3.19 3.88c-.11-.1 1.34-1.8 2.75-4.15s2.23-4.43 2.38-4.37m11.24-25.06a3 3 0 0 1-.92.26c-.6.13-1.47.28-2.56.43A47.5 47.5 0 0 1 85 185c-1.07-.25-1.92-.49-2.5-.68a3.1 3.1 0 0 1-.89-.35c0-.08 1.33.26 3.47.67a60.5 60.5 0 0 0 8.42 1 62 62 0 0 0 8.49-.19c2.13-.19 3.46-.4 3.48-.32M119.63 224c-.09 0 .26-1.11.53-2.9a21.7 21.7 0 0 0-2.42-13.65c-.87-1.59-1.57-2.48-1.5-2.54s.23.19.56.58a13.3 13.3 0 0 1 1.26 1.78 19.74 19.74 0 0 1 2.47 13.9 14 14 0 0 1-.58 2.1 2.4 2.4 0 0 1-.32.73" style="fill:#263238"/><path d="M93 185.82a70 70 0 0 1-10-1.42 26.54 26.54 0 0 0 15.38 3.09c1.94-.25 4-.79 5.26-2.26-2.95 1.15-7.48.87-10.64.59m22.68 42.78a17.66 17.66 0 0 0 4.69-14.37 20 20 0 0 1 .75 5.22 8.82 8.82 0 0 1-1.41 5.78c-1.23 1.69-1.94 2.71-4 3.37" style="opacity:.30000000000000004"/><path d="M87.66 195.41a10 10 0 0 0-14.28 1.34c-.14.18-.28.38-.41.57-2.09 3.13-7.85 51.88-5.55 57.72s5.63 5.43 5.63 5.43 15.08-.17 25.93-2.68 22.94-6.61 22.94-6.61l-2-11.81s-26.56 3.52-33.86 2.69l2.79-23.74s6.35-7.73 4.53-14.82c-.88-3.37-3.38-6.13-5.72-8.09m40.63 36.71 6-4 4.29-3.62a4.85 4.85 0 0 1-.81 3.81c-1.33 2-3.57 5-3.57 5Z" style="fill:#ffbe9d"/><path d="M137.18 229.7c-.05 0 .34-.46.76-1.32a5.8 5.8 0 0 0 .38-3.82l.36.1-4.27 3.65-.32.21-3.76 2.51a35 35 0 0 1-3.14 1.94 22 22 0 0 1-3 1.56 21.5 21.5 0 0 1 2.83-1.88c.91-.53 1.93-1.24 3.07-2l3.73-2.53.32-.22 4.31-3.59.29-.23.07.34a5.8 5.8 0 0 1-.58 4.07 5 5 0 0 1-.68.93c-.24.2-.35.3-.37.28" style="fill:#eb996e"/><path d="M126.13 242.18c.2-.4 15.88-17.87 19.75-22.18a1.66 1.66 0 0 1 2-.37 1.67 1.67 0 0 1 .5 2.61l-20.08 22.33Z" style="fill:#263238"/><path d="M142.82 234.55c.65-.87-.31-2.58-1.2-3.05s-4.44 1.49-4.44 1.49l-1.28.12s-6.89-1.4-7.12-1.28a22 22 0 0 0-5 3A9.8 9.8 0 0 0 122 237c-.52.81-1.81 2.13-4.81 2.85l2.92 11.87s6.41-1.51 6.89-1.52 5.85-.43 6.56-.55a17.8 17.8 0 0 0 6-2.77c2.3-1.71 1.23-3.16 1.23-3.16 2.37-1.61.52-3.21.52-3.21l.67-1.14c1-1.81-1-2.81-1-2.81a17.4 17.4 0 0 0 1.84-2.01" style="fill:#ffbe9d"/><path d="M138.06 238.23c0-.13.71-.47 1.56-1s1.5-1 1.6-.94-.43.79-1.35 1.35-1.77.72-1.81.59m2.01 3.23c-.08-.11.16-.45.55-.76s.77-.49.85-.39-.16.44-.55.76-.76.49-.85.39m-.7 2.63c0-.14.38-.28.85-.46s.86-.33.94-.23-.23.47-.77.68-1.02.14-1.02.01M137.18 233a13.2 13.2 0 0 1-3.62.51 24.6 24.6 0 0 1-3.65.2c0-.16 1.58-.58 3.61-.72a12.6 12.6 0 0 1 3.66.01m-50.78 8.84a17.6 17.6 0 0 1-2.66 3.42 17.7 17.7 0 0 1-3.06 3.08 19.2 19.2 0 0 1 2.67-3.42 18.8 18.8 0 0 1 3.05-3.08" style="fill:#eb996e"/><path d="M93.14 209.6s.07-.53.16-1.48a13 13 0 0 0-.19-4 14.72 14.72 0 0 0-8.11-9.85 9.54 9.54 0 0 0-7-.45 7.85 7.85 0 0 0-4.57 3.49 13 13 0 0 0-1.43 3.75 13 13 0 0 1-.35 1.45s0-.13 0-.39.06-.62.15-1.1a12.2 12.2 0 0 1 1.2-3.89 7.7 7.7 0 0 1 1.84-2.21 9.2 9.2 0 0 1 2.9-1.56 9.93 9.93 0 0 1 7.4.44 14.74 14.74 0 0 1 8.33 10.2 11.7 11.7 0 0 1 0 4.1 8 8 0 0 1-.24 1.1 1.2 1.2 0 0 1-.09.4" style="fill:#263238"/><path d="M167.31 162.34h-41a3.06 3.06 0 0 0-3 3v39.74a3.06 3.06 0 0 0 3 3.05h15.1l5.89 8.35 5.12-8.35h14.89a3 3 0 0 0 3.05-3.05v-39.69a3 3 0 0 0-3.05-3.05" style="fill:#fafafa"/><path d="M167.31 162.34a2.6 2.6 0 0 1 1.21.2 3.3 3.3 0 0 1 1.21.89 3.13 3.13 0 0 1 .71 1.93c0 3.11 0 7.62.07 13.28s0 12.54.06 20.31v6a3.31 3.31 0 0 1-1.41 2.86 3.25 3.25 0 0 1-1.6.57h-15.14l.21-.12-5.11 8.36-.2.33-.22-.31-5.91-8.36.22.11h-15.5a3.3 3.3 0 0 1-2.22-1.27 3.55 3.55 0 0 1-.69-2.41V165.2a3.26 3.26 0 0 1 2.41-3 8 8 0 0 1 1.92-.11h12.16l20.32.08h6.96a5 5 0 0 1 .49 0s-.16 0-.49 0h-6.96l-20.32.09h-12.11a8.2 8.2 0 0 0-1.81.11 2.81 2.81 0 0 0-2.08 2.6v39.51a3.07 3.07 0 0 0 .58 2.1 2.8 2.8 0 0 0 1.87 1.06c1.55.05 3.23 0 4.85 0h10.72l.08.11 5.89 8.36h-.42l5.12-8.35.07-.12h.14L166 208h1.59a2.9 2.9 0 0 0 1.37-.49 2.85 2.85 0 0 0 1.23-2.49v-6c0-7.77 0-14.62.06-20.31s0-10.16.07-13.28a3 3 0 0 0-1.8-2.74 4 4 0 0 0-1.21-.35" style="fill:#263238"/><path d="M153.68 191.33h-14.17v-.08c-.08-.53-.16-1.09-.24-1.66l-1.66-12 .06.06h-3.62 3.66c.41 2.83 1 7.16 1.73 12 .08.56.16 1.13.23 1.66l-.09-.09h13.81a1.6 1.6 0 0 1 .29.11" style="fill:#263238"/><path d="M139.49 191.62a.17.17 0 0 1-.15-.15l-1.88-13.55h-3.17c-.28 0-.41 0-.42-.19s.14-.2.42-.21h3.43a.18.18 0 0 1 .18.16l1.94 13.48 13.56.06c.33 0 .45 0 .46.19 0 .18-.13.19-.46.2h-13.89Z" style="fill:#263238"/><path d="M139.19 188.43h4.08l10.38-.05-.09.08c.31-1.75.64-3.64 1-5.6.18-1 .35-2 .52-2.94l.09.11H139.3h3.63l12.24-.05h.11v.11c-.16 1-.34 1.93-.51 2.94-.35 2-.68 3.85-1 5.6v.07h-14.54Z" style="fill:#263238"/><path d="M139.2 188.62a.19.19 0 0 1-.19-.19c0-.17.18-.18.24-.19h4l10.16-.05 1.4-8-16.77-.06c-.09 0-.27 0-.27-.19s.18-.18.26-.19h17.22a.17.17 0 0 1 .14.07.18.18 0 0 1 0 .14l-1.53 8.72a.18.18 0 0 1-.18.15l-14.5-.06Zm3.93 6.54a3 3 0 0 1-.08-.33 1.47 1.47 0 0 0-.52-.73 1.34 1.34 0 0 0-2.13 1.07 1.33 1.33 0 0 0 2.13 1.06 1.45 1.45 0 0 0 .52-.73c.06-.21.06-.34.08-.34a1 1 0 0 1 0 .36 1.42 1.42 0 0 1-.51.82 1.53 1.53 0 1 1 .51-1.53.9.9 0 0 1 0 .35" style="fill:#263238"/><path d="M141.47 196.82a1.4 1.4 0 0 1-.32-.08 1.68 1.68 0 0 1-1.12-1.57 1.7 1.7 0 0 1 1.12-1.58 1.65 1.65 0 0 1 1.57.26 1.67 1.67 0 0 1 .58.93 1.2 1.2 0 0 1 0 .38 1.2 1.2 0 0 1 0 .39 1.62 1.62 0 0 1-1.83 1.27m.43-2.79a1.15 1.15 0 0 0-.57.07 1.13 1.13 0 0 0-.74 1.07 1.14 1.14 0 0 0 .74 1.07 1.19 1.19 0 0 0 1.09-.15 1.27 1.27 0 0 0 .45-.64q0-.16.06-.24v-.09l-.06-.24a1.18 1.18 0 0 0-.45-.63 1.1 1.1 0 0 0-.52-.25Zm10.29 1.12s0-.12-.09-.33a1.34 1.34 0 0 0-.51-.73 1.33 1.33 0 0 0-2.13 1.06 1.34 1.34 0 0 0 2.13 1.07 1.45 1.45 0 0 0 .52-.73c.06-.21.06-.34.08-.34a1 1 0 0 1 0 .35 1.37 1.37 0 0 1-.51.82 1.46 1.46 0 0 1-1.4.24 1.49 1.49 0 1 1 1.4-2.58 1.45 1.45 0 0 1 .51.82.9.9 0 0 1 0 .35" style="fill:#263238"/><path d="M150.53 196.81a2 2 0 0 1-.32-.08 1.67 1.67 0 0 1 0-3.15 1.63 1.63 0 0 1 1.57.26 1.57 1.57 0 0 1 .57.92 1 1 0 0 1 0 .39 1.2 1.2 0 0 1 0 .39 1.64 1.64 0 0 1-1.83 1.27ZM151 194a1.3 1.3 0 0 0-.57.06 1.15 1.15 0 1 0 1.09 2 1.2 1.2 0 0 0 .45-.64 2 2 0 0 0 .06-.24v-.08c0-.05 0-.14-.06-.24a1.2 1.2 0 0 0-.45-.64 1.24 1.24 0 0 0-.52-.22" style="fill:#263238"/><path d="M160.33 181.33a4.72 4.72 0 1 1-4.72-4.72 4.73 4.73 0 0 1 4.72 4.72" style="fill:#409e8d"/><path style="fill:#fff" d="m152.91 181.43.7-.71 1.37 1.21 2.67-2.57.66.7-3.43 3.23z"/></svg>