<svg xmlns="http://www.w3.org/2000/svg" width="118" height="85" style="shape-rendering:geometricPrecision;text-rendering:geometricPrecision;image-rendering:optimizeQuality;fill-rule:evenodd;clip-rule:evenodd"><path style="opacity:.831" fill="#4b653e" d="M92.5 3.5q-6.799-.477-13 1h-9q6.632-2.118 14-2 4.284.004 8 1"/><path style="opacity:1" fill="#8eb978" d="M92.5 3.5h1a11.45 11.45 0 0 0 5 3 4.93 4.93 0 0 0-3 .5q1.32 1.063 2 2.5-1.936.356-3-1-8.145-2.268-17-2h-1l3-2q6.201-1.477 13-1"/><path style="opacity:.725" fill="#465d38" d="M93.5 3.5q4.928.642 9 3h-4a11.45 11.45 0 0 1-5-3"/><path style="opacity:1" fill="#98ce82" d="M74.5 4.5h5l-3 2q-2.55.24-5-.5 1.855-.348 3-1.5"/><path style="opacity:1" fill="#96c382" d="M70.5 4.5h4q-1.145 1.152-3 1.5 2.45.74 5 .5h1l-6 2q-3.597-.36-6 2-2.975.515-4-2a55.5 55.5 0 0 0 9-4"/><path style="opacity:.51" fill="#455b37" d="M77.5 6.5q8.855-.268 17 2a75.7 75.7 0 0 0-23 0z"/><path style="opacity:1" fill="#678756" d="M70.5 4.5a55.5 55.5 0 0 1-9 4h-2q4.74-3.75 11-4"/><path style="opacity:1" fill="#8dbd75" d="M98.5 6.5h2q2.889 1.479 6 3h1q-2.128 1.426-5 1-2.687.2-5-1-.68-1.437-2-2.5a4.93 4.93 0 0 1 3-.5"/><path style="opacity:.855" fill="#7ca36a" d="M100.5 6.5h2q2.188-.1 4 1v2a362 362 0 0 1-6-3"/><path style="opacity:.306" fill="#1d2b12" d="M8.5 9.5q2.518-.322 3 2h-1z"/><path style="opacity:1" fill="#6a8a5b" d="M59.5 8.5h2q1.025 2.515 4 2-3.223 1.854-7 3a5.73 5.73 0 0 0 1-3z"/><path style="opacity:.086" fill="#2b3924" d="M71.5 8.5q-2.571 1.857-6 2 2.403-2.36 6-2"/><path style="opacity:.702" fill="#31412f" d="M5.5 9.5q-.356 1.937 1 3v1q-5.076-1.116-1-4"/><path style="opacity:1" fill="#748d68" d="m8.5 9.5 2 2q-2.398-.402-4 1-1.356-1.063-1-3 1.5-2 3 0"/><path style="opacity:1" fill="#8fab7a" d="M107.5 9.5q5.715 1.881 0 3-3.08.147-5-2 2.872.426 5-1"/><path style="opacity:1" fill="#99cc83" d="M59.5 10.5a5.73 5.73 0 0 1-1 3q-2.55.24-5-.5 2.487-2.493 6-2.5"/><path style="opacity:1" fill="#8fae7a" d="M10.5 11.5h1q2.48.24 4 2-2.55-.24-5 .5.835.575 1 1.5-2.855-.444-5-2v-1q1.602-1.402 4-1"/><path style="opacity:.392" fill="#4d5d42" d="M106.5 7.5q3.552.77 6 3.5-1.977 3.528-5 1.5 5.715-1.119 0-3h-1z"/><path style="opacity:.075" fill="#334a2a" d="M16.5 13.5a89.6 89.6 0 0 0 21 2v1h-12q-1.812-1.1-4-1h-2z"/><path style="opacity:.998" fill="#99c981" d="M47.5 13.5q9.722.677 0 3 0-1-1-1z"/><path style="opacity:1" fill="#678055" d="M59.5 8.5v2q-3.513.006-6 2.5 2.45.74 5 .5-3.882 3.187-9 4h-2v-1q9.722-2.323 0-3a65 65 0 0 1 12-5"/><path style="opacity:1" fill="#92bb7d" d="M15.5 13.5h1l3 2q-2.975-.515-4 2-2.48-.24-4-2-.165-.925-1-1.5 2.45-.74 5-.5"/><path style="opacity:.91" fill="#556e49" d="m47.5 13.5-1 2q-3.675-.303-7 1h-2v-1a78 78 0 0 1 10-2"/><path style="opacity:1" fill="#95c97c" d="M19.5 15.5h2v2h-6q1.025-2.515 4-2"/><path style="opacity:1" fill="#9bca80" d="M21.5 15.5q2.188-.1 4 1l12 2a75.4 75.4 0 0 1-16-1z"/><path style="opacity:1" fill="#97cd7e" d="M46.5 15.5q1 0 1 1v1h-4q-2.398.402-4-1 3.325-1.303 7-1"/><path style="opacity:1" fill="#9cc482" d="M25.5 16.5h14q1.602 1.402 4 1-1.602 1.402-4 1h-2z"/><path style="opacity:.49" fill="#3c4e30" d="M15.5 17.5h4q5.018 2.576 11 2v1q-8.14.777-15-3"/><path style="opacity:.955" fill="#87b470" d="M19.5 17.5h2a75.4 75.4 0 0 0 16 1h2q-4.18 1.465-9 1-5.982.576-11-2"/><path style="opacity:.62" fill="#4b603e" d="M43.5 17.5h6q-8.944 3.735-19 3v-1q4.82.465 9-1 2.398.402 4-1"/><path style="opacity:.663" fill="#43615b" d="M88.5 34.5q-5.313-.47-10 1a59.5 59.5 0 0 0-13 2h-1q11.61-5.16 24-3"/><path style="opacity:.838" fill="#4a756a" d="M78.5 35.5q4.687-1.47 10-1 3.84-.453 7 1v1a41.6 41.6 0 0 0-8-1z"/><path style="opacity:1" fill="#549183" d="M78.5 35.5h9v2q-6.303-.475-12 1h-1q-4.668.867-9 0v-1a59.5 59.5 0 0 1 13-2"/><path style="opacity:.966" fill="#579185" d="M87.5 35.5a41.6 41.6 0 0 1 8 1v2q-3.832-1.332-8-1z"/><path style="opacity:.937" fill="#529281" d="M95.5 36.5q2.188-.1 4 1-1.025 2.514-4 2z"/><path style="opacity:.576" fill="#486761" d="M95.5 36.5v-1q5.493.334 10 3a19.2 19.2 0 0 1-6-1q-1.812-1.1-4-1"/><path style="opacity:.694" fill="#496a65" d="M75.5 38.5q5.697-1.475 12-1 4.168-.332 8 1v1a134 134 0 0 0-20-1"/><path style="opacity:.875" fill="#4c766c" d="M64.5 37.5h1v1q-2.385.192-4 2 .686 1.195 2 1-1.52 1.76-4 2-.128-1.495 1-2.5a4.93 4.93 0 0 0-3-.5q2.89-2.69 7-3"/><path style="opacity:.969" fill="#4e7e71" d="M65.5 38.5q4.332.867 9 0-5.19 2.049-11 3-1.314.195-2-1 1.615-1.808 4-2"/><path style="opacity:.933" fill="#4b786c" d="M99.5 37.5a19.2 19.2 0 0 0 6 1h1v1a18.4 18.4 0 0 0-6 .5q2.905.183 4 2.5a71 71 0 0 1-9-3q2.975.514 4-2"/><path style="opacity:.91" fill="#445d58" d="M106.5 39.5v-1q3.605.293 5 3.5-2.493 4.615-6 .5 2.549.24 5-.5-2.486-.347-4-2.5"/><path style="opacity:.784" fill="#527c70" d="M13.5 43.5h-1a5.6 5.6 0 0 1-3-1q-1.444.705 0 2h-2q-5.974-1.957 0-4 3.504.751 6 3"/><path style="opacity:.867" fill="#5c8c7f" d="M106.5 39.5q1.514 2.153 4 2.5-2.451.74-5 .5h-1q-1.095-2.317-4-2.5a18.4 18.4 0 0 1 6-.5"/><path style="opacity:.966" fill="#528579" d="M57.5 40.5a4.93 4.93 0 0 1 3 .5q-1.128 1.005-1 2.5-.513 1.258-2 1-2.34.029-4.5 1-2.525-1.014-.5-3 2.145-1.556 5-2"/><path style="opacity:.994" fill="#579785" d="M12.5 43.5q1.185 1.352 3 2-.513 1.258-2 1-1.52-1.76-4-2-1.444-1.295 0-2 1.375.94 3 1"/><path style="opacity:.875" fill="#4b7168" d="M7.5 44.5h2q2.48.24 4 2v1q-3.478-.738-6-3"/><path style="opacity:.78" fill="#456c64" d="M12.5 43.5h1q5.89.639 11 3h-4a20.7 20.7 0 0 0-5-1q-1.815-.648-3-2"/><path style="opacity:.973" fill="#4a6e68" d="M52.5 42.5q-2.025 1.986.5 3 2.16-.971 4.5-1-2.89 2.69-7 3-2.127-2.712-6-2h-1a71 71 0 0 1 9-3"/><path style="opacity:.961" fill="#569082" d="M15.5 45.5q2.574.193 5 1-2.648 1.442-6 1h-1v-1q1.487.258 2-1"/><path style="opacity:.863" fill="#43645b" d="M43.5 45.5h1q-.71 2.11-3 2h-16v-1q9.054.21 18-1"/><path style="opacity:.945" fill="#588f81" d="M44.5 45.5q3.873-.712 6 2a129 129 0 0 0-11 2l2-2q2.29.11 3-2"/><path style="opacity:.91" fill="#568076" d="M20.5 46.5h5v1q-2.975-.514-4 2-3.978.136-7-2 3.352.442 6-1"/><path style="opacity:.938" fill="#539080" d="M25.5 47.5h7l-4 2h-7q1.025-2.514 4-2"/><path style="opacity:.985" fill="#549282" d="M32.5 47.5h9l-2 2h-11z"/><path style="opacity:.616" fill="#48675f" d="M50.5 47.5q-14.195 6.27-29 2h18a129 129 0 0 1 11-2"/><path style="opacity:.487" fill="#516444" d="M75.5 65.5q3.716-.997 8-1 6.416-.245 12 2h-5q-7.208-1.48-15-1"/><path style="opacity:.994" fill="#8db872" d="M73.5 65.5h2q7.792-.48 15 1h-5a89.4 89.4 0 0 0-15 1z"/><path style="opacity:.859" fill="#68845a" d="m73.5 65.5-3 2a52 52 0 0 1-7 1q4.507-2.666 10-3"/><path style="opacity:1" fill="#9ad07c" d="m85.5 66.5-10 2q-2.872.426-5-1a89.4 89.4 0 0 1 15-1"/><path style="opacity:1" fill="#81ac6b" d="M85.5 66.5h10l3 2v1h-23v-1z"/><path style="opacity:.788" fill="#739066" d="M95.5 66.5q5.572.135 10 3a52 52 0 0 0-7-1z"/><path style="opacity:1" fill="#9ac67c" d="M70.5 67.5q2.128 1.426 5 1v1h-12v-1a52 52 0 0 0 7-1"/><path style="opacity:1" fill="#9ac981" d="M98.5 68.5q3.541.26 7 1h1q2.025 1.984-.5 3a13 13 0 0 0-5.5-1h-1l-1-2z"/><path style="opacity:.969" fill="#779263" d="M63.5 68.5v1q-1.815.648-3 2h-4q3.015-2.347 7-3"/><path style="opacity:1" fill="#698a5b" d="M65.5 69.5h9a240 240 0 0 0-11 3z"/><path style="opacity:.949" fill="#617e50" d="M91.5 69.5h7l1 2q-4.245-.695-8-2"/><path style="opacity:1" fill="#9dd081" d="M63.5 69.5h2l-2 3q-1.936.356-3-1 1.185-1.352 3-2"/><path style="opacity:1" fill="#73985d" d="M56.5 71.5h4q1.064 1.356 3 1-2.522 2.26-6 3 .68-1.437 2-2.5-3.69-.36-7 1.5h-1v-1a16.3 16.3 0 0 1 5-2"/><path style="opacity:1" fill="#708363" d="M9.5 72.5q-2.322.481-2 3-5.717-1.668-.5-5 1.951.208 2.5 2"/><path style="opacity:1" fill="#7c9d6f" d="M106.5 69.5q4.945.198 5 5-6.051-.024-11-3a13 13 0 0 1 5.5 1q2.525-1.016.5-3"/><path style="opacity:1" fill="#99be7d" d="M9.5 72.5h2l1 2q-1.937-.356-3 1h-2q-.322-2.519 2-3"/><path style="opacity:.176" fill="#283f27" d="M11.5 72.5q2.48.24 4 2h-3z"/><path style="opacity:1" fill="#98cc7a" d="M57.5 75.5h-3q-1.487.257-2-1 3.31-1.86 7-1.5-1.32 1.063-2 2.5"/><path style="opacity:.839" fill="#4d5f43" d="M51.5 73.5v1l-2 1a21.5 21.5 0 0 1-7 1 71 71 0 0 1 9-3"/><path style="opacity:1" fill="#6d8a59" d="M7.5 75.5h2q2.675.589 5 2v1q-4.11-.31-7-3"/><path style="opacity:1" fill="#98ca82" d="M9.5 75.5q1.063-1.356 3-1h3q.356 1.936-1 3a16.3 16.3 0 0 0-5-2"/><path style="opacity:1" fill="#9dcb81" d="M51.5 74.5h1q.513 1.257 2 1-2.571 1.857-6 2l1-2z"/><path style="opacity:1" fill="#6e8e58" d="M15.5 74.5a35.2 35.2 0 0 1 8 2v1a25 25 0 0 0-7 .5q1.374.417 2 1.5h-2q-1.487.257-2-1v-1q1.356-1.064 1-3"/><path style="opacity:1" fill="#9bc284" d="m49.5 75.5-1 2q0 1-1 1-2.648-1.442-6-1v-1h1a21.5 21.5 0 0 0 7-1"/><path style="opacity:1" fill="#9ace80" d="M23.5 77.5v2h-5q-.626-1.083-2-1.5a25 25 0 0 1 7-.5"/><path style="opacity:.475" fill="#526b43" d="M23.5 77.5v-1q9 2 18 0v1a34.2 34.2 0 0 1-10 1h-1a52 52 0 0 0-7-1"/><path style="opacity:.737" fill="#607d50" d="M54.5 75.5h3q-4.545 2.855-10 4v-1q1 0 1-1 3.429-.143 6-2"/><path style="opacity:1" fill="#92b87b" d="M41.5 77.5q2.127 2.712 6 2-2.128 1.426-5 1h-6l-5-2a34.2 34.2 0 0 0 10-1"/><path style="opacity:1" fill="#97ca7d" d="M41.5 77.5q3.352-.442 6 1v1q-3.873.712-6-2"/><path style="opacity:1" fill="#9eca84" d="M23.5 77.5q3.541.26 7 1l-2 2q-2.687.2-5-1z"/><path style="opacity:1" fill="#9ece7f" d="M30.5 78.5h1l5 2h-8z"/><path style="opacity:.663" fill="#5c784e" d="M16.5 79.5h7q2.313 1.2 5 1h14q-4.435 1.54-9.5 2-8.628-.583-16.5-3"/></svg>