<svg xmlns="http://www.w3.org/2000/svg" width="558" height="139" style="shape-rendering:geometricPrecision;text-rendering:geometricPrecision;image-rendering:optimizeQuality;fill-rule:evenodd;clip-rule:evenodd"><path style="opacity:1" fill="#93d870" d="M201.5 23.5h1q12.166-.652 24 1.5l-23 1q-1.374.417-2 1.5a18.4 18.4 0 0 1-6-.5 61 61 0 0 0 6-3.5"/><path style="opacity:1" fill="#b4e19c" d="M239.5 27.5a32.2 32.2 0 0 0-11-1.5q3.387 1.314 6 3.5-14.716-4.158-30-2.5-1.278 2.592-3 .5.626-1.083 2-1.5l23-1a103 103 0 0 0-24-1.5q14.318-3.789 29 .5 4.463 1.057 8 3.5"/><path style="opacity:.999" fill="#94d76f" d="M239.5 27.5h1q1.593 1.612 0 3a12 12 0 0 0-6-1q-2.613-2.186-6-3.5 5.601-.21 11 1.5"/><path style="opacity:1" fill="#b7e3a0" d="M201.5 23.5a61 61 0 0 1-6 3.5q2.96.743 6 .5-4.629 2.551-10 4 .76-2.038 3-3-1.783-1.393-4-1 4.95-3.213 11-4"/><path style="opacity:1" fill="#b5dfa0" d="M240.5 27.5q6.276 1.41 1.5 5-4.08-1.1-7.5-3a12 12 0 0 1 6 1q1.593-1.388 0-3"/><path style="opacity:.812" fill="#cae7b9" d="M138.5 29.5q-1.763-.329-3 1a184 184 0 0 1 2 3q-6.218-1.416-2-6 1.858.664 3 2"/><path style="opacity:.996" fill="#a1db82" d="M190.5 27.5q2.217-.393 4 1-2.24.962-3 3a16.3 16.3 0 0 1-5 2 18.4 18.4 0 0 1-6-.5q1.374-.417 2-1.5 3.523-2.761 8-4"/><path style="opacity:1" fill="#b0e096" d="M182.5 31.5q-.626 1.083-2 1.5 2.96.743 6 .5-2.022 1.029-3.5 3-3.276-.912-6 2-.575-.834-1.5-1 .837-1.935 3-2.5-6.41.435-13 .5a309 309 0 0 0 17-4"/><path style="opacity:1" fill="#9fda7c" d="M138.5 29.5q12.775 6.036 27 6 6.59-.065 13-.5-2.163.565-3 2.5h-1a149.7 149.7 0 0 1-32-2 16.3 16.3 0 0 1-5-2 184 184 0 0 0-2-3q1.237-1.329 3-1"/><path style="opacity:.725" fill="#99c0ba" d="M287.5 37.5h-26v-1q4.137-.223 7.5-1 9.4.973 18.5 2"/><path style="opacity:.974" fill="#b3e39c" d="M142.5 35.5a149.7 149.7 0 0 0 32 2 130 130 0 0 1-11 3 309 309 0 0 0-16-2.5 39 39 0 0 1-5-2.5"/><path style="opacity:1" fill="#8edd64" d="M81.5 71.5q-2.51 1.264-3.5 4a89 89 0 0 1-3.5 12h-6q-.156-3.305-2-6 .481-2.322 3-2 .384-3.44-1-6.5 3.398-2.14 5-5.5 1.902-3.608 2-8 5.273-4.795 5-12 3.903-3.213 5-8.5a41 41 0 0 1 9-.5v49h-8v-24q-1.983-.255-3.5 1-1.803 3.265-1.5 7"/><path style="opacity:1" fill="#8edd66" d="M56.5 38.5h1q2.17 6.695 2.5 14 3.307 1.368 5.5 4 1.556 2.145 2 5-.915 5.192 3.5 8 1.063-1.32 2.5-2-1.602 3.36-5 5.5 1.384 3.06 1 6.5-2.519-.322-3 2-1.65-2.666-2.5-6-1.062-1.32-2.5-2-.061-5.604-4-9-.5-2-1 0-1.46 3.672-1 8-1.238 6.723-1.5 14-2.55 1.36-5.5 1a8.4 8.4 0 0 1 .5-4q1.697 1.656 2.5-1-1.238-1.329-3-1v-38q6-1 0-2v-3z"/><path style="opacity:1" fill="#4ba18f" d="M261.5 37.5h26q9.05 1.282 12.5 10 3.622 14.682-9.5 21.5a80 80 0 0 1-19 1.5q.844 8.86 0 19h-4q-2.647-1.442-6-1zm10 10q7.517-.25 15 .5 5.98 5.57 0 11-7.483.75-15 .5z"/><path style="opacity:1" fill="#a0d386" d="M57.5 38.5h-1q-4.18-1.465-9-1v51a651 651 0 0 1-1-51 2.43 2.43 0 0 1 .5-2q5.838.493 10.5 3"/><path style="opacity:.078" fill="#e5fdd6" d="M107.5 36.5v1q-2 25.5 0 51h1v1q-1.345 1.647-2.5 0a702 702 0 0 1 0-53q1.035-1.857 1.5 0"/><path style="opacity:1" fill="#53a293" d="M385.5 37.5q10.046 1.02 12.5 11 2.462 13.13-8.5 20.5 4.2 7.65 8 15.5v4h-10q-5.64-7.775-9-17-3.732-2.832-9-2-.338-3.324 2.5-5 2.426 1.554.5 3.5l7 1a53 53 0 0 0 3.5 7.5q.74-5.227 4.5-1.5-3.52 1.786-2.5 5.5a6.54 6.54 0 0 0 3-3l1 1a11.3 11.3 0 0 1 1.5-3.5 41.7 41.7 0 0 1-4-9.5q-1.237-1.329-3-1 .329-1.762-1-3l-6 2q-3.252-2.932-7-2a69.2 69.2 0 0 1-1-16 63.5 63.5 0 0 0 17.5-3q2.99 3.203 7.5 3a4.93 4.93 0 0 0-.5-3 61 61 0 0 0-5.5-3 183 183 0 0 0-27-1v50a651 651 0 0 1-1-51zm-2 10q5.263 2.82 4 9-1.214 1.453-3 2.5-7.483.75-15 .5v-12z"/><path style="opacity:1" fill="#3f9e8c" d="M369.5 69.5q-1.485 9.217-1 19h-8v-50q13.537-.497 27 1a61 61 0 0 1 5.5 3q.724 1.422.5 3-4.51.203-7.5-3a63.5 63.5 0 0 1-17.5 3 69.2 69.2 0 0 0 1 16q3.748-.932 7 2l6-2q1.329 1.238 1 3 1.763-.329 3 1a41.7 41.7 0 0 0 4 9.5 11.3 11.3 0 0 0-1.5 3.5l-1-1a6.54 6.54 0 0 1-3 3q-1.02-3.714 2.5-5.5-3.76-3.727-4.5 1.5a53 53 0 0 1-3.5-7.5l-7-1q1.926-1.946-.5-3.5-2.838 1.676-2.5 5"/><path style="opacity:1" fill="#6cac9e" d="M343.5 42.5q-6.743-3.933-14.5-6a205 205 0 0 0-14.5 4.5q-9.983 13.912-8 31.5-4.857-16.765 7-32.5 10.736-6.888 23-3 4.643 1.403 7 5.5"/><path style="opacity:1" fill="#419d8b" d="M523.5 79.5v9h-32v-50q3.928-.402 7.5 1 .75 19.994.5 40z"/><path style="opacity:.223" fill="#d7fbc2" d="M107.5 37.5v-1h10a703 703 0 0 1-1 53q.25-25.505-.5-51-4.078-1.416-8.5-1"/><path style="opacity:.607" fill="#aeddd4" d="M426.5 89.5v-42q6.705-1.48 14-1v-9h-38v9q7.295-.48 14 1v42a442 442 0 0 1-1-42h-14q-.636-6.305 1.5-12 19.787 1.156 38.5 1v11h-14a442 442 0 0 1-1 42"/><path style="opacity:1" fill="#419d8b" d="M426.5 47.5a421 421 0 0 0-1 41q-3.928.402-7.5-1a792 792 0 0 0-1.5-40q-6.705-1.48-14-1v-9h38v9q-7.295-.48-14 1"/><path style="opacity:.123" fill="#e4fed3" d="M46.5 37.5a651 651 0 0 0 1 51h1v1q-1.345 1.647-2.5 0-1.242-26.257.5-52"/><path style="opacity:1" fill="#8fc7bb" d="M383.5 47.5q2.927-.41 4.5 2 1.194 3.807-.5 7 1.263-6.18-4-9"/><path style="opacity:.953" fill="#9dd280" d="M107.5 37.5q4.422-.416 8.5 1 .75 25.495.5 51h-8v-1h7a601 601 0 0 0-1-49q-3.161-1.453-7-1v50q-2-25.5 0-51"/><path style="opacity:1" fill="#90d96c" d="M114.5 39.5a601 601 0 0 1 1 49h-8v-50q3.839-.453 7 1"/><path style="opacity:1" fill="#8edd64" d="M114.5 39.5v48h-6v-48z"/><path style="opacity:1" fill="#5b988d" d="M416.5 47.5a792 792 0 0 1 1.5 40q3.572 1.402 7.5 1a421 421 0 0 1 1-41v42q-5.48 1.93-10 0z"/><path style="opacity:.982" fill="#639f93" d="M500.5 37.5v41q11.778-.488 23 1h-24q.25-20.006-.5-40-3.572-1.402-7.5-1v50h-1v-51z"/><path style="opacity:1" fill="#a4dc84" d="M57.5 38.5q4.74 8.498 8 18-2.193-2.632-5.5-4-.33-7.305-2.5-14"/><path style="opacity:.506" fill="#99c5bd" d="M385.5 37.5h-26a651 651 0 0 0 1 51h8q-.485-9.783 1-19 5.268-.832 9 2-4.337-1.354-9-1v19q-5.272.318-10 0-1.5-26.48-1-53a85 85 0 0 0 17.5-1q4.986.825 9.5 2"/><path style="opacity:1" fill="#abde92" d="M80.5 47.5q.272 7.206-5 12 1.732-6.445 5-12"/><path style="opacity:1" fill="#92d96d" d="M56.5 38.5h-8v3q6 1 0 2v38q1.762-.329 3 1-.803 2.656-2.5 1a8.4 8.4 0 0 0-.5 4q2.95.36 5.5-1 .262-7.277 1.5-14v16h-8v-51q4.82-.465 9 1"/><path style="opacity:.953" fill="#60a696" d="M228.5 55.5q-10.386 2.945-22 2-6.237 1.56-12 0 16.258-6.43 34-2"/><path style="opacity:.357" fill="#b2d8d1" d="M261.5 36.5v52q3.353-.442 6 1-2.7 1.566-6 0-1.99-26.743 0-53"/><path style="opacity:1" fill="#68a99b" d="M194.5 57.5q5.763 1.56 12 0v1a251 251 0 0 0-31.5 12q-1.949-.699-4.5 0 3.124-2.21 7-3.5a18.4 18.4 0 0 0-6-.5 323 323 0 0 0 23-9"/><path style="opacity:.996" fill="#7bb4a7" d="M228.5 55.5q8.83 1.356 16 6.5a10.8 10.8 0 0 1-3 2.5q-16.596-8.01-35-6v-1q11.614.945 22-2"/><path style="opacity:.982" fill="#6dab9c" d="M152.5 66.5a32.4 32.4 0 0 0-8 .5q5.313.18 9 3.5-11.124-1.37-20-8 .75-2.07 3-2a240 240 0 0 0 16 6"/><path style="opacity:1" fill="#429e8d" d="M343.5 42.5q4.649 3.231 5 9 .25 11.01-.5 22-.621.685-1.5 1a100 100 0 0 1-2-5.5q2.883-2.19 2-5a6.8 6.8 0 0 1-3-1.5 726 726 0 0 1-5-9q-1.337-4.69-1-9a6.9 6.9 0 0 1-4 2q-6-4-12 0a4.94 4.94 0 0 1-2.5-1 53 53 0 0 0-1.5 7q.201 2.687-1 5-2.487 12.18 2 24l2-3a41.8 41.8 0 0 0 12 6.5 7.3 7.3 0 0 1-3 2l2 1a30.5 30.5 0 0 1-11 0l-2-3a40 40 0 0 1-8-2.5q-3.653-4.31-4-10-1.983-17.588 8-31.5a205 205 0 0 1 14.5-4.5q7.757 2.067 14.5 6"/><path style="opacity:1" fill="#63a799" d="M338.5 53.5q-10.028-13.264-21-1a53 53 0 0 1 1.5-7 4.94 4.94 0 0 0 2.5 1q6-4 12 0a6.9 6.9 0 0 0 4-2q-.337 4.31 1 9"/><path style="opacity:.62" fill="#a9cdc8" d="M349.5 55.5a97 97 0 0 1 2 6.5q-.569 4.045-2 8.5z"/><path style="opacity:1" fill="#4aa08f" d="M483.5 87.5q-6.077 2.1-12-1-.989-2.457-2-5a73 73 0 0 0-17-1q-.143 3.429-2 6-2.572 1.736-6 2-3.21-.084-5-2a815 815 0 0 1 16.5-48q4.1-2.407 9-3a968 968 0 0 1 18.5 52m-18-20q-3.732 2.832-9 2a168 168 0 0 1 4-14q2.858 4.848 5 12"/><path style="opacity:1" fill="#b5e59d" d="M57.5 64.5q3.939 3.396 4 9-2.347-3.015-3-7z"/><path style="opacity:.247" fill="#dbf8ce" d="M95.5 89.5v-52h-11q1.712-1.259 4-2 3.65 1.146 8 1a703 703 0 0 1-1 53"/><path style="opacity:1" fill="#55a394" d="M348.5 51.5q1.401 1.602 1 4v15q-.06 9.737-8 15 .186-3.678 3-6a31.2 31.2 0 0 0-3.5-6q-2.377 1.315-3 4l-1-1q-1.224 1.985-3.5 2 4.245-3.514 5.5-9a55.3 55.3 0 0 0-.5-16 726 726 0 0 0 5 9 6.8 6.8 0 0 0 3 1.5q.883 2.81-2 5 .905 2.738 2 5.5a3.65 3.65 0 0 0 1.5-1q.75-10.99.5-22"/><path style="opacity:.62" fill="#b8e59d" d="M75.5 59.5q-.098 4.392-2 8-1.437.68-2.5 2-4.415-2.808-3.5-8a61 61 0 0 1 3.5 6 46.4 46.4 0 0 1 4.5-8"/><path style="opacity:.937" fill="#68aa9a" d="M152.5 66.5a45.6 45.6 0 0 0 19 0 18.4 18.4 0 0 1 6 .5q-3.876 1.29-7 3.5-8.547 1.935-17 0-3.687-3.32-9-3.5a32.4 32.4 0 0 1 8-.5"/><path style="opacity:.098" fill="#dfffce" d="m57.5 64.5 1 2-2 23v-25q.5-2 1 0"/><path style="opacity:.221" fill="#bfe8e0" d="M500.5 37.5h-10v52q-1.743-26.243-.5-53 2.752-1.14 6-1 2.592.599 4.5 2"/><path style="opacity:.62" fill="#85bcb3" d="M460.5 55.5a168 168 0 0 0-4 14q5.268.832 9-2 1.356 1.064 1 3h-11q-.007-8.53 5-15"/><path style="opacity:.984" fill="#a1d984" d="M84.5 37.5h11v52q-4.757 1.5-9 0a290 290 0 0 1-1.5-24q-2.188 2.898-3.5 6-.303-3.735 1.5-7 1.517-1.255 3.5-1v24h8v-49a41 41 0 0 0-9 .5q-1.097 5.287-5 8.5a91 91 0 0 1 4-10"/><path style="opacity:.998" fill="#9fd481" d="M56.5 64.5v25h-8v-1h7v-16q-.46-4.328 1-8"/><path style="opacity:1" fill="#3e9f8d" d="M341.5 85.5q-4.994.354-9-2.5-.428-2.082 1-4.5 2.276-.015 3.5-2l1 1q.623-2.685 3-4a31.2 31.2 0 0 1 3.5 6q-2.814 2.322-3 6"/><path style="opacity:1" fill="#5ca697" d="M316.5 57.5q-.726 9.316 2.5 18 6.331 5.87 14.5 3-1.428 2.418-1 4.5 4.006 2.854 9 2.5-3.224 3.369-8 4.5-13.997 3.25-23-7.5a40 40 0 0 0 8 2.5l2 3q5.5 1 11 0l-2-1a7.3 7.3 0 0 0 3-2 41.8 41.8 0 0 1-12-6.5l-2 3q-4.487-11.82-2-24"/><path style="opacity:1" fill="#aedf92" d="M81.5 71.5q-2.664 10.257-8.5 19a100 100 0 0 1-5.5-2 104 104 0 0 1-6-15q1.438.68 2.5 2 .85 3.334 2.5 6 1.844 2.695 2 6h6a89 89 0 0 0 3.5-12q.99-2.736 3.5-4"/><path style="opacity:.714" fill="#88bab1" d="M397.5 84.5a29 29 0 0 1 3 4.5 505 505 0 0 0-11.5 1.5q-1.075-.816-1.5-2h10z"/><path style="opacity:.724" fill="#93c1b7" d="M439.5 86.5q1.79 1.916 5 2 3.428-.264 6-2 .282 2.405-1.5 4a73.4 73.4 0 0 0-11.5-1.5q.85-1.492 2-2.5"/><path style="opacity:.735" fill="#8cbeb3" d="M471.5 86.5q5.923 3.1 12 1 .814.09 1 1-5.729 3.162-12 .5-1.129-1.005-1-2.5"/><path style="opacity:.734" fill="#94c3ba" d="M523.5 79.5q.99 2.195 1 5 .132 3.32-1.5 6a986 986 0 0 0-32.5-1v-1h33z"/><path style="opacity:.945" fill="#bbe4a5" d="M200.5 87.5q-4.95 3.213-11 4 4.95-3.213 11-4"/><path style="opacity:1" fill="#afdf94" d="M229.5 87.5q8.587 1.1 15 6.5a10.8 10.8 0 0 1-3 2.5 1784 1784 0 0 0-12-5q2.217.393 4-1-2.526-.975-4-3"/><path style="opacity:.984" fill="#b5df9c" d="M143.5 95.5a238 238 0 0 0-6-.5q3.538 1.864 6 4.5-5.84-.92-10-5 .548-2.103 2.5-3a94 94 0 0 1 7.5 4"/><path style="opacity:1" fill="#a1db81" d="M229.5 87.5q1.474 2.025 4 3-1.783 1.393-4 1-.626-1.083-2-1.5a50.4 50.4 0 0 0-10-.5q-16.979.245-32 8-4.486-.501-7 3-2.818 1.262-6 1h-22q-3.978.136-7-2-2.462-2.636-6-4.5 2.888.203 6 .5a78 78 0 0 0 14 3q6.722 1.722 14 .5 1.374-.417 2-1.5a99.6 99.6 0 0 0 16-6q6.05-.787 11-4 14.487-3.943 29 0"/><path style="opacity:.929" fill="#b4e19e" d="M217.5 89.5q5.025-.247 10 .5 1.374.417 2 1.5-6.276-.526-12-2"/><path style="opacity:.953" fill="#c2e6af" d="M185.5 97.5q-2.528 3.477-7 3 2.514-3.501 7-3"/><path style="opacity:.973" fill="#c4e9b2" d="M173.5 97.5q-.626 1.083-2 1.5-7.278 1.222-14-.5 8.255-.007 16-1"/><path style="opacity:.997" fill="#b1e09a" d="M150.5 101.5h22q-10.991 3.891-22 0"/></svg>