<svg xmlns="http://www.w3.org/2000/svg" viewBox="0 0 500 500"><ellipse cx="250" cy="345.8" rx="240.14" ry="138.64" style="fill:#f5f5f5"/><ellipse cx="250" cy="423.54" rx="81.8" ry="47.23" style="fill:#e0e0e0"/><path d="m37.42 360.92 71.89 41.5c7.88 4.55 20.66 4.55 28.55 0l25-14.44c7.89-4.55 7.89-11.93 0-16.49L91 330c-7.89-4.55-20.67-4.55-28.55 0l-25 14.44c-7.91 4.56-7.91 11.93-.03 16.48m425.16 0-71.89 41.5c-7.88 4.55-20.66 4.55-28.55 0l-25-14.44c-7.88-4.55-7.88-11.93 0-16.49L409 330c7.89-4.55 20.67-4.55 28.55 0l25 14.44c7.91 4.56 7.91 11.93.03 16.48" style="fill:#e0e0e0"/><path d="M342.72 404a22.8 22.8 0 0 0-4.66 5.14 47 47 0 0 0-3.44 5.5c-2 3.72-6.07 17.59-6.77 22.4h.82c1.14-4.59 4.72-18 6.55-21.74a42.6 42.6 0 0 1 3.42-5.74c1.3-1.84 2.84-3.49 4.2-5.29.06-.07.01-.38-.12-.27" style="fill:#409e8d"/><path d="M340 407.51a10.87 10.87 0 0 0 7.15-5.88c2.23-4.11 4.6-7.56 4.51-8.62s-5.57 1.87-8.95 5.53-3.17 6.4-2.71 8.97m.83 3.78c-.16-.8 1.73-2.52 5.49-3.47s8.81-.75 9.09-.23-4.36 3.63-8.39 4.19-6.02.22-6.19-.49m-9.32-18.37c.62-.28 3.83 5.28 4.17 9.95.29 4.06-.05 6.31-.72 6.9a1.4 1.4 0 0 1 .05.16 11 11 0 0 1 .26 2.2 7.5 7.5 0 0 1-.89 4.3c-.05.07-.11-.05-.11-.1.07-1.31.3-2.62.28-3.94a16 16 0 0 0-.24-2.51c-1-.35-2.52-2.6-3.24-6.51-.81-4.37-.18-10.17.44-10.45m2.99 27.51c-.24-.78 1.47-2.68 5.12-4s8.7-1.6 9-1.11-4 4-7.95 5-5.95.84-6.17.11" style="fill:#409e8d"/><path d="M335.35 413.45a2.7 2.7 0 0 1 1.21-1.1 11 11 0 0 1 1.81-.77 19.3 19.3 0 0 1 4.12-.77c.14 0 .2.31.07.35-1.27.44-2.57.75-3.86 1.14a11 11 0 0 0-1.7.7c-.26.14-.52.28-.77.44s-.49.38-.75.34-.16-.25-.13-.33m-1.42 6.72a8 8 0 0 1 1.48-.58 5.8 5.8 0 0 1 1.55-.21c.13 0 .18.25.06.29a28 28 0 0 0-2.77 1.13 9.4 9.4 0 0 0-1.23.69 2.06 2.06 0 0 0-.77.83c-.15.27-.47.24-.46-.11.05-1.03 1.36-1.65 2.14-2.04m-2.74 5.27-.61.42c-1.17-.31-3.85-3.22-5.06-6.73-1.43-4.12-1.08-7.85-.72-8.29s4.24 3.19 5.73 8a14.7 14.7 0 0 1 .66 6.6m13.67 5.82a8.46 8.46 0 0 0 7.19-.1c3.35-1.42 6.46-2.36 6.92-3.05s-4.28-1.57-8.12-1-5.02 2.36-5.99 4.15m-4.1-.42c-.65-.22.45-3.3 2.62-5.35s4.61-2.87 5-2.77-1.59 4.34-3.37 5.85-3.83 2.43-4.25 2.27m-6.46 2.68c-.78-.09-.25-3.74 1.69-6.51s4.47-4.24 4.91-4.21-.79 5.16-2.43 7.23-3.67 3.55-4.17 3.49m3.45 1.3c-.07-.78 3.62-1 6.71.38s5 3.54 5.1 4-4.06.73-7.56-.95c-2.38-1.16-4.21-2.93-4.25-3.43" style="fill:#409e8d"/><path d="M347.58 430.68a47.5 47.5 0 0 0-8.86 2l.36-.25a14.6 14.6 0 0 0 1.71-1.43 4.8 4.8 0 0 0 1.35-1.7c0-.11-.13-.1-.19-.07a15 15 0 0 0-1.82 1.5c-.52.44-1.07.85-1.61 1.25-.77.56-1.58 1-2.39 1.53-.8.28-1.61.57-2.4.88a8 8 0 0 0 1-1.23c.16-.25.31-.51.46-.76a1.8 1.8 0 0 0 .28-.68c0-.13-.19-.09-.25 0a7.6 7.6 0 0 0-1 1.22c-.35.39-.69.8-1.07 1.16a10 10 0 0 1-1.28 1l-.45.27c-.7.32-2.24 1.1-3.33 1.66h1.69c.53-.27 1.06-.55 1.61-.8 1.21-.56 2.39-1.08 3.15-1.38.51-.06 1-.07 1.53-.08a11 11 0 0 1 1.69.11c.62.1 1.22.3 1.85.4.09 0 .35-.11.2-.21a4.7 4.7 0 0 0-1.76-.67 8.5 8.5 0 0 0-1.74-.21c.59-.21 1.17-.43 1.77-.62 3.14-1 6.4-1.64 9.5-2.73.15-.03.14-.17 0-.16" style="fill:#409e8d"/><g style="opacity:.35000000000000003"><path d="M344.86 431.26a8.46 8.46 0 0 0 7.19-.1c3.35-1.42 6.46-2.36 6.92-3.05s-4.28-1.57-8.12-1-5.02 2.36-5.99 4.15m-4.1-.42c-.65-.22.45-3.3 2.62-5.35s4.61-2.87 5-2.77-1.59 4.34-3.37 5.85-3.83 2.43-4.25 2.27m-6.46 2.68c-.78-.09-.25-3.74 1.69-6.51s4.47-4.24 4.91-4.21-.79 5.16-2.43 7.23-3.67 3.55-4.17 3.49m3.45 1.3c-.07-.78 3.62-1 6.71.38s5 3.54 5.1 4-4.06.73-7.56-.95c-2.38-1.16-4.21-2.93-4.25-3.43" style="fill:#fff"/><path d="M347.58 430.68a47.5 47.5 0 0 0-8.86 2l.36-.25a14.6 14.6 0 0 0 1.71-1.43 4.8 4.8 0 0 0 1.35-1.7c0-.11-.13-.1-.19-.07a15 15 0 0 0-1.82 1.5c-.52.44-1.07.85-1.61 1.25-.77.56-1.58 1-2.39 1.53-.8.28-1.61.57-2.4.88a8 8 0 0 0 1-1.23c.16-.25.31-.51.46-.76a1.8 1.8 0 0 0 .28-.68c0-.13-.19-.09-.25 0a7.6 7.6 0 0 0-1 1.22c-.35.39-.69.8-1.07 1.16a10 10 0 0 1-1.28 1l-.45.27c-.7.32-2.24 1.1-3.33 1.66h1.69c.53-.27 1.06-.55 1.61-.8 1.21-.56 2.39-1.08 3.15-1.38.51-.06 1-.07 1.53-.08a11 11 0 0 1 1.69.11c.62.1 1.22.3 1.85.4.09 0 .35-.11.2-.21a4.7 4.7 0 0 0-1.76-.67 8.5 8.5 0 0 0-1.74-.21c.59-.21 1.17-.43 1.77-.62 3.14-1 6.4-1.64 9.5-2.73.15-.03.14-.17 0-.16" style="fill:#fff"/></g><path d="M162.18 402.06a23.4 23.4 0 0 1 3.76 5.83 46 46 0 0 1 2.51 6c1.36 4 3.17 18.34 3.08 23.2h-.8c-.38-4.59-1.76-18.64-3-22.64a42 42 0 0 0-2.45-6.21c-1-2-2.24-3.9-3.29-5.89.01-.11.07-.35.19-.29" style="fill:#409e8d"/><path d="M164.28 406a11 11 0 0 1-6.12-7c-1.53-4.42-3.31-8.2-3-9.24s5.19 2.74 7.93 6.9 2.06 6.85 1.19 9.34m-1.42 3.58c.29-.77-1.3-2.77-4.86-4.31s-8.57-2.16-8.93-1.69 3.72 4.28 7.61 5.49 5.91 1.22 6.18.51M175 392.94c-.57-.37-4.63 4.6-5.72 9.16-.94 4-1 6.23-.4 6.92a1 1 0 0 0-.07.15 11.5 11.5 0 0 0-.62 2.13 7.5 7.5 0 0 0 .2 4.38c0 .08.11 0 .12-.07.14-1.31.12-2.64.35-3.93a16 16 0 0 1 .65-2.44c1-.19 2.9-2.17 4.24-5.91 1.52-4.2 1.84-10.01 1.25-10.39m-7.36 26.68c.36-.74-1-2.88-4.41-4.77s-8.33-3-8.73-2.55 3.28 4.62 7 6.2 5.8 1.8 6.14 1.12" style="fill:#409e8d"/><path d="M167.92 412.59a2.6 2.6 0 0 0-1-1.28 10.6 10.6 0 0 0-1.66-1.05 19.8 19.8 0 0 0-3.94-1.43c-.14 0-.24.28-.12.34 1.18.64 2.42 1.15 3.62 1.75a10 10 0 0 1 1.6 1c.24.17.47.36.69.55s.42.46.68.46.15-.26.13-.34m.32 6.86a8 8 0 0 0-1.36-.81 6 6 0 0 0-1.5-.46c-.13 0-.21.22-.1.28a25 25 0 0 1 2.54 1.56 9 9 0 0 1 1.11.87 2.2 2.2 0 0 1 .62.95c.11.3.43.31.47 0 .13-1.05-1.02-1.84-1.78-2.39m1.86 5.65.53.51c1.21-.12 4.32-2.56 6.09-5.83 2.07-3.83 2.32-7.57 2-8.06s-4.71 2.46-6.94 6.93a14.6 14.6 0 0 0-1.68 6.45m-14.42 3.54a8.52 8.52 0 0 1-7.09-1.26c-3.07-1.94-6-3.37-6.33-4.12s4.47-.86 8.16.34 4.58 3.12 5.26 5.04m4.11.25c.68-.11.08-3.34-1.73-5.71s-4.09-3.58-4.47-3.53.88 4.54 2.39 6.31 3.37 3.04 3.81 2.93m5.94 3.68c.78 0 .85-3.66-.62-6.7s-3.73-4.9-4.16-4.94 0 5.21 1.22 7.52 3.06 4.09 3.56 4.12m-3.61.73c.19-.76-3.42-1.56-6.69-.71s-5.54 2.69-5.67 3.11 3.89 1.37 7.62.28c2.52-.75 4.62-2.19 4.74-2.68" style="fill:#409e8d"/><path d="M153.08 427.63a47 47 0 0 1 8.42 3.37l-.31-.31a16 16 0 0 1-1.46-1.68 4.84 4.84 0 0 1-1.06-1.9c0-.11.14-.08.2 0a13 13 0 0 1 1.55 1.77c.45.51.92 1 1.4 1.49.66.68 1.39 1.28 2.1 1.9.75.4 1.5.82 2.23 1.25a7.7 7.7 0 0 1-.82-1.39c-.12-.27-.23-.54-.34-.82a1.64 1.64 0 0 1-.16-.72c0-.12.2-.05.25 0a8.5 8.5 0 0 1 .81 1.37c.28.45.55.9.86 1.33a12 12 0 0 0 1.1 1.23l.41.33c.64.44 2.07 1.48 3.05 2.21H170c-.62-.47-1.24-.92-1.88-1.35-1.11-.75-2.18-1.45-2.89-1.87-.49-.14-1-.24-1.5-.33a10.5 10.5 0 0 0-1.68-.16c-.63 0-1.26.09-1.89.1-.1 0-.33-.16-.17-.25a4.9 4.9 0 0 1 1.85-.37 8.6 8.6 0 0 1 1.75.07c-.55-.3-1.09-.61-1.65-.89-2.94-1.5-6.05-2.65-8.94-4.23-.09-.05-.06-.19.08-.15" style="fill:#409e8d"/><g style="opacity:.35000000000000003"><path d="M155.68 428.64a8.52 8.52 0 0 1-7.09-1.26c-3.07-1.94-6-3.37-6.33-4.12s4.47-.86 8.16.34 4.58 3.12 5.26 5.04m4.11.25c.68-.11.08-3.34-1.73-5.71s-4.09-3.58-4.47-3.53.88 4.54 2.39 6.31 3.37 3.04 3.81 2.93m5.94 3.68c.78 0 .85-3.66-.62-6.7s-3.73-4.9-4.16-4.94 0 5.21 1.22 7.52 3.06 4.09 3.56 4.12m-3.61.73c.19-.76-3.42-1.56-6.69-.71s-5.54 2.69-5.67 3.11 3.89 1.37 7.62.28c2.52-.75 4.62-2.19 4.74-2.68" style="fill:#fff"/><path d="M153.08 427.63a47 47 0 0 1 8.42 3.37l-.31-.31a16 16 0 0 1-1.46-1.68 4.84 4.84 0 0 1-1.06-1.9c0-.11.14-.08.2 0a13 13 0 0 1 1.55 1.77c.45.51.92 1 1.4 1.49.66.68 1.39 1.28 2.1 1.9.75.4 1.5.82 2.23 1.25a7.7 7.7 0 0 1-.82-1.39c-.12-.27-.23-.54-.34-.82a1.64 1.64 0 0 1-.16-.72c0-.12.2-.05.25 0a8.5 8.5 0 0 1 .81 1.37c.28.45.55.9.86 1.33a12 12 0 0 0 1.1 1.23l.41.33c.64.44 2.07 1.48 3.05 2.21H170c-.62-.47-1.24-.92-1.88-1.35-1.11-.75-2.18-1.45-2.89-1.87-.49-.14-1-.24-1.5-.33a10.5 10.5 0 0 0-1.68-.16c-.63 0-1.26.09-1.89.1-.1 0-.33-.16-.17-.25a4.9 4.9 0 0 1 1.85-.37 8.6 8.6 0 0 1 1.75.07c-.55-.3-1.09-.61-1.65-.89-2.94-1.5-6.05-2.65-8.94-4.23-.09-.05-.06-.19.08-.15" style="fill:#fff"/></g><path d="M362.61 325.79s-2.44 7.14-1.3 13.47c1.54 8.58 6.06 13.85 15.1 19.06-.06 0-26.92-15.55-38.92-23.07s-11.49-16.44-12.25-23.12-3.68-10.25-7.45-12.44Z" style="fill:#263238"/><path d="m362.61 325.79 4.27 1.45c0 .06-2 6.16-1.13 11.22 1.24 6.91 4.74 11.23 12.92 16 10.05 5.81 27.35 2.79 42.09-7.34l2.55 3.72c-17 11.67-36 13.85-46.9 7.53-9-5.21-13.56-10.48-15.1-19.06-1.14-6.38 1.3-13.52 1.3-13.52" style="fill:#37474f"/><path d="m327.5 217.35-14.75 64.7c-2.07 9.09 3.48 20.63 12.38 25.77l31.05 17.92c4.46 2.57 8.9 3.05 12.5 1.75 2.64-1 12.57-4.52 15.23-5.49 3.57-1.29 6.3-4.35 7.33-8.88l14.76-64.7c2.07-9.09-3.47-20.63-12.38-25.77l-31.05-17.92c-4.32-2.49-8.64-3-12.17-1.86-2.79.92-12.86 4.63-15.51 5.58-3.62 1.29-6.36 4.35-7.39 8.9" style="fill:#263238"/><path d="m368.68 327.49 11.79-4.35 2.95-1.07a11.8 11.8 0 0 0 2.73-1.34 11 11 0 0 0 3.64-4.13 17.5 17.5 0 0 0 1.56-4.81l1.1-4.91 2.2-9.8 6.69-29.08 2.28-9.8 2.36-9.79-2.11 9.81-2.2 9.8-6.52 29.08-2.28 9.8-1.14 4.9a18 18 0 0 1-1.63 4.87 11.4 11.4 0 0 1-3.77 4.22 12 12 0 0 1-2.82 1.36l-3 1.06Z"/><path d="m374.07 244.79 29.84-10.74a26.53 26.53 0 0 0-10.31-11.4l-31.05-17.91c-4.32-2.5-8.64-3-12.17-1.87-2.79.92-12.86 4.63-15.51 5.58-3.6 1.29-6.34 4.35-7.37 8.9l-2.68 11.52Z" style="fill:#37474f"/><path d="m356.18 325.73-31.05-17.91c-8.9-5.14-14.45-16.68-12.38-25.77l14.75-64.7c2.06-9.09 11-12.29 19.86-7.15l31.05 17.91c8.91 5.14 14.45 16.68 12.39 25.77l-14.75 64.7c-2.05 9.1-10.96 12.3-19.87 7.15" style="fill:#455a64"/><path d="M383.75 241.3a19.32 19.32 0 0 1 1.85 12.27l-14.74 64.7c-.64 2.82-2.09 4.83-4 5.5s-4.53.15-7.3-1.44l-31-17.92a22.75 22.75 0 0 1-8.75-9.78 19.25 19.25 0 0 1-1.81-12.27l14.74-64.7c.64-2.82 2.08-4.83 4-5.51s4.54-.14 7.31 1.46L375 231.52a22.8 22.8 0 0 1 8.75 9.78" style="fill:#263238"/><path d="M383.75 241.3a19.32 19.32 0 0 1 1.85 12.27l-14.74 64.7c-.64 2.82-2.09 4.83-4 5.5s-4.53.15-7.3-1.44l-31-17.92a22.75 22.75 0 0 1-8.75-9.78 19.25 19.25 0 0 1-1.81-12.27l14.74-64.7c.64-2.82 2.08-4.83 4-5.51s4.54-.14 7.31 1.46L375 231.52a22.8 22.8 0 0 1 8.75 9.78" style="fill:#263238"/><path d="M398.17 257.15a1.15 1.15 0 0 1 .08.74l-11.82 51.8a2 2 0 0 1-2.14 1.33c-1-.06-1.67-.75-1.49-1.55l11.81-51.8a2 2 0 0 1 2.15-1.33 1.62 1.62 0 0 1 1.41.81" style="fill:#37474f"/><path d="m361.18 321.41-15.62-9.34-7.69-4.48-6.58-3.81a21.7 21.7 0 0 1-3.64-2.45 23.5 23.5 0 0 1-5.45-6.8 21.9 21.9 0 0 1-2.56-8.31 14.9 14.9 0 0 1 .18-4.32l1-4.34 2-8.68 3.9-17.36 3.86-17.38 3.77-17.4-4.13 17.31-4.06 17.34-4 17.34-2 8.67-1 4.35a15.7 15.7 0 0 0-.21 4.54 22.5 22.5 0 0 0 2.68 8.58 24.1 24.1 0 0 0 5.64 7 22.4 22.4 0 0 0 3.74 2.5l6.59 3.81 7.73 4.41Z" style="fill:#fff;opacity:.4"/><path d="M329 275.17c.13-.62.23-1.09.29-1.41s.14-.63.2-.94.16-.72.28-1.26.3-1.31.55-2.34a12.2 12.2 0 0 1 2.35-5.3A5.78 5.78 0 0 1 336 262l2-.37a2.37 2.37 0 0 0 1.75-1.22 10.7 10.7 0 0 0 .83-2.09c.23-.82.46-1.7.67-2.63s.41-1.86.58-2.76a3.2 3.2 0 0 0-.94-3.14l.67-2.94a6.43 6.43 0 0 1 2.64 3.29 9.9 9.9 0 0 1 .06 4.83c-.09.42-.2 1-.34 1.59s-.29 1.28-.43 1.9-.27 1.1-.36 1.45a8.36 8.36 0 0 1-2 3.92 5.7 5.7 0 0 1-3 1.48l-2.09.39a2.9 2.9 0 0 0-1.93 1.69 13.2 13.2 0 0 0-1.19 3.29l-1.35 5.93Zm4.13 2.38.7-3.07 5.2 3-.7 3.08Zm.43-22.5q.345-1.755.6-3c.255-1.245.37-1.67.61-2.54.48-1.85 1.13-3.06 2-3.61a3.2 3.2 0 0 1 3.24.07l-.68 3a1.23 1.23 0 0 0-1.17.18 2.3 2.3 0 0 0-.65 1.23c-.24.92-.48 1.9-.72 3s-.46 2.12-.66 3.21Zm8.44 19.43.91-4 4.2 2.43-.91 4Zm2.66-11.67.9-4 4.2 2.43-.9 4Zm3.71 17.38q1.26-5.94 2.38-10.79c.74-3.24 1.48-6.38 2.21-9.4a5.45 5.45 0 0 1 1.93-3.42 3.25 3.25 0 0 1 3.23-.07l-.67 2.93c-.9-.21-1.5.27-1.78 1.44-.55 2.2-1 4.18-1.46 6s-.82 3.48-1.19 5.09-.72 3.25-1.08 4.91-.73 3.46-1.13 5.4a3 3 0 0 0 .78 3l-.66 2.92a6.63 6.63 0 0 1-2.45-3.32 8.7 8.7 0 0 1-.11-4.69m4.13 8.81.67-2.93c.87.21 1.46-.27 1.76-1.43q1.44-5.75 2.65-11.06t2.22-10.33a3 3 0 0 0-.78-2.92l.67-2.94a6.74 6.74 0 0 1 2.41 3.33 8.8 8.8 0 0 1 .13 4.61q-.66 3.12-1.42 6.58c-.51 2.3-1 4.61-1.58 6.93s-1.07 4.55-1.59 6.69a5.45 5.45 0 0 1-2 3.41 3.2 3.2 0 0 1-3.14.06m8-1.8q1.28-5.94 2.38-10.8t2.21-9.4a5.5 5.5 0 0 1 1.93-3.41 3.25 3.25 0 0 1 3.23-.08l-.67 2.94c-.9-.21-1.49.27-1.78 1.44-.54 2.19-1 4.18-1.45 6s-.82 3.47-1.19 5.09-.73 3.25-1.08 4.91-.74 3.45-1.14 5.39a3 3 0 0 0 .79 3l-.67 2.92a6.52 6.52 0 0 1-2.44-3.31 8.7 8.7 0 0 1-.12-4.69m4.14 8.83.66-2.94c.87.21 1.46-.26 1.77-1.42.95-3.83 1.84-7.52 2.64-11.06s1.55-7 2.22-10.34a3 3 0 0 0-.78-2.91l.67-2.94a6.6 6.6 0 0 1 2.41 3.33 8.87 8.87 0 0 1 .14 4.61q-.66 3.12-1.43 6.57c-.5 2.31-1 4.62-1.57 6.94s-1.07 4.54-1.59 6.68a5.45 5.45 0 0 1-2 3.41 3.2 3.2 0 0 1-3.14.04Z" style="fill:#e0e0e0"/><path d="m464.3 194.56-.47-.27 2.2-3.92.51.29.1.06a33.24 33.24 0 0 1 11.54 12c7.22 12.5 8.84 31.65 5 57.91-3.25 22.18-8.45 37.31-11.6 45l-6.64 3.83s9-17.08 13.79-49.52c5.21-35.51.27-56.41-14.43-65.38" style="fill:#37474f"/><path d="M478.72 259.94c-4.77 32.44-13.79 49.52-13.79 49.52l-32.41-17s.27-.5.73-1.51l.28-.59.31-.69.34-.79c.36-.84.78-1.83 1.22-3l.46-1.18c.16-.41.32-.83.48-1.27.09-.22.17-.45.25-.68.25-.68.51-1.4.77-2.16s.44-1.28.67-2 .46-1.39.69-2.12.38-1.19.56-1.8.38-1.25.57-1.89.38-1.31.57-2 .39-1.37.58-2.08.38-1.43.57-2.17.38-1.5.57-2.27c.1-.38.19-.77.28-1.17.28-1.17.56-2.39.84-3.63s.56-2.53.82-3.85q.63-3.09 1.21-6.43c.24-1.42.48-2.88.72-4.37 0-.17.06-.35.08-.52l.21-1.44c.08-.57.17-1.14.25-1.71.16-1.13.31-2.24.44-3.33.2-1.63.38-3.24.54-4.81v-.05l.15-1.57c.19-2.09.33-4.11.44-6.08q.24-4.51.18-8.62c0-1.08 0-2.13-.09-3.16 0-.52 0-1-.08-1.53s-.07-1-.1-1.5q-.24-3-.64-5.7c-.06-.41-.12-.81-.19-1.22a3 3 0 0 0-.05-.27l-.21-1.17c-.08-.44-.16-.86-.26-1.29-.18-.85-.38-1.68-.59-2.48q-.16-.62-.33-1.2c-.11-.4-.23-.79-.35-1.17a1 1 0 0 0 0-.13 41 41 0 0 0-2.06-5.29c1.06-.12 2.08-.2 2.57-.21 7.73-.19 12.71.89 18.41 4.18 14.67 8.99 19.61 29.89 14.39 65.4" style="fill:#263238"/><path d="M442.42 263.14c.28-1.17.56-2.39.84-3.63-.26 1.24-.55 2.49-.84 3.63m2.87-13.91c.24-1.42.48-2.88.72-4.37-.23 1.49-.47 2.95-.72 4.37m1.01-6.33c.08-.57.17-1.14.25-1.71l-.24 1.7c-.07.49-.14 1-.22 1.45Zm1.7-32.39q-.24-3-.64-5.7.45 2.73.64 5.7m.12 14.81c-.1 2-.25 4-.44 6.08.19-2.09.32-4.11.44-6.08" style="fill:#263238"/><path d="M467.11 278.23c6.76-30.91 4.8-53 4-59.06l4.2-2.42s4.41 24.71-3.84 62.44c-8.06 36.84-30 60.59-48.2 71.61l-2.55-3.72c9.72-5.83 36.96-25.73 46.39-68.85" style="fill:#37474f"/><path d="M475.35 216.75a125 125 0 0 1 1.27 19.07c0 6.38-.39 12.75-1 19.1s-1.62 12.65-2.8 18.92l-.94 4.7c-.32 1.56-.74 3.1-1.11 4.65-.69 3.12-1.73 6.15-2.63 9.21a129.4 129.4 0 0 1-7.53 17.6 121 121 0 0 1-10.27 16.13A97.4 97.4 0 0 1 422 351.56a90.2 90.2 0 0 0 15.24-11.47A104 104 0 0 0 450.06 326a119.6 119.6 0 0 0 10.18-16.13 127 127 0 0 0 7.43-17.56c.92-3.05 2-6.06 2.66-9.17.37-1.54.8-3.08 1.13-4.64l1-4.68c1.19-6.25 2.23-12.54 2.87-18.88s1.06-12.7 1.11-19.07a125 125 0 0 0-1.09-19.12"/><path d="m471.15 219.18-24.65-14.25c-.31-3.39-.62-5.21-.62-5.21l-4.2 2.42c.14 1.11.32 2.78.48 5 0 .6.08 1.24.13 1.92s.08 1.51.11 2.33a180 180 0 0 1-.85 25.47q-.14 1.37-.3 2.76a215 215 0 0 1-3.61 21.62c-.15.68-.3 1.35-.46 2-9.86 41.86-36.54 61.22-46 66.89-1.21.83-2.43 1.6-3.67 2.33a56 56 0 0 1-21.42 7.54c1.47 6 5 10 12.57 14.38 10 5.79 27.26 2.8 42-7.25 9.59-5.77 37-25.66 46.44-68.91 6.77-30.89 4.81-53.02 4.05-59.04" style="fill:#263238"/><path d="M442.29 209c-.05-.68-.09-1.32-.13-1.92.05.61.09 1.25.13 1.92" style="fill:#263238"/><path d="m441.68 202.14 4.2-2.42 29.47 17.03-4.2 2.42-24.64-14.24z"/><path d="m468.71 291.24-.67 3.37s3.83-.48 7.1-1c1.81-.29 3-1.12 3.23-1.95v-.16l5.88-28.16-10.39 3.17Z" style="fill:#263238"/><path d="m483 261.94.2-1.34c1.58.39 1.19 2.23 1.14 2.71-.09.88-1.31 1.86-3.29 2.17-3.27.53-7.11 1-7.11 1l-35-20.35a.86.86 0 0 1 0-1.49l1.86-1.07 33.67 19.58Z"/><path d="M432.64 273.2a1 1 0 0 0-.06.3.87.87 0 0 0 .42.75l35 20.36 5.87-28.13-35.37-21.34Z" style="fill:#37474f"/><path d="m397.7 232.7-49-28.28c2.43.65 7.26-.81 12.57-5.64 6-5.46 11.62-13.55 26.09-21.9 10.06-5.81 21.32-7.13 31-6.5 16.82 1.1 21.33 5.07 30.84 10.45 12.38 7 14.88 8.44 16.76 9.54-10.77-6-27.06-7.5-48.41 4.83a79 79 0 0 0-16.02 11.8 21.23 21.23 0 0 0-4.35 24.76c.17.31.34.63.52.94" style="fill:#263238"/><path d="m466 190.37-2.2 3.92a32 32 0 0 0-15.8-3.94v-4.51a36.5 36.5 0 0 1 18 4.53m-18-.02c-8.61 0-18.07 3-28.11 8.76a76.2 76.2 0 0 0-15.18 11.1 16.8 16.8 0 0 0-3.5 19.46c.14.26.68 1.22.83 1.48l-4.32 1.55c-.18-.31-.35-.63-.52-.95a21.23 21.23 0 0 1 4.33-24.75 79 79 0 0 1 16.09-11.79c11.65-6.73 21.79-9.35 30.35-9.36Z" style="fill:#37474f"/><path d="m158 191.64-6.56 3.79 3.35 14.75c7.89 3.89 14.5 11.82 18.3 22.87v.09l11 6.55-15.09-41.5Z" style="fill:#409e8d"/><path d="m158 191.64-6.56 3.79 3.35 14.75c7.89 3.89 14.5 11.82 18.3 22.87v.09l11 6.55-15.09-41.5Z" style="fill:#fff;opacity:.30000000000000004"/><path d="M158.43 205.17c1.1.66 1.83.42 1.61-.54a5.66 5.66 0 0 0-2.4-2.93c-1.11-.66-1.83-.42-1.61.53a5.6 5.6 0 0 0 2.4 2.94" style="fill:#409e8d"/><path d="m169 198.19 15.13 41.53v-.11c-3.81-11-10.41-19-18.3-22.87L162.44 202Z" style="fill:#fff;opacity:.30000000000000004"/><path style="fill:#fff;opacity:.6000000000000001" d="m158.04 191.64-6.56 3.79 10.96 6.55 6.56-3.79z"/><path d="M176.24 247.86a73.8 73.8 0 0 1-5.09 34.1l3.36 14.75 11 6.56 6.57-3.79-4.83-45.06Z" style="fill:#409e8d"/><path d="M176.24 247.86a73.8 73.8 0 0 1-5.09 34.1l3.36 14.75 11 6.56 6.57-3.79-4.83-45.06Z" style="fill:#fff;opacity:.30000000000000004"/><path d="M179 295.59c1.1.67 1.82.43 1.61-.53a5.62 5.62 0 0 0-2.4-2.93c-1.11-.66-1.83-.42-1.61.53a5.54 5.54 0 0 0 2.4 2.93" style="fill:#409e8d"/><path d="m192 299.48-5-47.34v.12a73.8 73.8 0 0 1-4.86 36.25l3.35 14.75Z" style="fill:#fff;opacity:.30000000000000004"/><path d="M135.77 321.06s-1.54 1.18-2.85 16.82c-.72 8.69-.54 15.23-9.58 20.44.06 0 31.56-18.22 43.56-25.74s12-16.24 12.24-23.12c.26-6.7-.55-11.19 1-13.49Z" style="fill:#263238"/><path d="m135.77 321.06-5-2.59c-1.59 2.3.08 7.43-.18 14.14-.26 6.87.74 17.75-12.22 23.1-10.26 3.93-25.87.61-39.34-8.64l-2.56 3.72c17 11.67 36 13.85 46.91 7.53 12-7.52 12-16.24 12.25-23.12.22-6.7-1.45-11.84.14-14.14" style="fill:#37474f"/><path d="M180.55 295.07a5.54 5.54 0 0 0-2.4-2.93c-.62-.38-1.11-.45-1.39-.29l-54.14 30.56a.85.85 0 0 0-.33.89 4.8 4.8 0 0 0 2.22 3.07c.78.47 1.4.46 1.67.06l54.12-30.58c.26-.1.35-.37.25-.78" style="fill:#455a64"/><path d="m167.63 217.68-10.77-6.42h-.06l-.13-.08c-8.33-4.91-18.3-5.16-28 .43-19.49 11.25-30.4 41.86-24.37 68.38 3 13.18 9.61 22.86 17.9 27.89l.12.07h.07l10.76 6.43 5.9-3.81a30.5 30.5 0 0 0 10.18-3.75c19.49-11.25 30.39-41.87 24.37-68.39a55.8 55.8 0 0 0-4.35-12.38Z" style="fill:#409e8d"/><path d="m167.63 217.68-10.77-6.42h-.06l-.13-.08c-8.33-4.91-18.3-5.16-28 .43-19.49 11.25-30.4 41.86-24.37 68.38 3 13.18 9.61 22.86 17.9 27.89l.12.07h.07l10.76 6.43 5.9-3.81a30.5 30.5 0 0 0 10.18-3.75c19.49-11.25 30.39-41.87 24.37-68.39a55.8 55.8 0 0 0-4.35-12.38Z" style="fill:#fff;opacity:.4"/><path d="M103.19 273.5c.27 2.17.65 4.33 1.13 6.46 3 13.18 9.61 22.86 17.9 27.89l.12.07h.07l10.76 6.43 5.9-3.81c.8-.13 1.6-.31 2.4-.52l.77-13.21Z" style="fill:#409e8d;opacity:.4"/><ellipse cx="150.56" cy="266.13" rx="52.42" ry="36.56" transform="rotate(-82 150.553 266.13)" style="fill:#409e8d"/><ellipse cx="150.56" cy="266.13" rx="52.42" ry="36.56" transform="rotate(-82 150.553 266.13)" style="fill:#fff;opacity:.6000000000000001"/><ellipse cx="153.41" cy="267.85" rx="47.67" ry="33.24" transform="rotate(-82 153.412 267.848)" style="fill:#fff;opacity:.6000000000000001"/><path d="M174.91 235.23c-6.44-8.53-16.06-10.29-25.75-4.69-16 9.25-25.37 35.48-20.41 57.29a38.4 38.4 0 0 0 6.34 14.51c6.44 8.53 16.07 10.29 25.75 4.7 16-9.25 25.38-35.49 20.42-57.3a38.4 38.4 0 0 0-6.35-14.51" style="fill:#409e8d"/><path d="M175.49 235.58c-7.13-9-17.51-11.15-27.75-5.9-17 8.7-26.3 34.94-20.42 57.3a41 41 0 0 0 7.19 15c7.14 8.95 17.51 11.15 27.76 5.9 16.95-8.69 26.3-34.93 20.41-57.3a40.8 40.8 0 0 0-7.19-15" style="fill:#409e8d"/><path d="M175.49 235.58c-7.13-9-17.51-11.15-27.75-5.9-17 8.7-26.3 34.94-20.42 57.3a41 41 0 0 0 7.19 15c7.14 8.95 17.51 11.15 27.76 5.9 16.95-8.69 26.3-34.93 20.41-57.3a40.8 40.8 0 0 0-7.19-15" style="fill:#fff;opacity:.4"/><path d="M158 305.39c-6.52 3.35-13.09 3.66-18.85 1.14a25.5 25.5 0 0 1-4.65-4.54 41 41 0 0 1-7.19-15c-5.88-22.36 3.46-48.6 20.42-57.3 6.52-3.34 13.09-3.65 18.85-1.13a25.8 25.8 0 0 1 4.65 4.53 41 41 0 0 1 7.19 15c5.89 22.37-3.42 48.61-20.42 57.3" style="fill:#fafafa"/><path d="M145.06 234.82a1.32 1.32 0 0 0-.45 1.39l.92 4.09c.13.55.53.82.9.6a1.32 1.32 0 0 0 .45-1.39l-.92-4.09c-.13-.55-.53-.81-.9-.6m30.18 18.07a1.3 1.3 0 0 1-.52 1.34l-3 1.74c-.4.23-.82 0-.93-.5a1.3 1.3 0 0 1 .52-1.34l3-1.74c.4-.24.82-.01.93.5m-46.68 28.25a1.28 1.28 0 0 1 .52-1.34l3-1.74c.41-.23.82 0 .94.5a1.3 1.3 0 0 1-.52 1.34l-3 1.74c-.41.24-.83.01-.94-.5m30.18 18.06a1.33 1.33 0 0 0 .45-1.38l-.93-4.1c-.12-.54-.53-.81-.9-.59a1.34 1.34 0 0 0-.45 1.38l.93 4.1c.16.55.53.81.9.59" style="fill:#409e8d"/><path style="fill:#37474f" d="m170.97 268.5.12.35 3.96-.14-.12-.35zm-5.84 16.4 2.48 3.99.29-.11-2.49-3.99zm-29.06-39.51 2.49 3.99.28-.11-2.48-3.99zm-7.14 20.07.11.35 3.96-.14-.12-.35zm39.6-21.28.31.25 2.7-3.86-.31-.25zm-13.84-13.69-.51 5.17.35.13.51-5.16zm-5.43 67.78-.52 5.17.35.13.51-5.16zm-17.01-4.78.3.26 2.7-3.86-.31-.25z"/><path style="fill:#409e8d" d="m146.2 291.67-.29-.11 8.93-22.83.3.11z"/><path d="M163.2 253.43s-5.51 15.26-6.48 17.24c0 0-1.61-1.24-1.71-1l-2-3.23 8.5-14Z" style="fill:#263238"/><path d="m154.7 267.44 8.5-14s-5.51 15.26-6.48 17.24Z" style="fill:#37474f"/><path d="M149.74 245.37s5.73 17.39 7.21 21.44a3.5 3.5 0 0 1 .24.71 4.06 4.06 0 0 1-1.51 4.25 1.67 1.67 0 0 1-1.75 0l-1.53-.92a2.64 2.64 0 0 1-1.14-1.75c-1.17-4.14-4.17-23.82-4.17-23.82l1.1-.85Z" style="fill:#37474f"/><path d="M157.19 267.52a4.06 4.06 0 0 1-1.51 4.25c-1.21.7-2.49-.07-2.87-1.72-1.16-4.14-4.17-23.82-4.17-23.82l1.1-.86s7.07 20.5 7.45 22.15" style="fill:#455a64"/><path d="M156 268.21a1.82 1.82 0 0 1-.68 1.92c-.55.32-1.13 0-1.3-.77a1.83 1.83 0 0 1 .69-1.92c.53-.32 1.11.03 1.29.77" style="fill:#263238"/><path d="m35.45 194.56.47-.27-2.2-3.92-.51.29-.1.06a33.24 33.24 0 0 0-11.54 12c-7.22 12.5-8.84 31.65-5 57.91 3.25 22.18 8.45 37.31 11.59 45l6.65 3.83s-9-17.08-13.79-49.52c-5.21-35.51-.24-56.41 14.43-65.38" style="fill:#37474f"/><path d="M58.09 240.23c4.76 32.43 13.78 49.52 13.78 49.52l-37.05 19.71s-9-17.08-13.79-49.52c-5.22-35.51-.25-56.41 14.42-65.38 5.7-3.3 10.69-4.37 18.41-4.18a31 31 0 0 1 5.79.76 22 22 0 0 0-.67 2.2c-3.53 11.23-3.86 26.66-.89 46.89" style="fill:#263238"/><path d="M32.64 278.23c-6.76-30.91-4.8-53-4.05-59.06l-4.19-2.42s-4.4 24.71 3.84 62.44c8.06 36.84 30 60.59 48.2 71.61l2.56-3.72c-9.69-5.83-36.93-25.73-46.36-68.85" style="fill:#37474f"/><path d="M24.4 216.75a125 125 0 0 0-1.27 19.07c0 6.38.39 12.75 1 19.1s1.62 12.65 2.8 18.92l.94 4.7c.32 1.56.74 3.1 1.11 4.65.68 3.12 1.73 6.15 2.63 9.21a129.4 129.4 0 0 0 7.57 17.6 120 120 0 0 0 10.27 16.13 97.5 97.5 0 0 0 28.28 25.43 91 91 0 0 1-15.24-11.47A104.7 104.7 0 0 1 49.69 326a119.6 119.6 0 0 1-10.18-16.13 127 127 0 0 1-7.43-17.56c-.92-3.05-2-6.06-2.66-9.17-.37-1.54-.8-3.08-1.13-4.64l-1-4.68c-1.19-6.25-2.23-12.54-2.87-18.88s-1.06-12.7-1.11-19.07a125 125 0 0 1 1.09-19.12"/><path d="M130.56 332.57c-.27 6.87.74 17.75-12.23 23.1l-.29.11-.78.27c-.73.23-1.48.44-2.27.61l-1.17.23-1.2.17h-.07l-1.2.12-1.42.08h-2.11c-.49 0-1 0-1.49-.07-1.27-.09-2.57-.23-3.89-.45a43 43 0 0 1-3.56-.71 57 57 0 0 1-5.64-1.7c-.63-.22-1.25-.46-1.87-.7-1-.41-2-.83-3-1.28l-1.79-.88a63.5 63.5 0 0 1-7.47-4.41l-.1-.05c-9.66-5.83-36.91-25.72-46.34-68.85-6.76-30.91-4.81-53-4-59.06l29.28-16.91c.31-3.4.62-5.21.62-5.21l4.2 2.42c-.75 6-2.7 28.16 4 59.06 9.79 44.7 30.26 62 44 69.14a43.8 43.8 0 0 0 19.79 4.97" style="fill:#263238"/><path d="m62.71 199.47-4.2-2.42-34.11 19.7 4.19 2.42 29.29-16.91z"/><path d="m31 291.24.67 3.37s-3.83-.48-7.1-1c-1.81-.29-3-1.12-3.23-1.95v-.16l-5.88-28.16 10.38 3.17Z" style="fill:#263238"/><path d="m16.78 261.94-.2-1.34c-1.58.39-1.19 2.23-1.14 2.71.09.88 1.3 1.86 3.29 2.17 3.27.53 7.1 1 7.1 1l39.67-23a.86.86 0 0 0 0-1.49l-1.86-1.07-38.31 22.23Z"/><path d="M71.74 270.53a.8.8 0 0 1 .07.3.86.86 0 0 1-.43.75l-39.67 23-5.88-28.13 40.06-24Z" style="fill:#37474f"/><path d="m103.36 232 52.29-30.21c-2.43.65-7.26-.81-12.57-5.64-6-5.46-11.63-13.55-26.09-21.9-10.06-5.8-21.32-7.13-31-6.5-16.83 1.1-21.33 5.07-30.84 10.45-12.39 7-19.52 11.11-21.4 12.21 10.77-6 27.06-7.5 48.41 4.83A79 79 0 0 1 98.22 207c6.61 6.48 9.89 15.79 5.66 24-.17.33-.34.65-.52 1" style="fill:#263238"/><path d="m33.72 190.37 2.2 3.92a31.93 31.93 0 0 1 15.8-3.94h.05v-4.51a36.45 36.45 0 0 0-18.05 4.53m18.05-.02c8.61 0 18.06 3 28.11 8.76a76.2 76.2 0 0 1 15.18 11.1c5.29 5.19 8 12.46 4.81 18.72-.14.26-.68 1.22-.83 1.48l4.32 1.55c.18-.31.35-.63.52-1 4.23-8.23 1-17.54-5.66-24a79 79 0 0 0-16.09-11.76c-11.65-6.73-21.79-9.35-30.35-9.36Z" style="fill:#37474f"/><path d="M159.79 204.77a5.58 5.58 0 0 0-2.4-2.93c-.62-.37-1.11-.45-1.39-.29l-54.14 30.56a.86.86 0 0 0-.32.89 4.86 4.86 0 0 0 2.21 3.08c.78.46 1.41.45 1.68 0l54.14-30.57c.22-.05.32-.32.22-.74" style="fill:#455a64"/><path d="m117.73 294.59-11-6.55 14.41 39.53 10.95 6.55 6.57-3.79-3.36-14.75c-7.39-3.67-13.68-10.92-17.57-20.99" style="fill:#409e8d"/><path d="m117.73 294.59-11-6.55 14.41 39.53 10.95 6.55 6.57-3.79-3.36-14.75c-7.39-3.67-13.68-10.92-17.57-20.99" style="fill:#fff;opacity:.30000000000000004"/><path d="M122.29 323.52c-.4-1.2.19-1.63 1.3-1a7.24 7.24 0 0 1 2.74 3.38c.39 1.2-.19 1.64-1.3 1a7.2 7.2 0 0 1-2.74-3.38" style="fill:#409e8d"/><path d="M132.13 334.12 117 292.6v.11c3.81 11.05 10.42 19 18.3 22.87l3.36 14.75Z" style="fill:#fff;opacity:.30000000000000004"/><path d="m104.65 222.38-6.57 3.79 5.07 47.31 11 6.55v-.1a73.8 73.8 0 0 1 4.85-36.25l-3.36-14.75Z" style="fill:#409e8d"/><path d="m104.65 222.38-6.57 3.79 5.07 47.31 11 6.55v-.1a73.8 73.8 0 0 1 4.85-36.25l-3.36-14.75Z" style="fill:#fff;opacity:.30000000000000004"/><path d="M102.13 233.3a4.84 4.84 0 0 0 2.21 3.07c1.12.67 1.93.37 1.82-.66a4.83 4.83 0 0 0-2.22-3.07c-1.11-.64-1.94-.37-1.81.66" style="fill:#409e8d"/><path d="m109.08 232.72 5.07 47.34v-.12a73.8 73.8 0 0 1 4.85-36.26l-3.36-14.75Z" style="fill:#fff;opacity:.30000000000000004"/><path style="fill:#fff;opacity:.6000000000000001" d="m98.12 226.16 10.96 6.56 6.56-3.79-10.95-6.55z"/><path d="M105.13 278.79c.71-.41 1.85-.24 3.26.6a15.24 15.24 0 0 1 6.32 8.38c.34 1.46.06 2.45-.64 2.85l-3.34 1.94c-.71.4-1.85.23-3.25-.61a15.3 15.3 0 0 1-6.33-8.37c-.33-1.47-.06-2.45.65-2.86Z" style="fill:#409e8d"/><path d="M105.13 278.79c.71-.41 1.85-.24 3.26.6a15.24 15.24 0 0 1 6.32 8.38c.34 1.46.06 2.45-.64 2.85l-3.34 1.94c-.71.4-1.85.23-3.25-.61a15.3 15.3 0 0 1-6.33-8.37c-.33-1.47-.06-2.45.65-2.86Z" style="opacity:.15"/><path d="m108.82 288.17 4.94-2.86a10.5 10.5 0 0 1 .95 2.46c.34 1.46.06 2.45-.64 2.85l-3.34 1.94c-.71.4-1.85.23-3.25-.61a12.3 12.3 0 0 1-2.21-1.73Z" style="opacity:.15"/><path d="m109.61 287.9 4.23-2.45-.16-.28-4.26 2.47Zm3.18-4.2-4.26 2.47.2.25L113 284Zm2 5.86-4.4 2.54.19.26 4-2.33a2.2 2.2 0 0 0 .21-.47m-4.13 1.34 4.17-2.41v-.35l-4.31 2.5Zm-.39-1.54 4.2-2.43c0-.1-.07-.2-.11-.31l-4.29 2.48Zm1.43-7.06-4.24 2.45.2.26 4.25-2.46Zm-1.21-1.3-4.23 2.45.2.26 4.27-2.47Zm-2.8-2-4.17 2.42.2.25 4.28-2.47c-.08-.07-.2-.12-.31-.2m-5.69 1.93.19.25 4.41-2.55a3.6 3.6 0 0 0-.55-.05Zm7.23-1-4.2 2.43.19.25 4.29-2.48a3 3 0 0 0-.33-.2Z" style="opacity:.25"/><path d="M111.38 289.7c.67 2.93-1.08 3.94-3.91 2.25a15.34 15.34 0 0 1-6.32-8.37c-.66-2.94 1.09-3.95 3.91-2.26a15.33 15.33 0 0 1 6.32 8.38" style="fill:#409e8d"/><path d="M87.94 129.53h-.07a33.1 33.1 0 0 1-10.62-.78A1.71 1.71 0 0 1 76 127l.33-4.46a26.4 26.4 0 0 1-6.5-3.26l-3.37 2.92a1.71 1.71 0 0 1-2.21 0 32.2 32.2 0 0 1-7-8.06 1.72 1.72 0 0 1 .35-2.18L61 109a26.5 26.5 0 0 1-2.29-6.89l-4.45-.32a1.7 1.7 0 0 1-1.58-1.54 33 33 0 0 1 0-5.36 32.6 32.6 0 0 1 .83-5.28 1.71 1.71 0 0 1 1.79-1.29l4.45.33A27.2 27.2 0 0 1 63 82.16l-3-3.37a1.74 1.74 0 0 1 0-2.22 32.3 32.3 0 0 1 8.07-6.95 1.7 1.7 0 0 1 2.18.35l2.92 3.38a26 26 0 0 1 6.9-2.27l.33-4.47A1.67 1.67 0 0 1 81.94 65a33.1 33.1 0 0 1 10.62.78 1.71 1.71 0 0 1 1.29 1.79l-.33 4.46a26.4 26.4 0 0 1 6.5 3.26l3.37-2.91a1.74 1.74 0 0 1 2.21 0 32 32 0 0 1 7 8.06 1.72 1.72 0 0 1-.35 2.18l-3.39 2.92a27 27 0 0 1 2.29 6.9l4.45.33a1.7 1.7 0 0 1 1.58 1.54 33 33 0 0 1 0 5.34 34 34 0 0 1-.82 5.28 1.7 1.7 0 0 1-1.79 1.3l-4.45-.32a26.8 26.8 0 0 1-3.27 6.48l2.91 3.38a1.7 1.7 0 0 1 0 2.2 32 32 0 0 1-8.06 7 1.69 1.69 0 0 1-2.18-.35l-2.92-3.37a27 27 0 0 1-6.9 2.27l-.29 4.48a1.71 1.71 0 0 1-1.47 1.53m-18.3-12.12a.77.77 0 0 1 .58.15 24.6 24.6 0 0 0 7.17 3.59.81.81 0 0 1 .61.85l-.37 5.1a24.4 24.4 0 0 0 5.07.88 32 32 0 0 0 5.07 0l.45-5.18a.82.82 0 0 1 .68-.75 24.8 24.8 0 0 0 7.62-2.5.8.8 0 0 1 1 .19l3.33 3.85a28.5 28.5 0 0 0 7.76-6.59l-3.33-4a.81.81 0 0 1 0-1 24.8 24.8 0 0 0 3.61-7.15.82.82 0 0 1 .83-.57l5.08.38a.12.12 0 0 0 .1-.06 31 31 0 0 0 .78-5 30.6 30.6 0 0 0 0-5.07l-5.31-.53a.82.82 0 0 1-.75-.68 25 25 0 0 0-2.52-7.62.83.83 0 0 1 .19-1l3.87-3.32a28.8 28.8 0 0 0-6.59-7.77l-4 3.33a.81.81 0 0 1-1 .05 24.5 24.5 0 0 0-7.16-3.6.8.8 0 0 1-.57-.83l.37-5.1a23.7 23.7 0 0 0-5.07-.87 30.6 30.6 0 0 0-5.07 0l-.45 5.19a.81.81 0 0 1-.69.74 24.3 24.3 0 0 0-7.61 2.51.83.83 0 0 1-1-.19L69 71a28.7 28.7 0 0 0-7.78 6.58l3.34 4a.81.81 0 0 1 0 1A25 25 0 0 0 61 89.76a.82.82 0 0 1-.83.56L55.11 90a24.5 24.5 0 0 0-.89 5 32 32 0 0 0 .05 5.09l5.17.44a.82.82 0 0 1 .75.68 24.7 24.7 0 0 0 2.52 7.61.83.83 0 0 1-.19 1l-3.87 3.34a28.9 28.9 0 0 0 6.59 7.77l4-3.34a.8.8 0 0 1 .4-.18m17.46-4.68a15.67 15.67 0 0 1-14-5.26 15.85 15.85 0 0 1-2.26-17.09 14.83 14.83 0 0 1 9.3-8A15.7 15.7 0 0 1 99 104.17a14.83 14.83 0 0 1-9.3 8 18 18 0 0 1-2.6.56m-4.19-29.3a16 16 0 0 0-2.32.48 13.15 13.15 0 0 0-8.27 7.14 14.08 14.08 0 0 0 16.9 19.59 13.2 13.2 0 0 0 8.28-7.14 14.26 14.26 0 0 0-2-15.36 14.09 14.09 0 0 0-12.59-4.71M138 54.84a12.06 12.06 0 0 0-7.57 6.53 12.72 12.72 0 0 0 11.52 18.26 14 14 0 0 0 1.69-.11 15 15 0 0 0 2.09-.43 12.07 12.07 0 0 0 7.56-6.53A12.76 12.76 0 0 0 138 54.84m13.86 17.08a10.44 10.44 0 0 1-6.56 5.66A11.19 11.19 0 0 1 131.82 62a10.42 10.42 0 0 1 6.57-5.67 12 12 0 0 1 1.84-.38 11 11 0 0 1 1.5-.1 11.17 11.17 0 0 1 8.5 3.84 11.33 11.33 0 0 1 1.59 12.23Zm16.05-7.35a1.5 1.5 0 0 0-1.39-1.36L163 63a21.8 21.8 0 0 0-1.78-5.4l2.64-2.27a1.52 1.52 0 0 0 .31-1.93 26.2 26.2 0 0 0-5.63-6.51 1.51 1.51 0 0 0-1.94 0l-2.6 2.26a21 21 0 0 0-5.07-2.54l.25-3.49a1.48 1.48 0 0 0-1.18-1.57 26 26 0 0 0-4.26-.67 27 27 0 0 0-4.31 0 1.48 1.48 0 0 0-1.36 1.4l-.26 3.48a21.5 21.5 0 0 0-5.39 1.78l-2.28-2.64a1.5 1.5 0 0 0-1.92-.31 26.1 26.1 0 0 0-6.52 5.62 1.54 1.54 0 0 0 0 1.95l2.3 2.67a22 22 0 0 0-2.56 5.07l-3.44-.25a1.49 1.49 0 0 0-1.58 1.13 26 26 0 0 0-.67 4.27 25 25 0 0 0 0 4.33 1.49 1.49 0 0 0 1.39 1.35l3.48.26a21.4 21.4 0 0 0 1.78 5.38l-2.64 2.29a1.5 1.5 0 0 0-.31 1.92 26.2 26.2 0 0 0 5.63 6.51 1.5 1.5 0 0 0 1.94 0l2.64-2.28a21.5 21.5 0 0 0 5.07 2.54l-.25 3.49a1.5 1.5 0 0 0 1.14 1.58 27 27 0 0 0 4.26.66c.66 0 1.32.07 2 .07s1.58 0 2.36-.1a1.51 1.51 0 0 0 1.31-1.38l.25-3.49a21.5 21.5 0 0 0 5.39-1.78l2.31 2.6a1.5 1.5 0 0 0 1.92.31 26.2 26.2 0 0 0 6.52-5.63 1.52 1.52 0 0 0 0-2l-2.28-2.63a22 22 0 0 0 2.53-5.05l3.47.26a1.52 1.52 0 0 0 1.58-1.15 27 27 0 0 0 .67-4.27 27 27 0 0 0-.04-4.27Zm-1.53 4.2a25 25 0 0 1-.61 4l-4-.29a.77.77 0 0 0-.8.54 20 20 0 0 1-2.97 5.67.77.77 0 0 0 0 1l2.61 3.11a22.9 22.9 0 0 1-6 5.14l-2.61-3a.77.77 0 0 0-.95-.18 20.1 20.1 0 0 1-6.09 2 .79.79 0 0 0-.66.71l-.3 4.01a25 25 0 0 1-3.95 0 20 20 0 0 1-4-.67l.29-4a.78.78 0 0 0-.54-.81 19.6 19.6 0 0 1-5.73-2.87.86.86 0 0 0-.56-.14.8.8 0 0 0-.41.18l-3.1 2.65a23.3 23.3 0 0 1-5.13-6l3-2.61a.78.78 0 0 0 .18-1 20.1 20.1 0 0 1-2-6.07.79.79 0 0 0-.72-.66l-4-.35a24 24 0 0 1 0-4 18.7 18.7 0 0 1 .68-3.95l4 .3H122a.77.77 0 0 0 .74-.55 20.4 20.4 0 0 1 2.88-5.72.77.77 0 0 0 0-1L123 51.16a22.9 22.9 0 0 1 6-5.16l2.6 3a.78.78 0 0 0 1 .19 19.4 19.4 0 0 1 6.07-2 .79.79 0 0 0 .67-.72l.35-4.06a25 25 0 0 1 3.95 0 20 20 0 0 1 3.94.67l-.29 4a.78.78 0 0 0 .55.81 19.6 19.6 0 0 1 5.72 2.87.78.78 0 0 0 1 0l3.11-2.61a22.9 22.9 0 0 1 5.13 6l-3 2.61a.78.78 0 0 0-.18.95 20 20 0 0 1 2 6.09.78.78 0 0 0 .72.65l4 .35a23.7 23.7 0 0 1 0 3.97ZM410.59 128l-.33-4.46a27 27 0 0 1-6.9-2.27l-2.92 3.37a1.69 1.69 0 0 1-2.18.35 32 32 0 0 1-8.06-7 1.7 1.7 0 0 1 0-2.2l2.91-3.38a26.8 26.8 0 0 1-3.27-6.48l-4.45.32a1.7 1.7 0 0 1-1.79-1.3 34 34 0 0 1-.82-5.28 33 33 0 0 1 0-5.34 1.7 1.7 0 0 1 1.58-1.54l4.45-.33a27 27 0 0 1 2.29-6.9l-3.39-2.92a1.72 1.72 0 0 1-.35-2.18 32 32 0 0 1 7-8.06 1.74 1.74 0 0 1 2.21 0l3.43 2.92a26.4 26.4 0 0 1 6.5-3.26l-.33-4.46a1.71 1.71 0 0 1 1.29-1.79 33.1 33.1 0 0 1 10.6-.81 1.67 1.67 0 0 1 1.54 1.58l.33 4.47a26 26 0 0 1 6.9 2.27l2.92-3.32a1.7 1.7 0 0 1 2.18-.35 32.3 32.3 0 0 1 8.07 6.92 1.74 1.74 0 0 1 0 2.22l-2.92 3.37a27.2 27.2 0 0 1 3.27 6.5l4.45-.33a1.71 1.71 0 0 1 1.79 1.29 32.6 32.6 0 0 1 .83 5.28 33 33 0 0 1-.05 5.36 1.7 1.7 0 0 1-1.58 1.54l-4.45.32A26.5 26.5 0 0 1 439 109l3.39 2.93a1.72 1.72 0 0 1 .35 2.18 32.2 32.2 0 0 1-7 8.06 1.71 1.71 0 0 1-2.21 0l-3.37-2.92a26.4 26.4 0 0 1-6.5 3.26L424 127a1.71 1.71 0 0 1-1.29 1.79 33.1 33.1 0 0 1-10.62.78h-.07a1.71 1.71 0 0 1-1.43-1.57m20.2-10.35 4 3.34a28.9 28.9 0 0 0 6.59-7.77l-3.87-3.34a.83.83 0 0 1-.19-1 24.7 24.7 0 0 0 2.52-7.61.82.82 0 0 1 .75-.68l5.17-.44a32 32 0 0 0 0-5.09 24.5 24.5 0 0 0-.89-5.07l-5.09.37a.82.82 0 0 1-.83-.56 25 25 0 0 0-3.61-7.17.81.81 0 0 1 .05-1l3.34-4A28.7 28.7 0 0 0 431 71l-3.32 3.86a.83.83 0 0 1-1 .19 24.3 24.3 0 0 0-7.61-2.51.81.81 0 0 1-.69-.74l-.45-5.19a30.6 30.6 0 0 0-5.07 0 23.7 23.7 0 0 0-5.07.87l.37 5.1a.8.8 0 0 1-.57.83 24.5 24.5 0 0 0-7.16 3.6.81.81 0 0 1-1-.05l-4-3.33a28.8 28.8 0 0 0-6.59 7.77l3.87 3.32a.83.83 0 0 1 .19 1 25 25 0 0 0-2.52 7.62.82.82 0 0 1-.75.68l-5.17.45a30.6 30.6 0 0 0 0 5.07 31 31 0 0 0 .78 5 .12.12 0 0 0 .1.06l5.08-.38a.82.82 0 0 1 .83.57 24.8 24.8 0 0 0 3.61 7.15.81.81 0 0 1-.05 1l-3.33 4a28.5 28.5 0 0 0 7.76 6.59l3.33-3.85a.8.8 0 0 1 1-.19 24.8 24.8 0 0 0 7.62 2.5.82.82 0 0 1 .68.75l.45 5.18a32 32 0 0 0 5.07 0 24.4 24.4 0 0 0 5.07-.88l-.37-5.1a.81.81 0 0 1 .56-.83 24.6 24.6 0 0 0 7.17-3.59.77.77 0 0 1 .58-.15.8.8 0 0 1 .39.23Zm-20.46-5.4a14.83 14.83 0 0 1-9.3-8 15.7 15.7 0 0 1 18.83-21.82 14.83 14.83 0 0 1 9.3 8 15.85 15.85 0 0 1-2.26 17.09 15.67 15.67 0 0 1-14 5.26 18 18 0 0 1-2.57-.58Zm-5.82-24.06a14.26 14.26 0 0 0-2 15.36 13.2 13.2 0 0 0 8.28 7.14 14.08 14.08 0 0 0 16.9-19.59 13.15 13.15 0 0 0-8.27-7.14 16 16 0 0 0-2.32-.48 14.09 14.09 0 0 0-12.59 4.66Zm-55.92-29.5a12.86 12.86 0 0 0-1.84 13.87 12.07 12.07 0 0 0 7.56 6.53 15 15 0 0 0 2.09.43 14 14 0 0 0 1.69.11 12.72 12.72 0 0 0 11.52-18.26 12.06 12.06 0 0 0-7.61-6.53 12.86 12.86 0 0 0-13.41 3.85m1.18 1a11.17 11.17 0 0 1 8.5-3.84 11 11 0 0 1 1.5.1 12 12 0 0 1 1.84.38 10.42 10.42 0 0 1 6.57 5.67 11.19 11.19 0 0 1-13.44 15.56 10.44 10.44 0 0 1-6.56-5.66 11.33 11.33 0 0 1 1.59-12.19Zm-17.68 9.17a27 27 0 0 0 .67 4.27 1.52 1.52 0 0 0 1.58 1.15l3.47-.26a22 22 0 0 0 2.56 5.07l-2.28 2.63a1.52 1.52 0 0 0 0 2 26.2 26.2 0 0 0 6.52 5.63 1.5 1.5 0 0 0 1.89-.35l2.28-2.64a21.5 21.5 0 0 0 5.39 1.78l.25 3.49a1.51 1.51 0 0 0 1.31 1.37c.78.07 1.57.1 2.36.1s1.32 0 2-.07a27 27 0 0 0 4.26-.66 1.5 1.5 0 0 0 1.14-1.58l-.25-3.49a21.5 21.5 0 0 0 5.07-2.54l2.69 2.31a1.5 1.5 0 0 0 1.94 0 26.2 26.2 0 0 0 5.63-6.51 1.5 1.5 0 0 0-.31-1.92l-2.64-2.29a21.4 21.4 0 0 0 1.74-5.35l3.48-.26a1.49 1.49 0 0 0 1.39-1.35 25 25 0 0 0 0-4.33 26 26 0 0 0-.67-4.27 1.49 1.49 0 0 0-1.56-1.14l-3.47.25a22 22 0 0 0-2.53-5.07l2.29-2.64a1.54 1.54 0 0 0 0-1.95 26.1 26.1 0 0 0-6.52-5.62 1.5 1.5 0 0 0-1.92.31l-2.28 2.64a21.5 21.5 0 0 0-5.39-1.78l-.26-3.48a1.48 1.48 0 0 0-1.36-1.4 27 27 0 0 0-4.31 0 26 26 0 0 0-4.26.67 1.48 1.48 0 0 0-1.14 1.57l.25 3.49a21 21 0 0 0-5.1 2.51l-2.64-2.27a1.51 1.51 0 0 0-1.94 0 26.2 26.2 0 0 0-5.63 6.51 1.52 1.52 0 0 0 .31 1.93l2.64 2.27A21.8 21.8 0 0 0 337 63l-3.48.25a1.5 1.5 0 0 0-1.39 1.36 27 27 0 0 0-.04 4.27Zm1.59-4.06 4-.35a.78.78 0 0 0 .72-.65 20 20 0 0 1 2-6.09.78.78 0 0 0-.18-.95l-3-2.61a22.9 22.9 0 0 1 5.13-6l3.11 2.61a.78.78 0 0 0 1 0 19.6 19.6 0 0 1 5.72-2.87.78.78 0 0 0 .55-.81l-.29-4a20 20 0 0 1 3.94-.67 25 25 0 0 1 4 0l.34 4.06a.79.79 0 0 0 .67.72 19.5 19.5 0 0 1 6.08 2 .77.77 0 0 0 .95-.19l2.6-3a22.9 22.9 0 0 1 5.98 5.16l-2.62 3.11a.77.77 0 0 0 0 1 20.4 20.4 0 0 1 2.87 5.73.77.77 0 0 0 .74.55h.06l4-.3a18.7 18.7 0 0 1 .68 3.95 24 24 0 0 1 0 4l-4 .35a.79.79 0 0 0-.72.66 20.1 20.1 0 0 1-2 6.07.78.78 0 0 0 .18 1l3 2.61a23.3 23.3 0 0 1-5.13 6l-3.11-2.62a.8.8 0 0 0-.41-.18.86.86 0 0 0-.56.14 19.6 19.6 0 0 1-5.8 2.77.78.78 0 0 0-.54.81l.29 4a20 20 0 0 1-3.95.67 25 25 0 0 1-4 0l-.34-4.06a.79.79 0 0 0-.66-.71 20.1 20.1 0 0 1-6.09-2 .77.77 0 0 0-.95.18l-2.61 3a22.9 22.9 0 0 1-6-5.14l2.67-3.09a.77.77 0 0 0 0-1 20 20 0 0 1-2.89-5.66.77.77 0 0 0-.8-.54l-4 .29a25 25 0 0 1-.61-4 23.7 23.7 0 0 1-.02-3.93Z" style="fill:#e0e0e0"/><path d="M469.38 335.4a.23.23 0 0 1-.23-.21l-.4-4.42a.72.72 0 0 0-.63-.65l-3.47-.38a.23.23 0 0 1-.21-.23.25.25 0 0 1 .21-.24l3.47-.38a.72.72 0 0 0 .63-.64l.4-4.42a.23.23 0 0 1 .46 0l.4 4.42a.72.72 0 0 0 .63.64l3.47.38a.25.25 0 0 1 .21.24.23.23 0 0 1-.21.23l-3.47.38a.72.72 0 0 0-.63.65l-.4 4.42a.23.23 0 0 1-.23.21m-2.57-5.89 1.36.15a1.18 1.18 0 0 1 1.05 1.06l.16 1.84.17-1.84a1.17 1.17 0 0 1 1-1.06l1.36-.15-1.36-.15a1.17 1.17 0 0 1-1-1.07l-.17-1.83-.16 1.83a1.18 1.18 0 0 1-1.05 1.07Z" style="fill:#409e8d"/><g style="opacity:.5"><path d="M484.3 325.7a.3.3 0 0 1-.3-.27l-.5-5.55a.9.9 0 0 0-.79-.81l-4.35-.48a.29.29 0 0 1-.26-.29.28.28 0 0 1 .26-.29l4.35-.49a.88.88 0 0 0 .79-.8l.5-5.55a.3.3 0 0 1 .3-.27.29.29 0 0 1 .29.27l.5 5.55a.88.88 0 0 0 .79.8l4.35.49a.28.28 0 0 1 .26.29.29.29 0 0 1-.26.29l-4.35.48a.9.9 0 0 0-.79.81l-.5 5.55a.29.29 0 0 1-.29.27m-3.23-7.4 1.71.19a1.48 1.48 0 0 1 1.31 1.33l.21 2.3.2-2.29a1.49 1.49 0 0 1 1.31-1.34l1.71-.19-1.71-.19a1.5 1.5 0 0 1-1.31-1.34l-.2-2.3-.21 2.3a1.49 1.49 0 0 1-1.31 1.34Z" style="fill:#409e8d"/></g><path d="M457.53 170.25a.28.28 0 0 1-.28-.26l-.48-5.34a.86.86 0 0 0-.76-.77l-4.19-.47a.28.28 0 0 1 0-.56l4.19-.46a.88.88 0 0 0 .76-.78l.48-5.34a.28.28 0 0 1 .56 0l.48 5.34a.88.88 0 0 0 .76.78l4.19.46a.28.28 0 0 1 0 .56l-4.19.47a.86.86 0 0 0-.76.77l-.48 5.34a.28.28 0 0 1-.28.26m-3.1-7.12 1.64.18a1.44 1.44 0 0 1 1.26 1.29l.2 2.21.2-2.21a1.44 1.44 0 0 1 1.26-1.29l1.64-.18L459 163a1.43 1.43 0 0 1-1.26-1.29l-.2-2.21-.2 2.21a1.43 1.43 0 0 1-1.26 1.29Z" style="fill:#409e8d"/><g style="opacity:.5"><path d="M472.9 177.89a.18.18 0 0 1-.18-.16l-.29-3.26a.53.53 0 0 0-.43-.47l-2.55-.28a.17.17 0 0 1 0-.34l2.55-.29a.51.51 0 0 0 .47-.47l.29-3.26a.18.18 0 0 1 .18-.16.18.18 0 0 1 .17.16l.29 3.26a.51.51 0 0 0 .47.47l2.55.29a.17.17 0 0 1 0 .34l-2.55.28a.53.53 0 0 0-.47.48l-.29 3.26a.18.18 0 0 1-.21.15m-1.9-4.35 1 .11a.86.86 0 0 1 .77.79l.13 1.35.12-1.35a.86.86 0 0 1 .77-.79l1-.11-1-.11a.87.87 0 0 1-.77-.79l-.12-1.35-.13 1.35a.87.87 0 0 1-.77.79Z" style="fill:#409e8d"/></g><path d="M311.6 340.79a.23.23 0 0 1-.23-.21l-.57-6.31a1.11 1.11 0 0 0-1-1l-4.94-.55a.22.22 0 0 1-.2-.22.22.22 0 0 1 .2-.23l4.94-.55a1.1 1.1 0 0 0 1-1l.57-6.31a.23.23 0 0 1 .46 0l.56 6.31a1.12 1.12 0 0 0 1 1l4.94.55a.22.22 0 0 1 .2.23.22.22 0 0 1-.2.22l-4.94.55a1.13 1.13 0 0 0-1 1l-.56 6.31a.23.23 0 0 1-.23.21m-4.63-8.3 2.89.32a1.59 1.59 0 0 1 1.4 1.42l.34 3.79.34-3.79a1.58 1.58 0 0 1 1.4-1.42l2.89-.32-2.89-.32a1.59 1.59 0 0 1-1.4-1.43l-.34-3.74-.34 3.79a1.6 1.6 0 0 1-1.4 1.43Z" style="fill:#409e8d"/><g style="opacity:.5"><path d="M324.25 349.47a.19.19 0 0 1-.19-.17l-.31-3.51a.57.57 0 0 0-.5-.51l-2.75-.3a.19.19 0 0 1-.17-.19.18.18 0 0 1 .17-.18l2.75-.31a.57.57 0 0 0 .5-.51l.31-3.51a.19.19 0 0 1 .19-.17.18.18 0 0 1 .18.17l.32 3.51a.56.56 0 0 0 .5.51l2.75.31a.18.18 0 0 1 .16.18.19.19 0 0 1-.16.19l-2.75.3a.56.56 0 0 0-.5.51l-.32 3.51a.18.18 0 0 1-.18.17m-2-4.68 1.08.12a.94.94 0 0 1 .83.85l.13 1.45.13-1.45a.94.94 0 0 1 .83-.85l1.07-.12-1.07-.12a.94.94 0 0 1-.83-.84l-.13-1.45-.13 1.45a.94.94 0 0 1-.83.84Z" style="fill:#409e8d"/></g><path d="M375.33 162.08a.16.16 0 0 1-.15-.14l-.38-4.25a.77.77 0 0 0-.67-.69l-3.34-.37a.14.14 0 0 1-.13-.15.15.15 0 0 1 .13-.15l3.34-.37a.77.77 0 0 0 .67-.68l.38-4.26a.16.16 0 0 1 .15-.14.16.16 0 0 1 .16.14l.38 4.26a.77.77 0 0 0 .67.68l3.34.37a.15.15 0 0 1 .13.15.14.14 0 0 1-.13.15l-3.34.37a.77.77 0 0 0-.67.69l-.38 4.25a.16.16 0 0 1-.16.14m-3.12-5.6 2 .22a1.06 1.06 0 0 1 .94 1l.23 2.56.24-2.56a1.06 1.06 0 0 1 .94-1l1.95-.22-1.95-.22a1 1 0 0 1-.94-1l-.24-2.55-.23 2.55a1 1 0 0 1-.94 1Z" style="fill:#409e8d"/><g style="opacity:.5"><path d="M361.81 178.39a.31.31 0 0 1-.31-.28l-.51-5.75a.94.94 0 0 0-.82-.83l-4.51-.5a.31.31 0 0 1 0-.61l4.51-.49a.94.94 0 0 0 .82-.84l.51-5.75a.31.31 0 0 1 .31-.28.3.3 0 0 1 .3.28l.52 5.75a.93.93 0 0 0 .82.84l4.5.49a.31.31 0 0 1 0 .61l-4.5.5a.93.93 0 0 0-.82.83l-.52 5.75a.3.3 0 0 1-.3.28m-3.34-7.66 1.77.19a1.53 1.53 0 0 1 1.35 1.39l.22 2.38.21-2.38a1.55 1.55 0 0 1 1.36-1.39l1.77-.19-1.77-.2a1.54 1.54 0 0 1-1.36-1.38l-.21-2.38-.22 2.38a1.52 1.52 0 0 1-1.35 1.38Z" style="fill:#409e8d"/></g><path d="m30.39 335.19-.4-4.42a.72.72 0 0 0-.63-.65l-3.47-.38a.23.23 0 0 1-.21-.23.25.25 0 0 1 .21-.24l3.47-.38a.72.72 0 0 0 .63-.64l.4-4.42a.23.23 0 0 1 .46 0l.4 4.42a.72.72 0 0 0 .63.64l3.47.38a.25.25 0 0 1 .21.24.23.23 0 0 1-.21.23l-3.47.38a.72.72 0 0 0-.63.65l-.4 4.42a.23.23 0 0 1-.46 0m1.44-5.83a1.19 1.19 0 0 1-1-1.07l-.16-1.83-.17 1.83a1.17 1.17 0 0 1-1 1.07l-1.36.15 1.36.15a1.17 1.17 0 0 1 1 1.06l.17 1.84.16-1.84a1.19 1.19 0 0 1 1-1.06l1.36-.15Z" style="fill:#409e8d"/><g style="opacity:.5"><path d="m15.41 325.43-.5-5.55a.9.9 0 0 0-.79-.81l-4.35-.48a.29.29 0 0 1-.26-.29.28.28 0 0 1 .26-.29l4.35-.49a.88.88 0 0 0 .79-.8l.5-5.55a.29.29 0 0 1 .29-.27.3.3 0 0 1 .3.27l.5 5.55a.88.88 0 0 0 .79.8l4.35.49a.28.28 0 0 1 .26.29.29.29 0 0 1-.26.29l-4.35.48a.9.9 0 0 0-.79.81l-.5 5.55a.3.3 0 0 1-.3.27.29.29 0 0 1-.29-.27m1.81-7.32a1.49 1.49 0 0 1-1.31-1.34l-.21-2.3-.2 2.3a1.5 1.5 0 0 1-1.31 1.34l-1.71.19 1.71.19a1.49 1.49 0 0 1 1.31 1.34l.2 2.29.21-2.3a1.48 1.48 0 0 1 1.31-1.33l1.71-.19Z" style="fill:#409e8d"/></g><path d="m42.19 170-.48-5.34a.86.86 0 0 0-.76-.77l-4.19-.47a.28.28 0 0 1 0-.56l4.19-.46a.88.88 0 0 0 .76-.78l.48-5.34a.28.28 0 0 1 .56 0l.48 5.34a.88.88 0 0 0 .76.78l4.19.46a.28.28 0 0 1 0 .56l-4.19.47a.86.86 0 0 0-.76.77l-.48 5.34a.28.28 0 0 1-.56 0m1.74-7a1.43 1.43 0 0 1-1.26-1.29l-.2-2.21-.2 2.21A1.43 1.43 0 0 1 41 163l-1.64.18 1.64.18a1.44 1.44 0 0 1 1.26 1.29l.2 2.21.2-2.21a1.44 1.44 0 0 1 1.26-1.29l1.64-.18Z" style="fill:#409e8d"/><g style="opacity:.5"><path d="m26.93 177.73-.29-3.26a.53.53 0 0 0-.47-.48l-2.55-.28a.17.17 0 0 1 0-.34l2.55-.29a.51.51 0 0 0 .47-.47l.29-3.26a.18.18 0 0 1 .17-.16.18.18 0 0 1 .18.16l.29 3.26a.51.51 0 0 0 .47.47l2.55.29a.17.17 0 0 1 0 .34L28 174a.53.53 0 0 0-.47.48l-.29 3.26a.18.18 0 0 1-.18.16.18.18 0 0 1-.13-.17m1.07-4.3a.87.87 0 0 1-.77-.79l-.13-1.35-.1 1.35a.87.87 0 0 1-.77.79l-1 .11 1 .11a.86.86 0 0 1 .77.79l.12 1.35.13-1.35a.86.86 0 0 1 .77-.79l1-.11Z" style="fill:#409e8d"/></g><path d="m188.17 340.58-.56-6.31a1.13 1.13 0 0 0-1-1l-4.94-.55a.22.22 0 0 1-.2-.22.22.22 0 0 1 .2-.23l4.94-.55a1.12 1.12 0 0 0 1-1l.56-6.31a.23.23 0 0 1 .46 0l.57 6.31a1.1 1.1 0 0 0 1 1l4.94.55a.22.22 0 0 1 .2.23.22.22 0 0 1-.2.22l-4.94.55a1.11 1.11 0 0 0-1 1l-.57 6.31a.23.23 0 0 1-.46 0m2-8.41a1.6 1.6 0 0 1-1.4-1.43l-.37-3.74-.34 3.79a1.59 1.59 0 0 1-1.4 1.43l-2.89.32 2.89.32a1.58 1.58 0 0 1 1.4 1.42l.34 3.79.34-3.79a1.59 1.59 0 0 1 1.4-1.42l2.89-.32Z" style="fill:#409e8d"/><g style="opacity:.5"><path d="m175.57 349.3-.32-3.51a.56.56 0 0 0-.5-.51L172 345a.19.19 0 0 1-.16-.19.18.18 0 0 1 .16-.18l2.75-.31a.56.56 0 0 0 .5-.51l.32-3.51a.18.18 0 0 1 .18-.17.19.19 0 0 1 .19.17l.31 3.51a.57.57 0 0 0 .5.51l2.75.31a.18.18 0 0 1 .17.18.19.19 0 0 1-.17.19l-2.75.3a.57.57 0 0 0-.5.51l-.31 3.51a.19.19 0 0 1-.19.17.18.18 0 0 1-.18-.19m1.14-4.63a.94.94 0 0 1-.83-.84l-.13-1.45-.13 1.45a.94.94 0 0 1-.83.84l-1.07.12 1.07.12a.94.94 0 0 1 .83.85l.13 1.45.13-1.45a.94.94 0 0 1 .83-.85l1.08-.12Z" style="fill:#409e8d"/></g><path d="m126.06 159.85-.38-4.25a.76.76 0 0 0-.67-.69l-3.33-.37a.15.15 0 0 1-.14-.15.15.15 0 0 1 .14-.15l3.33-.37a.76.76 0 0 0 .67-.68l.38-4.26a.16.16 0 0 1 .16-.14.15.15 0 0 1 .15.14l.38 4.26a.78.78 0 0 0 .67.68l3.34.37a.15.15 0 0 1 .14.15.15.15 0 0 1-.14.15l-3.34.37a.78.78 0 0 0-.67.69l-.38 4.25a.15.15 0 0 1-.15.14.16.16 0 0 1-.16-.14m1.33-5.67a1.06 1.06 0 0 1-.94-1l-.23-2.56-.23 2.56a1.07 1.07 0 0 1-.94 1l-2 .21 2 .22a1.06 1.06 0 0 1 .94 1l.23 2.56.23-2.56a1.06 1.06 0 0 1 .94-1l2-.22Z" style="fill:#409e8d"/><g style="opacity:.5"><path d="m142.19 172.89-.52-5.75a.93.93 0 0 0-.82-.84l-4.5-.5a.3.3 0 0 1-.28-.3.3.3 0 0 1 .28-.3l4.5-.5a.93.93 0 0 0 .82-.84l.52-5.75a.3.3 0 0 1 .3-.27.31.31 0 0 1 .31.27l.51 5.75a.94.94 0 0 0 .82.84l4.51.5a.3.3 0 0 1 .27.3.3.3 0 0 1-.27.3l-4.51.5a.94.94 0 0 0-.82.83l-.51 5.76a.31.31 0 0 1-.31.27.3.3 0 0 1-.3-.27m1.87-7.59a1.51 1.51 0 0 1-1.35-1.38l-.22-2.38-.21 2.38a1.53 1.53 0 0 1-1.36 1.38l-1.77.2 1.77.19a1.55 1.55 0 0 1 1.36 1.39l.21 2.38.22-2.38a1.53 1.53 0 0 1 1.35-1.39l1.77-.19Z" style="fill:#409e8d"/></g><path d="m293.89 192.66-78.74-.73c-8.36 74-4.7 81.25-4.83 117.52-.06 18.56 6.36 72.24 6.2 86.71 0 .86 3.85 4.86 9.79 4.28s7.66-2.53 7.7-3.14c.16-2.14 2.52-5.14 2.85-7.26 2.17-13.83 4.73-31.64 6.93-45.79a89.4 89.4 0 0 0-.73-32.44l11.61-54.12c1 8.23 1.92 15.46 3.69 23.75l.84 3.91c.41 4.82 7.56 6 10 6.54 6.61 1.38 12.61-.09 18.72-2.95s8.95-6.38 9.22-11.91l-.11-3.2c.15-4.59 0-8.38.27-12.71 2.56-39.58.22-60.35-3.41-68.46" style="fill:#c8856a"/><path d="M215.15 188.56S211.48 214 210 236.45a779 779 0 0 0-.35 83.28c1.45 26.69 4.86 56.41 4.86 56.41s3.6 3.61 13.8 3.45 12.23-3.45 12.23-3.45 6-34.89 6.08-44.28a99 99 0 0 0-2.33-19.57l10.34-52.52s2.79 21.4 4.52 25.58 8.51 8.49 21.62 5.13 15.32-5.56 16.33-13.45 2.24-41.72 2-56.93-6.54-32.77-6.54-32.77Z" style="fill:#455a64"/><path d="M286.2 196.63c6.88 20.4 6.43 47.42 6.13 65.29-.15 8.89-.16 17.64-.13 24.44.39-.25.74-.5 1.07-.76 0-6.68 0-15.11.13-23.66.3-17.95.76-45.08-6.18-65.65Z" style="fill:#37474f"/><path d="M288.82 229.14a8.44 8.44 0 0 1-4.68-1.33c-3.13-2-5.24-6.28-6.27-12.73-2.28-14.29-3.16-20.75-3.17-20.81l1.06-.15c0 .07.89 6.52 3.17 20.79 1 6.13 2.93 10.17 5.79 12 2 1.28 4.46 1.49 7.49.64l.29 1a13.6 13.6 0 0 1-3.68.59m-34.21 30.63-3-31.36s-16.44-2.72-23.92-14.06c0 0 .8 13.36 20 18.8l1.95 25-5.3 54.12Z" style="fill:#37474f"/><path d="M308.11 393.61c-1.15-5.55-5-8.9-11.31-9s-9.34 7.73-9 11.91Z" style="fill:#263238"/><path d="M286.27 334.4a4.84 4.84 0 0 1 4.3-.81c.66.23 1 .62-.67 1.41l12 63.29a11.13 11.13 0 0 1-6.08 1.16l-12-63.3a6.64 6.64 0 0 0 2.45-1.75" style="fill:#e0e0e0"/><path d="M284.47 334.74a4.84 4.84 0 0 1 4.3-.81 1.55 1.55 0 0 1 1.13 1.07l12 63.29a1.55 1.55 0 0 1-.66 1.41 4.82 4.82 0 0 1-4.29.82 1.55 1.55 0 0 1-1.13-1.07l-12-63.3a1.54 1.54 0 0 1 .65-1.41" style="opacity:.1"/><path d="M299.05 383.21c.2 2-5.74 3-6.13.91-.94.63-1.66 1-1 3.94s-3.74 3.95-3.19 8.08c1.34 10.12 5.79 7.95 11.41 7.25 2.93-.36 6.27-2.48 7.28-4.85 0 0-.36-4.53-.63-5.6-1.05-4.18-4.9-3.48-5.45-6.36-.29-1.46-.76-3.27-2.29-3.37m-10.52-49.89a1.55 1.55 0 0 1 1.18 1 1.53 1.53 0 0 1-.58 1.45 4.82 4.82 0 0 1-4.24 1 1.55 1.55 0 0 1-1.18-1 1.53 1.53 0 0 1 .58-1.45 4.82 4.82 0 0 1 4.24-1" style="fill:#455a64"/><path d="M282.42 335a9.4 9.4 0 0 1 8.35-1.59 3 3 0 0 1 2.19 2.09l.58 3.06a3 3 0 0 1-1.27 2.74 9.39 9.39 0 0 1-8.36 1.58 3 3 0 0 1-2.19-2.08l-.58-3.06a3 3 0 0 1 1.28-2.74" style="fill:#e0e0e0"/><path d="M290.77 333.39a2.6 2.6 0 0 1 .92 4.83 9.39 9.39 0 0 1-8.36 1.58 2.59 2.59 0 0 1-.91-4.82 9.4 9.4 0 0 1 8.35-1.59" style="fill:#ebebeb"/><path d="M267.26 294.45c5.23-4.76 15.36-6.83 22-4.5 3.16 1.11 4.79 3 4.93 5.12l2.59 38.67c.06.91-.81 2-2.61 3.06a24.8 24.8 0 0 1-13.43 2.87c-2.07-.23-3.29-.88-3.59-1.75l-12.47-36.77c-.68-2.02.07-4.42 2.58-6.7" style="fill:#455a64"/><path d="M298.62 310.88v.12c0 1.16-1.18 2.95-3.07 4.73a11 11 0 0 1-.88.78 24.3 24.3 0 0 1-9.7 5.12c-7.16 1.72-15.43 1.57-16.41-.67s-2-4.59-2.81-6.61a153.6 153.6 0 0 1-6.61-22.41c-1.24-6.43-2-10.07-.84-10.47l.84 3.91s5.61 6.94 21.7 3.28c6.44-1.48 10.34-3.7 12.69-5.79.3-.27.56-.54.81-.8 2.58-2.69 2.74-5 2.74-5l.31-3.21c1.36-.16 1.15 1.93 1.09 6.36s-.74 18.87-.3 23.84c.18 1.94.32 4.48.44 6.82" style="fill:#37474f"/><path d="M295.55 315.7a11 11 0 0 1-.88.78l-.06-.44c-.16-1.22-.29-2.46-.39-3.69-.27-3-.37-6-.34-9 .05-4.56.26-9.12.1-13.68-.08-2.09-.21-4.16-.38-6.24 0-.2-.05-.39-.07-.58.3-.27.56-.54.81-.8 0 .21 0 .43.07.63q.33 3.45.49 6.9c.19 4.35.1 8.68 0 13-.06 3.16 0 6.31.25 9.45.12 1.23.23 2.44.4 3.67m-4.65-25.52a1.3 1.3 0 1 0-1.4-1.2 1.3 1.3 0 0 0 1.4 1.2m-.07 8.06a1.3 1.3 0 1 0-1.39-1.2 1.29 1.29 0 0 0 1.39 1.2m1.22 7.43a1.3 1.3 0 0 0-2.59.19 1.3 1.3 0 1 0 2.59-.19m-.05 8.22a1.3 1.3 0 1 0 1.39 1.2 1.29 1.29 0 0 0-1.39-1.2m-1.11 118.22c.59 5.95 1.68 9.87 3.94 13.29s6.29 4.35 10.3 3.16 9.07-4.13 10-9.33.57-8.71-.57-14.21Z" style="fill:#263238"/><path d="M306.3 390c1.43.39 2.7 8.08 4 16.06 1.38 8.56 3 11.1 4.2 18.11 1.38 8 .92 10.73-1.7 15.72s-12.43 10.16-17.64 3.39c-4.24-5.53-4.48-10.93-4.44-19a170 170 0 0 0-.83-19.16c-.57-6-2.68-11.63-1.26-12.35.15.88 1.72 7.6 2.82 6.81.49-.12.55-1 .37-2.53a2.7 2.7 0 0 1 .38-2 3.16 3.16 0 0 1 1.82-.9c1.62-.39 3.86-1 5.52-1.2 1-.13.43-.12 1.4-.22s2.78-.44 3.66 0c.53.25.59.76.75 1.32s.31 1.34.51 1.89c.08.22.41.68.64.64.39-.05.46-1.08.4-1.53s0-1.19-.08-1.74-.3-1.87-.52-3.31" style="fill:#37474f"/><path d="M314 421.47c.21 1.15 1.31 8.37-.73 9.85-2.21 1.59-3.7-4.41-3.7-4.41s-5.39-1.41-13 2.29c.45 1.23-.58 5.39-2.74 4.61s-3.16-8.67-3.17-8.79c0 7.73.32 12.93 4.44 18.3 5.21 6.77 15 1.59 17.63-3.39s3.09-7.71 1.71-15.72c-.09-.8-.23-2.02-.44-2.74" style="fill:#455a64"/><path d="M309 427.45c.15 2.91 2.72 1.81 3-2.3.35-6.17-1.42-12-1.68-19-1.29-8-2.32-16-4-16.06.12 1.39.45 4.37.45 4.37.07.59.19 2.09.19 2.09.76 6 2.62 12.94 2.63 19.13-.01 5.41-.72 8.86-.59 11.77m-11.49 1.63c-.66-2.84-1.62-3.61-2.42-9s-3-14.81-4.39-20.63c-.38-1.81-2.07-6.55-2.08-6.61-1 .54-1.14 3.86-.17 7.46s1.6 5.8 2.27 9.27c1.71 6.87 2.21 14.22 3.32 18.19s4.14 4.16 3.47 1.32" style="fill:#263238"/><path d="M296.86 429.25a.6.6 0 0 0 .22-.08 19.77 19.77 0 0 1 12.79-1.85.62.62 0 1 0 .27-1.2 20.65 20.65 0 0 0-13.68 2 .61.61 0 0 0-.22.84.62.62 0 0 0 .62.29m-1.92-5.72.21-.06c.06 0 7.34-3.74 14.91-2.31a.63.63 0 0 0 .73-.49.62.62 0 0 0-.5-.72c-8-1.52-15.43 2.27-15.72 2.42a.63.63 0 0 0-.26.84.6.6 0 0 0 .63.32m15.79-7.13a.61.61 0 0 0 .5-.44.62.62 0 0 0-.42-.77c-7.57-2.23-17.25 1.67-17.56 1.84a.62.62 0 0 0-.23.85.63.63 0 0 0 .85.22c.07 0 9.54-3.8 16.59-1.72a.6.6 0 0 0 .27.02m-1.42-5.17a.63.63 0 0 0 .5-.43.61.61 0 0 0-.41-.77c-8.33-2.62-16.6 2.23-16.88 2.42a.62.62 0 0 0 .68 1c.07-.05 8.07-4.7 15.83-2.27a.7.7 0 0 0 .28.05" style="fill:#f0f0f0"/><path d="M308.54 404.89a.6.6 0 0 0 .5-.42.62.62 0 0 0-.39-.78c-7.82-2.57-16.68 2.4-17 2.6a.61.61 0 0 0-.19.85.61.61 0 0 0 .85.19c.07 0 8.68-4.86 15.94-2.47a.7.7 0 0 0 .29.03" style="fill:#ebebeb"/><path d="M185.14 422.16c-.36 0-.91 3.95 1 5.63 2.25 1.94 8.83 5.14 17.55 4s11.15-2.85 14.64-5.76 6.7-6 10.64-6.83c3.66-.8 9.24-2.26 10.41-3.39s1-6.16 1-6.16Z" style="fill:#263238"/><path d="M237.14 387.86c2.62.14 1.52 6.28 2.59 8.9a57 57 0 0 1 .53 14.65c-.48 2.58-8 4.16-11.87 5.61-8.58 3.38-16 13.32-26.79 12.59-6.72-.06-14.28-2.25-16-5.37-6.76-13.7 26.63-14.28 29.28-33.81.13-1.19.84-1.8 3.49-1.84 3 0 6.74.68 8.94 3 .89 1.31 0 3.11.74 4.42 1.68.54 2.78-2.42 3.86-3.41 1.83-1.35 6.09-1.52 5.23-4.74" style="fill:#37474f"/><path d="M217.71 423.75a50 50 0 0 1 4.63-3.54s-10.62 4.17-15.35.93c-3-2.09-1.59-4.62-1.51-5.42s-7.1-4.28-10.06-4.63l-1.23-.06c-.83.45-1.82.86-2.24 1.08-8.83 4.5-8.49 8.28-6.35 12.14 1.72 3.12 7.2 5.56 15.88 5.58 5.68 0 12.13-2.72 16.23-6.08" style="fill:#455a64"/><path d="M206.3 413.35c-6.2 2.47-3.56 3.63-1.82 3.88s10.48-4.77 16.85-9.79c6.64-5.24 12.43-10.77 14.9-12.69.92-.72 1.91-1.6 2.79-2.43-.16-1.36-.29-2.6-.41-3.25a1.56 1.56 0 0 0-1.47-1.21l-.34 2.14a4.7 4.7 0 0 1-1.8 1 8 8 0 0 0-3.08 1.59 25 25 0 0 1-2.69 3.22c-5.43 6.82-16.73 15.07-22.93 17.54" style="fill:#263238"/><path d="M204.92 416.32a.67.67 0 0 0 .39-.14.61.61 0 0 0 .08-.86c-1.74-2.15-6.78-5-11.33-4.5a.61.61 0 1 0 .12 1.22c4.26-.45 8.88 2.35 10.26 4a.62.62 0 0 0 .48.28m5.42-3.04a.65.65 0 0 0 .39-.13.62.62 0 0 0 .11-.86c-1.7-2.18-6.66-5.14-11.23-4.76a.62.62 0 0 0-.57.66.61.61 0 0 0 .67.56c4.26-.34 8.82 2.56 10.16 4.29a.62.62 0 0 0 .47.24m5-3.46a.62.62 0 0 0 .39-.14.61.61 0 0 0 .09-.86c-1.74-2.15-6.78-5-11.34-4.5a.62.62 0 0 0-.54.68.6.6 0 0 0 .67.54c4.26-.45 8.88 2.35 10.26 4a.61.61 0 0 0 .47.28m4.43-3.13a.58.58 0 0 0 .39-.12.62.62 0 0 0 .13-.86c-1.65-2.22-6.58-5.27-11.14-5a.62.62 0 0 0 .08 1.23c4.26-.27 8.76 2.73 10.07 4.48a.62.62 0 0 0 .47.27m4.76-3.69a.54.54 0 0 0 .38-.12.6.6 0 0 0 .14-.85c-2.28-3.13-7.63-5.35-12.2-5a.6.6 0 0 0-.57.65.61.61 0 0 0 .65.57c4.12-.28 9.1 1.76 11.13 4.53a.6.6 0 0 0 .47.22" style="fill:#f0f0f0"/><path d="M209 303c0 1.16.06 2.31.1 3.46a69.7 69.7 0 0 1 20.84 1c-3-2.46-13.94-5.74-20.94-4.46m.23 8c0 1.09.09 2.17.13 3.24 1.58-.14 11.31-1 15.6-2.72a115 115 0 0 0-15.73-.52m76.96-41s-4.22-4.4-12.33-3.42-11.42 5.75-11.42 5.75c8.69-3.93 23.75-2.33 23.75-2.33m-19.1 3.9c4.77.95 9.55 1.37 20-.7-4.95-1.2-20 .69-20 .69Z" style="fill:#c8856a"/><path d="M237 306.64c-.86 4.42 0 8.81 1 13.89a86.4 86.4 0 0 1 2 16.08c.16 10.2-3.36 31.9-5.17 42.3.4-.08.78-.18 1.14-.28 1.83-10.6 5.26-31.91 5.11-42a88 88 0 0 0-2-16.27c-1-5.17-1.79-9.26-1-13.47 1.66-8.53 6.55-54.92 6.82-77.88h-1.07c-.26 22.86-5.14 69.13-6.83 77.63" style="fill:#37474f"/><path d="M188.29 148.44c.93-.51 2.64 1 4.93 3.14a5.18 5.18 0 0 1 1.61 4.17 7 7 0 0 1-4-2.32 12.3 12.3 0 0 1-2.54-4.99" style="fill:#263238"/><path d="M183.1 165.94c.88-.28 1.22-.66 0-1.79s-5.29-4.09-5.29-4.09l-1 1.7s4.73 4.52 6.29 4.18"/><path d="M157.14 138.24c.57-2.52 3.33-4.38 8.31-7.15 2.52-1.43 49.84-23.09 56.43-25.62 8.84-3.39 11.9-3.54 15.8-4.09l-9.13 32.11s-29.89 9.86-42.38 13.7c3.44 4.07 6.47 7.61 9.56 9l-12.19 10.34c-2.7-4.19-19.2-12.59-22.85-18.27-2.69-4.26-4.1-7.57-3.55-10.02" style="fill:#c8856a"/><path d="M237.56 101.14c-5.56.34-12.34 1.86-33.56 11.46s-36.77 15.81-42.17 20.62c12.72-.44 18.78 5.88 24 13.58L231 134Z" style="fill:#409e8d"/><path d="M172.33 135.89a26 26 0 0 0-11.08-.89 7.8 7.8 0 0 0-2.49.58 5.9 5.9 0 0 0-1.7 3.09 2.71 2.71 0 0 1 0-3.59c.71-.72 1.25-1 1.93-1.74a11.7 11.7 0 0 0 1.21-2.33 4.28 4.28 0 0 1 3-2.11 5.7 5.7 0 0 0 1.16-.23 5.4 5.4 0 0 0 1.38-1.2c1.55-1.43 4-1.28 6-.72 4.15 1.14 8.85 2.78 11.81 5.89a20.06 20.06 0 0 1 5.86 13.16 5.9 5.9 0 0 1-3.23 1.39 65.5 65.5 0 0 0-5.33-6.49 24.5 24.5 0 0 0-8.52-4.81" style="fill:#409e8d"/><path d="M172.33 135.89a26 26 0 0 0-11.08-.89 7.8 7.8 0 0 0-2.49.58 5.9 5.9 0 0 0-1.7 3.09 2.71 2.71 0 0 1 0-3.59c.71-.72 1.25-1 1.93-1.74a11.7 11.7 0 0 0 1.21-2.33 4.28 4.28 0 0 1 3-2.11 5.7 5.7 0 0 0 1.16-.23 5.4 5.4 0 0 0 1.38-1.2c1.55-1.43 4-1.28 6-.72 4.15 1.14 8.85 2.78 11.81 5.89a20.06 20.06 0 0 1 5.86 13.16 5.9 5.9 0 0 1-3.23 1.39 65.5 65.5 0 0 0-5.33-6.49 24.5 24.5 0 0 0-8.52-4.81" style="fill:#fff;opacity:.4"/><path d="M188.5 146.44c-.33-.53-.79-1.23-1.33-2-2.81-4.07-9.53-11.44-17.86-10.54 5.46 1.32 10.12 4.37 14.09 9.71l.2.25c.9 1.14 1.77 2.29 2.32 3l.25.34a5.4 5.4 0 0 0 2.33-.76" style="fill:#409e8d;opacity:.4"/><path d="M184.47 157.43c1.38-1.23 4.76-4.31 6.9-3.41 3.38 1.43 5 2.77 10 5.14 3.66 1.73 8.12 4 9.07 5.16 2.43 2.9 1.62 10.33.64 13.47s-3.94 1.8-3.94 1.8c-.29.64-1.11 2-3.7 1.51-.2 1-1.67 2.12-4 1.66-.29 1.06-2.35 1.43-3.73.81-1.91-.86-3.91-3.59-5.11-4.63s-1.78-1.43-1.81-2.08c0-.88.94-1.77 2.55-1.62a9.94 9.94 0 0 1-4.93-3.12 21.2 21.2 0 0 1-2.5-4.42 10.2 10.2 0 0 0-2.21-3.51c-1.78-2 .89-5 2.32-6.41Z" style="fill:#c8856a"/><path d="M191.42 175.24a7.7 7.7 0 0 1 1.55 1 5.6 5.6 0 0 1 .62.67c.19.25.33.52.54.79l.11.14.15-.08a6.26 6.26 0 0 1 3-.4 4.24 4.24 0 0 0-3.17 0l.27.06a6 6 0 0 0-1.28-1.46 4.55 4.55 0 0 0-1.79-.72" style="fill:#af6152"/><path d="M195 180.4c-.12-.5-.3-.92-.39-1.38a12 12 0 0 1-.28-1.4 2.1 2.1 0 0 0-.14 1.5 2.42 2.42 0 0 0 .81 1.28m4.52 2.36a10.3 10.3 0 0 0 1-3.89 10.4 10.4 0 0 0-.38-4 25 25 0 0 1-.06 4 24 24 0 0 1-.56 3.89m3.96-1.66a19.5 19.5 0 0 0 1.09-4.72 15.4 15.4 0 0 0-.21-4.83 40 40 0 0 1-.22 4.79c-.14 1.59-.43 3.16-.66 4.76m3.7-1.51a13.92 13.92 0 0 0 .83-9.77 28 28 0 0 1 0 4.92 29 29 0 0 1-.83 4.85m.6-12.31a2.7 2.7 0 0 0-.19-1.18 2.8 2.8 0 0 0-.76-1 4.65 4.65 0 0 0-2.2-.86l1 .57a5.4 5.4 0 0 1 .94.61 3.56 3.56 0 0 1 1.21 1.86m-3.78 1.47a2.56 2.56 0 0 0-.2-1.18 2.65 2.65 0 0 0-.76-1 4.53 4.53 0 0 0-2.2-.85l1 .56a6 6 0 0 1 .93.61 3.7 3.7 0 0 1 1.23 1.86m-4.57 2.08a2.56 2.56 0 0 0-.2-1.18 2.7 2.7 0 0 0-.75-1 4.6 4.6 0 0 0-2.21-.85l1 .56a6 6 0 0 1 .93.61 3.63 3.63 0 0 1 1.23 1.86" style="fill:#af6152"/><path d="m180.29 149.5 5.14-1.73a3.87 3.87 0 0 1 3.41.69l4.07 3.58a1.22 1.22 0 0 1 .51 1.13c-.06.26-.25 1.25-.31 1.51a1.2 1.2 0 0 1-.9.84l-5.13 1.73a3.85 3.85 0 0 1-3.42-.68l-4.07-3.57a1.25 1.25 0 0 1-.51-1.1c0-.28.26-1.28.31-1.54a1.23 1.23 0 0 1 .9-.86" style="fill:#37474f"/><path d="m192.91 152-4.07-3.58a3.87 3.87 0 0 0-3.41-.69l-5.14 1.73a1.07 1.07 0 0 0-.39 2l4.06 3.58a3.85 3.85 0 0 0 3.42.68l5.13-1.72a1.07 1.07 0 0 0 .4-2" style="fill:#455a64"/><path d="M185.69 155.32a3.1 3.1 0 0 0 1.53 0l5.13-1.73c.33-.11.54-.28.57-.47s-.09-.42-.34-.65l-4.07-3.58a3.33 3.33 0 0 0-2.92-.59l-5.14 1.7c-.32.11-.53.28-.57.47s.09.42.35.65l4.06 3.58a3.1 3.1 0 0 0 1.4.62" style="fill:#263238"/><path d="M188 156.37a.1.1 0 0 0 .09 0l3.64-1.22a.18.18 0 0 0 .11-.22.16.16 0 0 0-.22-.11l-3.69 1.18a.18.18 0 0 0-.11.22.16.16 0 0 0 .18.15" style="fill:#455a64"/><path d="M183.63 155.63c-.77.24-2.47 1.28-3.17 4.35s.89 5.61 2.64 6c-.61.41-2.09-.2-3.92-1.57l-1.51-1.14a4.58 4.58 0 0 1-1.84-3.88A8 8 0 0 1 176 158c.61-2.41 1.39-4.19 3.76-5.72Zm110.26 41.05c-2.66-12.15-6.71-30.06-6.81-32.74-.39-10.88 2.41-19 3.42-25.75 2.21-14.73-3.32-27.1-6.75-30 0 0-5.51-2.25-9.55-3.94-12.85-5.39-18.46-6.13-27.51-3-1.52.54-13.43 6-13.44 6s-5.23 4.28-10.13 13c-3.74 6.68-5.58 12.26-5.09 26.57.15 4.29.32 12 .15 18.11-.37 13.13-1.36 18.54-3 30.46 15.06 9.32 53.05 13.61 78.71 1.29" style="fill:#263238"/><path d="M275.67 41.85a13.27 13.27 0 0 1 14.53 3.56c3.51 4.05 4.15 9.78 4.55 15.13.7 9.27 1.2 17.09 1.37 26.38.08 4.16.71 8.29.93 12.48q.39 7 .52 14.1a5.15 5.15 0 0 1-.76 3.46 4.65 4.65 0 0 1-2.92 1.34 21.34 21.34 0 0 1-15.14-3.19 24.06 24.06 0 0 1-11-20c-.16-5.41.95-10.76 2-16.06a110 110 0 0 1 2.85-11.59c.77-2.4 1.71-4.75 2.36-7.19a31.36 31.36 0 0 0 .17-15.28" style="fill:#263238"/><path d="M281.06 41.94a15.46 15.46 0 0 1 4.82 8.41 4.34 4.34 0 0 1-.1 2.6 3.22 3.22 0 0 1-3.42 1.62 6.37 6.37 0 0 1-3.45-2 13.4 13.4 0 0 1-3.74-7.7c-.16-1.34.05-3.45 1.36-4.22 1.47-.89 3.47.35 4.53 1.29" style="fill:#409e8d"/><path d="M230.58 60.29c-2.86-6.65 0-15.43 3.49-19.55 5-6 12.82-8.49 24.54-7.7 8.91.59 19.57 4.62 21.2 13.78 8.23 4.22 5.25 15.67 3 20.48-4.67 10.11-11.28 18-11.43 23.39Z" style="fill:#263238"/><path d="M281.07 70.87c-2.93-3.71-7.09-2.87-9.13.26s-5.26 1.93-3.66-2.87c-2.15-1.11-4.79-3.43-2.48-12.28.53-2.27-.18-6.24-2.27-8.24-3.51-3.34-10.56-2.84-14.67 1-5.29-4.65-8.75-5.34-13-2.25-2.05 1.5-5.5 5.77-5.28 13.78.18 2.42-.7 5.38-.86 9.9-.6 17.08 4 20.81 8.57 23 2.71 1.3 4.22 1.55 8.62 1.65l-.22 6.46s-4.53 5.12-5.18 19.09c22.89-10.28 28-18 28-18l1.26-18.57a5.43 5.43 0 0 0 5.82.18c4.63-2.51 7.41-9.4 4.48-13.11" style="fill:#c8856a"/><path d="m251.75 78.83-8 2.5a4 4 0 0 0 5.11 2.83 4.39 4.39 0 0 0 2.89-5.33" style="fill:#af6152"/><path d="M247 84.28a3.76 3.76 0 0 1 3.87-3.59 4 4 0 0 1 .9.15 4.38 4.38 0 0 1-2.93 3.32 4 4 0 0 1-1.84.12" style="fill:#ffa8a7"/><path style="fill:#af6152" d="m246.06 61.21-1.61 15.21-7.49-3.87zm.85 33.62c5.49-.11 17.31-2.7 20.42-9.88 0 0-.61 5.18-7.48 9-5.41 3-13 3.38-13 3.38Z"/><path d="M252.11 66.22a2.42 2.42 0 1 0 2.28-2.56 2.42 2.42 0 0 0-2.28 2.56M234 65a2.43 2.43 0 1 0 2-2.87 2.44 2.44 0 0 0-2 2.87m1.28-9.48a3.47 3.47 0 0 1 4.09 2.71l-6.8 1.39a3.48 3.48 0 0 1 2.71-4.1M258 57.61a3.46 3.46 0 0 1 1.67 4.61l-6.28-2.94a3.45 3.45 0 0 1 4.61-1.67" style="fill:#263238"/><path d="m237.68 37.41 26 .91c17.32 7.55 10.1 29.92 6.32 32.55-10.29-4.77-9.24-15.17-8.27-21.08-5.46 4.78-14.41 8.13-18.58 8.41 2-2.24 3.82-7.91 3.82-7.91a21.2 21.2 0 0 1-8.54 8.62c-6.57 3.48-10.87.85-10.87.85S225.93 44 237.68 37.41" style="fill:#263238"/><path d="M269.58 99.71a55 55 0 0 1-2.72 9.72c-2.34 6.7-3.31 12.1-4.23 26.61s1.95 69.42-.18 85.8c10.79.38 28.26-6.18 36.61-14.6-.13-5.75-1.33-5.07-4.67-19.87s-7.32-16.13-6.22-24 9.65-38.84 3.83-55a90 90 0 0 1-11.07-2.55c-10.15-2.82-11.35-6.11-11.35-6.11" style="fill:#409e8d"/><path d="M269.58 99.71a55 55 0 0 1-2.72 9.72c-2.34 6.7-3.31 12.1-4.23 26.61s1.95 69.42-.18 85.8c10.79.38 28.26-6.18 36.61-14.6-.13-5.75-1.33-5.07-4.67-19.87s-7.32-16.13-6.22-24 9.65-38.84 3.83-55a90 90 0 0 1-11.07-2.55c-10.15-2.82-11.35-6.11-11.35-6.11" style="fill:#fff;opacity:.4"/><path d="m246.6 98.12-.43 1.46c-.15 4.16-9 10.48-15.31 20.09s-7.64 19.14-7.67 31.7-4.95 59.49-6.44 65.58a17 17 0 0 1-6.75-10.48c1.26-7.41 3.5-20.28 4.74-24.77s1.41-11.89 1.74-21.17a83.5 83.5 0 0 0-.32-12.05s-5.68-7.59-1.72-21.15 23.14-26.19 23.14-26.19a35 35 0 0 1 3.7-.78 20.4 20.4 0 0 0 5.32-2.24" style="fill:#409e8d"/><path d="m246.6 98.12-.43 1.46c-.15 4.16-9 10.48-15.31 20.09s-7.64 19.14-7.67 31.7-4.95 59.49-6.44 65.58a17 17 0 0 1-6.75-10.48c1.26-7.41 3.5-20.28 4.74-24.77s1.41-11.89 1.74-21.17a83.5 83.5 0 0 0-.32-12.05s-5.68-7.59-1.72-21.15 23.14-26.19 23.14-26.19a35 35 0 0 1 3.7-.78 20.4 20.4 0 0 0 5.32-2.24" style="fill:#fff;opacity:.4"/><path d="M270.05 93.94a18.9 18.9 0 0 0 7.57 10.85s-3.29 13.09-3 19.59 1.35 12.82-.43 12.71-7.12-1.94-7.12-1.94 4.09 6.46 3.61 8.43-8 24-8 24-1.9-25.83-1.2-33.36 2.58-21.37 5.52-29.22a68.7 68.7 0 0 0 3.05-11.06m-47.46 68.61c-.12-7.26-3.27-25.56-3.63-29.21s4.9-6.76 4.9-6.76-3.13.69-4.13-.14 5.57-9.67 11.12-15.45 16-14.49 16-14.49l-.19 4.79a67.7 67.7 0 0 0-8.14 10c-4.89 7.49-13.88 15.54-15.93 51.26" style="fill:#409e8d"/><path d="M304.42 219.94c3.72 1.06 8.49-3.57 9.79-5.18s-.37-5.43-1.16-8.66 0-8.69-4-7.16-12.39 12.31-4.63 21" style="fill:#af6152"/><path d="M291.7 109c10.35 1.53 13.58 3.77 19.28 15.23 6.64 13.34 17.38 31.91 19 37.7 1.55 5.39 4.63 9.23-1.27 17.43-5.4 7.5-22.36 27.15-24.85 30-2.2 2.55-1 9.85 6.6 8.77 0 0-5.77 5.1-8.94 4.54-2.74-.49-7-2.89-11-11.18-2.49-5.23-.41-9.34 3.38-15.17 4.52-6.95 14.29-26.35 14.29-26.35L290.77 139s-7.89-20.8.93-30" style="fill:#c8856a"/><path d="M292 108.39c8.64 2 11.13 1.66 16.55 10.2s14.35 26.41 17.57 32.56 8.09 16.25 6.1 22.26c-2.29-3.66-15-6.53-24-3.41L290 139.58s-9.13-22.41 2-31.19" style="fill:#409e8d"/><path d="M307.36 171.76c5.8-1.42 14 0 19.37 2.55 1.06.49 3 1.82 3 3.55l-1 1.5a3 3 0 0 0 3.11-1.53 23 23 0 0 1 1.07-2.16c.7-1 1.95-1.71 2.14-2.92.17-1.05-.54-2-.89-3-.6-1.75-.15-3.84-1.22-5.34a4.9 4.9 0 0 0-1.41-1.23c-3-1.86-6.62-2.22-10.11-2-5.41.26-11 1.85-14.75 5.78a1.85 1.85 0 0 0-.35 2.41c.11.26.26.55.14.81a1.3 1.3 0 0 1-.23.3 1.66 1.66 0 0 0-.26.84 2 2 0 0 0 .71 1.8Z" style="fill:#409e8d"/><path d="M307.36 171.76c5.8-1.42 14 0 19.37 2.55 1.06.49 3 1.82 3 3.55l-1 1.5a3 3 0 0 0 3.11-1.53 23 23 0 0 1 1.07-2.16c.7-1 1.95-1.71 2.14-2.92.17-1.05-.54-2-.89-3-.6-1.75-.15-3.84-1.22-5.34a4.9 4.9 0 0 0-1.41-1.23c-3-1.86-6.62-2.22-10.11-2-5.41.26-11 1.85-14.75 5.78a1.85 1.85 0 0 0-.35 2.41c.11.26.26.55.14.81a1.3 1.3 0 0 1-.23.3 1.66 1.66 0 0 0-.26.84 2 2 0 0 0 .71 1.8Z" style="fill:#fff;opacity:.4"/></svg>